<?xml version="1.0" encoding="utf-8"?>
<!-- Generator: Adobe Illustrator 25.0.1, SVG Export Plug-In . SVG Version: 6.00 Build 0)  -->
<!DOCTYPE svg PUBLIC "-//W3C//DTD SVG 1.1//EN" "http://www.w3.org/Graphics/SVG/1.1/DTD/svg11.dtd" [
	<!ENTITY ns_extend "http://ns.adobe.com/Extensibility/1.0/">
	<!ENTITY ns_ai "http://ns.adobe.com/AdobeIllustrator/10.0/">
	<!ENTITY ns_graphs "http://ns.adobe.com/Graphs/1.0/">
	<!ENTITY ns_vars "http://ns.adobe.com/Variables/1.0/">
	<!ENTITY ns_imrep "http://ns.adobe.com/ImageReplacement/1.0/">
	<!ENTITY ns_sfw "http://ns.adobe.com/SaveForWeb/1.0/">
	<!ENTITY ns_custom "http://ns.adobe.com/GenericCustomNamespace/1.0/">
	<!ENTITY ns_adobe_xpath "http://ns.adobe.com/XPath/1.0/">
]>
<svg version="1.1" id="Layer_1" xmlns:x="&ns_extend;" xmlns:i="&ns_ai;" xmlns:graph="&ns_graphs;"
	 xmlns="http://www.w3.org/2000/svg" xmlns:xlink="http://www.w3.org/1999/xlink" x="0px" y="0px" viewBox="0 0 734.4 274.9"
	 style="enable-background:new 0 0 734.4 274.9;" xml:space="preserve">
<style type="text/css">
	.st0{fill:#56C0EE;}
	.st1{fill:#37474F;}
	.st2{fill:#286B82;}
	.st3{fill:none;}
</style>
<metadata>
	<x:xmpmeta  xmlns:x="adobe:ns:meta/">
		<rdf:RDF  xmlns:rdf="http://www.w3.org/1999/02/22-rdf-syntax-ns#">
			
				<rdf:Description  rdf:about="" xmlns:dc="http://purl.org/dc/elements/1.1/" xmlns:stDim="http://ns.adobe.com/xap/1.0/sType/Dimensions#" xmlns:stEvt="http://ns.adobe.com/xap/1.0/sType/ResourceEvent#" xmlns:stFnt="http://ns.adobe.com/xap/1.0/sType/Font#" xmlns:xmp="http://ns.adobe.com/xap/1.0/" xmlns:xmpG="http://ns.adobe.com/xap/1.0/g/" xmlns:xmpGImg="http://ns.adobe.com/xap/1.0/g/img/" xmlns:xmpMM="http://ns.adobe.com/xap/1.0/mm/" xmlns:xmpTPg="http://ns.adobe.com/xap/1.0/t/pg/">
				<xmp:CreatorTool>Adobe Illustrator 25.0 (Macintosh)</xmp:CreatorTool>
				<xmp:CreateDate>2020-12-03T14:49:05-05:00</xmp:CreateDate>
				<xmp:Thumbnails>
					<rdf:Alt>
						<rdf:li  rdf:parseType="Resource">
							<xmpGImg:width>256</xmpGImg:width>
							<xmpGImg:height>48</xmpGImg:height>
							<xmpGImg:format>JPEG</xmpGImg:format>
							<xmpGImg:image>/9j/4AAQSkZJRgABAgEASABIAAD/7QAsUGhvdG9zaG9wIDMuMAA4QklNA+0AAAAAABAASAAAAAEA
AQBIAAAAAQAB/+4ADkFkb2JlAGTAAAAAAf/bAIQABgQEBAUEBgUFBgkGBQYJCwgGBggLDAoKCwoK
DBAMDAwMDAwQDA4PEA8ODBMTFBQTExwbGxscHx8fHx8fHx8fHwEHBwcNDA0YEBAYGhURFRofHx8f
Hx8fHx8fHx8fHx8fHx8fHx8fHx8fHx8fHx8fHx8fHx8fHx8fHx8fHx8fHx8f/8AAEQgAMAEAAwER
AAIRAQMRAf/EAaIAAAAHAQEBAQEAAAAAAAAAAAQFAwIGAQAHCAkKCwEAAgIDAQEBAQEAAAAAAAAA
AQACAwQFBgcICQoLEAACAQMDAgQCBgcDBAIGAnMBAgMRBAAFIRIxQVEGE2EicYEUMpGhBxWxQiPB
UtHhMxZi8CRygvElQzRTkqKyY3PCNUQnk6OzNhdUZHTD0uIIJoMJChgZhJRFRqS0VtNVKBry4/PE
1OT0ZXWFlaW1xdXl9WZ2hpamtsbW5vY3R1dnd4eXp7fH1+f3OEhYaHiImKi4yNjo+Ck5SVlpeYmZ
qbnJ2en5KjpKWmp6ipqqusra6voRAAICAQIDBQUEBQYECAMDbQEAAhEDBCESMUEFURNhIgZxgZEy
obHwFMHR4SNCFVJicvEzJDRDghaSUyWiY7LCB3PSNeJEgxdUkwgJChgZJjZFGidkdFU38qOzwygp
0+PzhJSktMTU5PRldYWVpbXF1eX1RlZmdoaWprbG1ub2R1dnd4eXp7fH1+f3OEhYaHiImKi4yNjo
+DlJWWl5iZmpucnZ6fkqOkpaanqKmqq6ytrq+v/aAAwDAQACEQMRAD8A7tYaZoUPlmyvp9PjuJ5v
SQ1NCzSSBK19q1zaZMuQ5TESoC3SYcGGOCMzAEmvtNJnquheXLDT57z9GRyiBeZjFQSK7775j4s+
WchHiO7lZ9LgxwMuAGks1mx0yO+h0zRtGt7zUJIzcSGVikUUNaBnINasdlGAanJ1kXH1GHGJCGPH
GUyL35Aefv6LIo9Al8u3WojSIob6zJhubOSp4TqQCtQdweQIOWYs2SUxHiNFiI4ThM/DAlHYjuKa
/onTtP8AMem/UrdYPViufU49+Ijp+s5HxpTxS4je4/S5X5eGPPDhFWJfoZDmE7F2KtLIj14MGp1o
a4SKQCCpXV7Z2iq11PHbq5KoZXVAxVGkIHIitERm+QJ7YEqFnrmj3t3LZ2d5Dc3MMUU8scTh+Mc4
5RMStR8a7j2oehGKqp1LTheCyN1CLw0AtvUX1d1Lj4K8vsqT06DFWhqVmdSbTA5N4kK3MkYRyqxO
7IhZ6cAWZG4gmpodtjiqJxV2KuxV2KuxV2KuxV5Z5S81eYbz87vMug3N68ukWdo8lrZkLwRg9uAR
QV6SN375IjZgD6qZN+bGr6lo/wCX2salps7W19bpEYZ1oSpadFNKgj7LEYI82UjsjPy81G91LyPo
l/fSme8ubSOSeZqAsxG5NKDE81HJkOBLsVdirTMqqWYhVHUnYYqhbrV9Ks3dLu9gt3jjE0iyyohW
ItwEjBiKLz+GvSu2Kt3eqadZlBc3CRtJLFAiE/EZZ24xKFG9WP8AE9AcVX31/ZWFpJd3s6W1rFT1
JpWCqKkKNz4sQB4nFVfFXYqksvm/RkneJGkmSI0nuIULxR70q7jt7jMoaOZF8vLqXBl2hiBoWa5k
DYe8pZZ/Hovlq3rTncRuflErv+sDL57ZMh8vvcXFviwjvkPsssj1WAXGl3cB39WGRfpKkZhYpVMH
zdnnhxY5DvBY95EdrttS1KT+8ka3tvksFtGfxaQnJ6gVMjzP3uv7Llx8Uzz9I+UR+tCa4DBq+tWy
7LfxWE9AP2/X9FvvVMs0v1A91/c1ar05Mkf5wxn/AGXD9wZBf/8AKR6T/wAYrr9UeQx/3UvfH9Ln
Zf7+Hul/vU2NaGgqewzHcxhWt6hqUQtnvLH1ZLmUR+lcsDCCeqpDG1Gp05Ofopm0wY4m+GXIdOfz
P3B0eqzTHDxRviNb8vgAftLvOFjFohtNY0pRaTCURSJF8KMCCwqg2/ZNcOjyHLcJ7ikdpYhg4cuP
0m625I/zLpdh5s0i10x7prSa4EV9GyLyPpAgSrXYfHFI0da7VrvSma+WMxvuBp20M0ZUOshfwYxJ
+SNrS5a31T07iVVjtrh7ZZHgijaRY41PNfhFu8cJ6VCV70EOJt4VSw/Jm0s9O1CyFxaSrfcSrvZy
FoWS4eZeD/WfUKqrhaO5rxBYkfDjxLworV/yng1G6hvGurb6zHYW9hIJbFGhcwxXETTelHJEFY/W
F4AbJwpvtxeJeFPvKdhpWgW48uw3CTXytNdTssfps5mlMnJ6chyAdRu1SBkjjlw8VelrGaHHwX6u
dI7UNYmhu1srG0a9u+IeRQwjSNCaAu5BpXsKZPHhBHFI8Ia82oMZcMI8UvkB7yjLC7W8s4rlVKCV
Q3A0JB7io265XkhwyIbsWTjiJd6vkGx2KuxV2KvnKbX9b0L87vNl7o1rFeXZgMZimNF4M1sSftJv
sO+ZWDD4mzharUeCDJP/AMwPPmp6z+W+rWd/p0dncPGhkaOUyKQs0ZFBxFPvOXZNEYRMiXFw9pjL
MQA+L0T8qv8AyXPl3/mCi/VmBLm7aPJlEj8I2fiW4gnioqTQVoBiBZUmhbC9G1rVrjVLkRObi7uI
oysLFvq8Jb4yTT7KxqQp7s2bTNghGAvYA/E/2/c6PTanJLIaNyIG38I6/ZsO8lF69pS2kVlcieWf
V5LuGOO6diKszbqEB4qlK7AZVp8vESKAhwnZv1eAQEZWTk4hv+NqVvzE0m/1XypcWVipkmklt+UI
oQ8YnT1Kg9eKVb6MwA7UsBm8vea7240jVJtNub+zSCMXttO4hubieC1RP3gk+JUnniXn6g+ELyG7
ZK0InzBZedtcm06/m8v+hqlpJLbRXEbcAkskvp+uSknq8I4U+Ek8TyY9lDIpU889W+v6vqlhpWlR
xfWdOij1N4pJFSIyvKIY2Vmjfn6IErUKUrxJB+ywCSyHyvN5qkW8TX4YozDMyWs0ZH75OvIKKcVW
vEE7tTlRemAqFfzLDqNxYJZ2NVa7lWGeVR/dwsCXb8KfTl+lMYy4pdBfxcTWxnKAjD+I0fIdUvuR
bSqPLGjqFiUBdRnXpFF+0pI+1JJ0+/6L42P3s/h5/sDjz4T/AIPi5fxHuH6ypWsFw3lTSby2X1J7
DjcCIdXUcldR7lW2wzkPGlE8pbMMcJfl8co7mG/v70y1TWI5dJi+o/vrjU19KyTxLj4mbwCDdspx
YSJni2Eef483Kz6gHGODcz2j+PJLtHjHlzWH0udv9B1FVms7g7KJoYlSaNq9CyoGXKskuMmTRp4/
l8nhn6Z7g+YABH2WPil8jyalLLr1DHa3d1Z2lgGqCYIZiTIfZ3NR7Zfp9iR/Rl9zjzJyXl/hlKEY
+4S5/E/YyS//AOUj0n/jFdfqjyvH/dS98f0uwy/38PdL/eovUtUtrCNGlDPJK3CCCMcpJH8FGV4s
Rmdm7NnjjG/M8h1LGNXu31HzJolnLA0E0ErSzQsVboFkU1UkEUXM/DDgxTkDYIdVqMniZ8cSKINk
fat/Mm55W9lYp8Ukshk4Dr8I4r9/M4ezI7yl5I7bncYwHMm/x81S31GWzsNYaSQm2sY47G2hrUer
FFxan+y6+2CWMSlCucjxH3EsoZjCGQk+mAEQPMBCWVrKk+gW9y1JYYzeysT/AHUEYJRR/rGvL6B2
yycwRMjkdveWrFjIOKMuYHEfID9fX9iEeSe90q+umU8NUvvTsbdv53IHJgP5VFB77+GWACM4j+ZH
ctJkZ45S/wBUnUR+O770w1O6kv8AXrbRljlubCwQGaKOn790ovxEkAIGoDU+OU4o8GM5NhKX2ORn
mcmYYqJhAb/0v2K0CXVjrdo8RVJdQmMc6CjJwiUGURmgNEACD5E98jIieM3/AAj7+Xz5tkRLHljX
OZ3+HOvdyTC9uZrmVbOwjMU2pEvPdCtUtkonqb93AomUQiIjilyj08+79bk5ZmR4YCjPme6PK/j0
Ty3t4reCOCFeMUShEUdgBQZiykZGy50ICIAHIKmRZOxV2Ksa/MTzinlDynea16Ynnj4x2sDEhXmk
PFeVOw+0fYYQLRI0HyXbedtYTzRc+YbgrcXd8zm9Q/CrrIwYqKfZpxHHwoOo2zKxZDjNhwdRiGWJ
jLqyP8yvNcDpFo+mOZLW5tra6u5mABPrxpcxxAAtTgGXkevLbahrfn1hyCqoOLpuz44ZcV8RZ7/z
jr+Y95cOvku/UPFBE8umTgUYBW5PE/iPiLKfo8MwZjq7THLo9r1nVItPspZS8YuODGCKR1Tmw6fa
K/TksOIzkB0YanOMcCbF9LNIfyzp1vZ6cHSVLi4uT6t3dIwfnIdz8Q6hSaZPVZDKXKgOQa9DhjCF
g3KW5PeUo1XU1n1Z7tWU2ukVit+YJWW+lFAg47nh7dPlmRixVDh6z5+UQ4efPxZOL+HHsPOZ/UyK
51BLDTPrmoEJ6SKZ/TqRzNAQvf7RoMwo4+OfDF2U8wx4+KfQbpbY+Z1udQuI3iENjFb/AFlLlial
OVORWnwhhuO9Pnl89LwxBu5E1TjYtdxTIIqAjxX5KI83G4lsWsrVmtLqdIDNMeBJb7XBRWvDuenb
J/k6EuI7gW1/yhxGPBH0ylVn9Hudf+Z7WHWxZ2Fj9e1EgRTSIVUqoNePOjEhSSTXYZHHpCYccjwh
ll7QAyeHCPHLqiYNduJvM8+kiJFgt4+TOxPqMxCsCB0p8X4ZGWADEJ3uSzhqpSznHWwHxU9d1K4n
vYdC02ZYru4Ba5nrvDEBU8f8th0/h1yWDEBE5JC4jl5ljqs0pTGGBqR5nuH6/wAeaZ6Xpdnplott
apxQbsx3Z27sx7k5j5cspmy5WDBHFHhihPKn/KOWH/GIfrOWav8AvZe9p0H9xH3MXivXsRHeRAFY
or02nIEqP9LUNQVH7BObAw4/Sepjf+l/W6uOXw6kOgnX+nH6EB511u81LQ5I3VFeORDD6YYP6nqz
x7bn/dUe+Y08EYUR+Nh+to7Q1M8uIjqOVc74pD7gyrUBEPKmnPGAYojZMvHoF5IBT6DlWm+s+4/c
7bPXgRI5Dg+8I2//AOUj0n/jFdfqjyOP+6l74/pbcv8Afw90v96o38fHzXps839wYZYoGPQTHenz
ZemTxn9zIDnY+TDKK1ECeVED3/2NXllHa65Jr99cJHa28HpQp3qepPidyABjCZlj8OI3JXJiEMpz
TNREaS3RtOuta1s+YL+Mx2sdBp8D7EhfssR4Dr7n2y/NkGLH4cefVxdNhlny+NMVEfSE6fy1pzx3
sTGQx3rvI6lhRHlpzZNupp3rmKNTIEH+a5x0UCJDepWfn3L5NBsn1CO+ZpPUSFbdo6jg6K3MchSv
2gOhwDUSEeHztkdLEzE97qvhzUj5ZsPqlrbJJLGlnM08Dqy8gzMWIqVO3xfPJfmpWTt6hTD8lDhj
EEjhNhUby9ZfXkvYJJbaVYvq7CJgA0fg3IMe3UEHIjUS4eE0RdsjpI8fGCYmq27lS70WyupLV25x
/Uw6xrGeIKSKFZW26EDtghnlEHzZZNNGRif5v6UQloq3bXIkfeMRiGo9NQpJqq02JrkDPamwY6lx
X0quivkGx2KuxV2KvPPz70mfUPy01AwAs9k8V2UAqSkb0f8A4FGLfRko82Mxs+SQCTQbk5a471PW
/I40XWbO11G1UtK3l4UkAbZ4WhuU+TSwtUfLI228P6E7/I7y+kvnLStRghVI7LT7yW4kApyd7qW3
jBI78DtXsuCRTAPaYNR0q0v7/wDSzpDfGVijzD7Vv/usRmlONOoHeuZMsc5Rjwbxrp39bcGObHCc
vENSvr/N6V+OaV3Mdxd3Mk3lOGW3SRGFzOP3NvLtQemrj7f+UKU/HMiJERWYg93Uj3+TiZIynInT
AjvPKJ919fNFxaTcS2umfo60NuNMl5yW17VPUcj7fJOVSp3rT+mVHMAZcRviHOPRujpyYw4I1wHl
Lr57WidQ8u6lqs1q2pXSG3jk5zWcQYR8QNgCd2J6Emm3TIY9THGDwjfvbc2jnmMeOXpB3A5ft/FL
tV8pi+uZ5Fu3hhuvRFxbqooyw7UB6jbt0rvgxavgAFWRdH3p1HZ/iSJ4qEqse5G32hQ3H1I28rWb
WBPoGMKQFZeJHFgR06HKseci7F8Tfl0olw0eHg5UgrHQtX04zwWVzAtvO7SG6kjZ7kct99wrkdif
uy3JnhOjIGx06NGLS5MdiJjRPMj1ftS/WdOvYtS06z0+1eYxt9aa+cVLTk0rLLTYCgLDuKAdsvw5
ImMpSNdK8vIONqcMxOEYRJr1cXn5n7+/kmWjaNqNlq9xLNKJLQxgIxA5yTPxaWRu4+IEfKnhlGbN
GUAAN7+zoHK02mnDISTca+Z6n8eXcn2YbsGOacvmWy0mKwTT4meKMxrP9ZA33o3Hh/HM3IcUpmXE
d/L9rrMIz48YgIjYc+L9ijqvli7k0GwtLUKbq1Qo9WoCJIyJN/8AXocni1QGSUjyP69mGfQyOGMY
/VEfeN/tQGm+T9U/TNvLfJGbCMyvIoapZz6gTb/nsTkdTqIzAEfxy/U1YOz8gygzrhF/76v90msG
iamvk1dIk4teQr6cR5VUrFLWI1/1VGU4cgjkEjycoaaf5bw/4hsPgdkTFFrF1rFpdXVolrFapMpK
zCUsZQtNuKUpwyRMIwIBsmulcmcY5ZZYylEREQet868h3JtPbwXERinjWSNuqMKj8cxoyINhzJQE
hRFhCjQtJEiyNbiR0NUMpaTifYOWAy3x51VtX5XHd1fv3+9HZS3uxV2KuxV2KuxV2KuxV2KuxV2K
rJ4IZ4ZIJ0WWGVSksbgFWVhRlIPUEYq8u0T/AJx58paX5oXWfrE1zaQSetaaZIFKJIDVeb/akVT0
BHzJ7yM2AgLZv5s8n6b5lt7WO6ZoZbO6gu4Z4wvLlAxZUaoNUPI7YAWRFu8m+UNN8q6NHplkzS8S
zSXEgX1HLuz0JUD4QzniO2JNqBSeFVNKgGhqK9jgTTeKuxV2KuxV2KuxV2KuxV2KuxV2KuxV2Kux
V2KuxV2KuxV2KuxV2KuxV2KuxV2KuxV2KuxV2KuxV2KuxV2KuxV2KuxV2KuxV2KuxV2Kv//Z
								</xmpGImg:image>
						</rdf:li>
					</rdf:Alt>
				</xmp:Thumbnails>
				<xmp:MetadataDate>2020-12-03T14:49:05-05:00</xmp:MetadataDate>
				<xmp:ModifyDate>2020-12-03T14:49:05-05:00</xmp:ModifyDate>
				<xmpTPg:MaxPageSize  rdf:parseType="Resource">
					<stDim:w>734.446286</stDim:w>
					<stDim:h>274.928388</stDim:h>
					<stDim:unit>Pixels</stDim:unit>
				</xmpTPg:MaxPageSize>
				<xmpTPg:NPages>1</xmpTPg:NPages>
				<xmpTPg:HasVisibleTransparency>False</xmpTPg:HasVisibleTransparency>
				<xmpTPg:HasVisibleOverprint>False</xmpTPg:HasVisibleOverprint>
				<xmpTPg:Fonts>
					<rdf:Bag>
						<rdf:li  rdf:parseType="Resource">
							<stFnt:fontName>Amarillo</stFnt:fontName>
							<stFnt:fontFamily>Amarillo</stFnt:fontFamily>
							<stFnt:fontFace>Regular</stFnt:fontFace>
							<stFnt:fontType>TrueType</stFnt:fontType>
							<stFnt:versionString>Version 1.000 by Francis Sudio</stFnt:versionString>
							<stFnt:composite>False</stFnt:composite>
							<stFnt:fontFileName>Amarillo.ttf</stFnt:fontFileName>
						</rdf:li>
						<rdf:li  rdf:parseType="Resource">
							<stFnt:fontName>RedHatDisplay-Regular</stFnt:fontName>
							<stFnt:fontFamily>Red Hat Display</stFnt:fontFamily>
							<stFnt:fontFace>Regular</stFnt:fontFace>
							<stFnt:fontType>TrueType</stFnt:fontType>
							<stFnt:versionString>Version 1.005; Red Hat Display</stFnt:versionString>
							<stFnt:composite>False</stFnt:composite>
							<stFnt:fontFileName>RedHatDisplay-Regular.ttf</stFnt:fontFileName>
						</rdf:li>
					</rdf:Bag>
				</xmpTPg:Fonts>
				<xmpTPg:PlateNames>
					<rdf:Seq>
						<rdf:li>Cyan</rdf:li>
						<rdf:li>Magenta</rdf:li>
						<rdf:li>Yellow</rdf:li>
						<rdf:li>Black</rdf:li>
					</rdf:Seq>
				</xmpTPg:PlateNames>
				<xmpTPg:SwatchGroups>
					<rdf:Seq>
						<rdf:li  rdf:parseType="Resource">
							<xmpG:groupName>Default Swatch Group</xmpG:groupName>
							<xmpG:groupType>0</xmpG:groupType>
							<xmpG:Colorants>
								<rdf:Seq>
									<rdf:li  rdf:parseType="Resource">
										<xmpG:swatchName>C=58 M=5 Y=0 K=0 1</xmpG:swatchName>
										<xmpG:mode>CMYK</xmpG:mode>
										<xmpG:type>PROCESS</xmpG:type>
										<xmpG:cyan>57.860684</xmpG:cyan>
										<xmpG:magenta>4.885939</xmpG:magenta>
										<xmpG:yellow>0.000000</xmpG:yellow>
										<xmpG:black>0.000000</xmpG:black>
									</rdf:li>
									<rdf:li  rdf:parseType="Resource">
										<xmpG:swatchName>C=86 M=49 Y=36 K=11 1</xmpG:swatchName>
										<xmpG:mode>CMYK</xmpG:mode>
										<xmpG:type>PROCESS</xmpG:type>
										<xmpG:cyan>85.653466</xmpG:cyan>
										<xmpG:magenta>48.581672</xmpG:magenta>
										<xmpG:yellow>36.179140</xmpG:yellow>
										<xmpG:black>10.687418</xmpG:black>
									</rdf:li>
									<rdf:li  rdf:parseType="Resource">
										<xmpG:swatchName>C=73 M=0 Y=46 K=0 1</xmpG:swatchName>
										<xmpG:mode>CMYK</xmpG:mode>
										<xmpG:type>PROCESS</xmpG:type>
										<xmpG:cyan>72.503239</xmpG:cyan>
										<xmpG:magenta>0.000000</xmpG:magenta>
										<xmpG:yellow>46.454564</xmpG:yellow>
										<xmpG:black>0.000000</xmpG:black>
									</rdf:li>
									<rdf:li  rdf:parseType="Resource">
										<xmpG:swatchName>C=86 M=32 Y=66 K=16 1</xmpG:swatchName>
										<xmpG:mode>CMYK</xmpG:mode>
										<xmpG:type>PROCESS</xmpG:type>
										<xmpG:cyan>85.702294</xmpG:cyan>
										<xmpG:magenta>32.138550</xmpG:magenta>
										<xmpG:yellow>66.103607</xmpG:yellow>
										<xmpG:black>15.576409</xmpG:black>
									</rdf:li>
									<rdf:li  rdf:parseType="Resource">
										<xmpG:swatchName>C=78 M=60 Y=52 K=38 1</xmpG:swatchName>
										<xmpG:mode>CMYK</xmpG:mode>
										<xmpG:type>PROCESS</xmpG:type>
										<xmpG:cyan>77.825588</xmpG:cyan>
										<xmpG:magenta>60.234988</xmpG:magenta>
										<xmpG:yellow>52.483404</xmpG:yellow>
										<xmpG:black>38.113984</xmpG:black>
									</rdf:li>
								</rdf:Seq>
							</xmpG:Colorants>
						</rdf:li>
					</rdf:Seq>
				</xmpTPg:SwatchGroups>
				<dc:format>image/svg+xml</dc:format>
				<xmpMM:DerivedFrom  rdf:parseType="Resource"></xmpMM:DerivedFrom>
				<xmpMM:DocumentID>xmp.did:0ffee13e-f5e8-468e-b584-fe3f10d80539</xmpMM:DocumentID>
				<xmpMM:InstanceID>xmp.iid:0ffee13e-f5e8-468e-b584-fe3f10d80539</xmpMM:InstanceID>
				<xmpMM:OriginalDocumentID>xmp.did:0ffee13e-f5e8-468e-b584-fe3f10d80539</xmpMM:OriginalDocumentID>
				<xmpMM:History>
					<rdf:Seq>
						<rdf:li  rdf:parseType="Resource">
							<stEvt:action>saved</stEvt:action>
							<stEvt:instanceID>xmp.iid:0ffee13e-f5e8-468e-b584-fe3f10d80539</stEvt:instanceID>
							<stEvt:when>2020-12-03T14:49:05-05:00</stEvt:when>
							<stEvt:softwareAgent>Adobe Illustrator 25.0 (Macintosh)</stEvt:softwareAgent>
							<stEvt:changed>/</stEvt:changed>
						</rdf:li>
					</rdf:Seq>
				</xmpMM:History>
			</rdf:Description>
		</rdf:RDF>
	</x:xmpmeta>
	<sfw  xmlns="&ns_sfw;">
		<slices></slices>
		<sliceSourceBounds  bottomLeftOrigin="true" height="180.9" width="653" x="40.7" y="47"></sliceSourceBounds>
		<optimizationSettings>
			<targetSettings  fileFormat="PNG24Format" targetSettingsID="0">
				<PNG24Format  filtered="false" interlaced="false" matteColor="#FFFFFF" noMatteColor="false" transparency="true">
					</PNG24Format>
			</targetSettings>
		</optimizationSettings>
	</sfw>
</metadata>
<g>
	<path class="st0" d="M239.3,216.5c-1.7,0-3.4-0.1-5-0.3c-2.3-0.2-4.6-0.7-6.8-1.3c-3.7-1.1-6.7-2.7-9.2-4.9
		c-2.4-2.2-4.3-4.7-5.6-7.6c-1.2-2.9-1.9-5.9-2-9.1c-0.1-2.9,0.3-5.9,1.1-8.9c0.8-3,2.2-5.8,3.9-8.5c1.7-2.7,4-5.1,6.6-7.2
		c2.6-2.1,5.7-3.8,9.1-5.1c3.4-1.3,7.3-2,11.5-2.2l1.5,0c5.4,0,10.5,0.8,15.3,2.5c8.2,2.9,16.2,7.7,23.6,14.2
		c2.7,2.4,5.1,4.6,7.2,6.6c7.9-7.9,15.4-17.4,22.2-28.4c7-11.3,12.8-22.7,17.2-34c4.4-11.2,6.7-21,7.1-28.9l0-2.6
		c-0.1-3.4-0.6-6.2-1.4-8.3c-0.8-2-1.9-3.4-3.2-4.3c-1.2-0.8-2.7-1.2-4.3-1.2c-0.1,0-0.3,0-0.4,0c-5.4,0.2-12.9,4.1-22.1,11.5
		c-8.3,6.7-17.2,15.3-26.3,25.5c-8.8,9.9-15.6,18.6-20.2,25.9c-2.3,3.7-4.2,6.8-5.7,9.4c-1.9,3.5-3.4,5.7-4.3,6.6l-0.1,0.1
		c-0.5,0.4-1.1,0.7-1.7,0.7c0,0,0,0,0,0c-1.1,0-2-0.5-2.8-1.5c-0.7-1-1.1-2.1-1.2-3.4c0-1,0.2-2,0.8-3l0.1-0.1
		c2.1-2.9,4.7-7.4,7.8-13.4c3.1-6.1,6.3-12.8,9.5-20.1c3.2-7.3,5.9-14.3,8.1-20.9c2.1-6.3,3.3-11.4,3.6-15.2
		c-0.5,0.3-1.6,1.1-3.3,2.9c-2.1,2.2-4.3,5.1-6.6,8.5c-2.3,3.4-4.2,7-5.7,10.6c-1.2,3.1-1.8,6.2-1.7,9.4c0,0.8,0.1,1.5,0.2,2.1
		c0.1,0.6,0.2,1.1,0.2,1.4c0.1,0.4,0.1,0.7,0.1,0.8l0.1,1.7l-1.5-0.5c-3-1.1-4.6-3.8-4.8-7.9c-0.1-2.4,0.3-4.7,1-7
		c0.9-3,2.3-6.1,4.1-9.1c1.8-3,3.7-5.9,5.9-8.4c2.1-2.6,4.3-4.7,6.5-6.3c2.3-1.7,4.3-2.6,6.1-2.7l0.2,0c2.3,0,5,1.4,5.2,7.8
		l-0.2,4.3c-0.6,5.1-2.2,11.3-4.9,18.5c-1.7,4.7-3.7,9.6-6,14.9c6.3-7.9,13.3-15.5,20.9-22.9c13.7-13.5,25.6-22,35.2-25.2
		c2.5-0.8,4.8-1.3,7-1.3c0.2,0,0.5,0,0.7,0c2.6,0,4.9,0.6,7,1.7c2.2,1.2,4,3.2,5.3,5.9c1.3,2.6,2,6.1,2.1,10.3
		c0.2,5.5-0.8,12.5-2.8,20.9c-2.8,10.9-6.9,21.9-12.3,32.5c-5.3,10.6-11.2,20.4-17.5,29c-6,8.2-11.7,15-17.1,20
		c3.4,3.7,7.2,6.5,11.3,8.5c3.9,1.8,8,2.8,12.3,2.8c0.4,0,0.7,0,1.1,0l0.6,0l0.5,2.2l-1.5,0.8c-1.1,0.6-2.6,1.1-4.7,1.5
		c-0.8,0.2-1.7,0.2-2.5,0.3c-0.2,0-0.4,0-0.6,0c-1.3,0-2.8-0.1-4.6-0.4c-2.2-0.3-4.9-1.4-8.1-3.1c-3-1.6-6.1-4.1-9.4-7.4
		c-0.9,0.9-2.1,2-3.8,3.2c-2.2,1.6-5,3.4-8.2,5.3c-3.3,1.9-6.9,3.7-11,5.5c-4,1.7-8.3,3.2-12.7,4.4c-4.5,1.2-9.1,1.9-13.6,2
		C240.6,216.5,239.9,216.5,239.3,216.5z M241.5,166.8c-0.4,0-0.8,0-1.2,0c-4,0.1-7.6,1-10.8,2.5c-3.1,1.5-5.8,3.5-7.9,5.9
		c-2.1,2.4-3.8,5-4.8,7.9c-1.1,2.9-1.6,5.7-1.5,8.6c0.1,2.8,0.8,5.5,2.1,8c1.3,2.5,3.2,4.6,5.8,6.4c2.6,1.8,6,2.9,10,3.5
		c1.8,0.2,3.7,0.4,5.5,0.4c0.5,0,1.1,0,1.6,0c5-0.2,10.2-1.2,15.5-3c5.3-1.8,10.5-4.2,15.5-7.2c4.7-2.8,9.1-6,13.3-9.5
		c-3.4-3.7-7.4-7.3-11.8-10.7c-4.8-3.7-9.4-6.6-13.7-8.5C252.9,168.2,247,166.8,241.5,166.8z"/>
	<path class="st0" d="M241.1,215.3c-2.3,0.1-4.5,0-6.7-0.2c-2.2-0.2-4.4-0.6-6.6-1.3c-3.5-1-6.4-2.6-8.8-4.7
		c-2.3-2.1-4.1-4.5-5.3-7.2c-1.2-2.7-1.8-5.6-1.9-8.7c-0.1-2.8,0.3-5.6,1.1-8.5c0.8-2.9,2.1-5.6,3.7-8.1c1.7-2.6,3.8-4.9,6.3-6.9
		c2.5-2.1,5.5-3.7,8.8-5s7-2,11.1-2.1l1.3,0c5.3,0,10.3,0.8,15,2.5c8.1,2.9,15.9,7.5,23.3,14c3,2.6,5.6,5.1,7.8,7.2
		c8.3-8.1,16-17.9,23.1-29.3c7.1-11.4,12.9-22.8,17.3-34.2c4.4-11.4,6.8-21.2,7.1-29.3l0-2.6c-0.1-3.6-0.6-6.5-1.5-8.7
		c-0.9-2.2-2.1-3.8-3.6-4.8c-1.5-1-3.3-1.4-5.3-1.4c-5.7,0.2-13.2,4.1-22.8,11.8c-8.4,6.7-17.2,15.3-26.4,25.6
		c-8.9,10-15.6,18.6-20.3,26.1c-2.3,3.7-4.2,6.8-5.7,9.4c-1.9,3.4-3.3,5.5-4.2,6.4c-0.4,0.3-0.7,0.4-1.1,0.5c-0.7,0-1.3-0.3-1.9-1.1
		c-0.6-0.8-0.9-1.7-0.9-2.7c0-0.8,0.2-1.6,0.6-2.4c2.1-2.9,4.7-7.4,7.9-13.5c3.1-6.1,6.3-12.8,9.5-20.2c3.2-7.4,5.9-14.4,8.1-21
		c2.2-6.6,3.4-11.9,3.6-15.9l0-0.2c0-0.6-0.2-0.8-0.6-0.8c-0.9,0-2.4,1.2-4.6,3.5c-2.2,2.3-4.4,5.2-6.7,8.6
		c-2.3,3.5-4.3,7.1-5.8,10.8c-1.3,3.3-1.9,6.6-1.8,9.9c0,0.9,0.1,1.6,0.2,2.3c0.1,0.6,0.2,1.1,0.2,1.5c0.1,0.3,0.1,0.5,0.1,0.6
		c-2.6-0.9-3.9-3.2-4-6.9c-0.1-2.3,0.2-4.5,1-6.6c0.9-3,2.3-5.9,4-8.9c1.7-3,3.7-5.8,5.8-8.3c2.1-2.5,4.2-4.6,6.3-6.2
		c2.1-1.6,3.9-2.4,5.5-2.5c2.7-0.1,4.1,2.1,4.3,6.7l-0.2,4.2c-0.5,4.9-2.1,11-4.8,18.1c-2.7,7.2-5.9,14.9-9.7,23.3
		c7.7-10.4,16.5-20.5,26.4-30.1c13.7-13.4,25.3-21.8,34.8-25c2.4-0.8,4.6-1.2,6.7-1.3c2.7-0.1,5.1,0.4,7.1,1.6c2,1.1,3.7,3,4.9,5.5
		c1.2,2.5,1.9,5.8,2,9.8c0.2,5.4-0.7,12.2-2.8,20.6c-2.8,10.9-6.8,21.6-12.2,32.2c-5.3,10.6-11.1,20.2-17.4,28.9
		c-6.3,8.7-12.2,15.5-17.8,20.7c3.7,4.2,7.9,7.4,12.5,9.6c4.4,2.1,9,3,13.8,2.8l0.6,0l-1.5,0.8c-1,0.5-2.5,1-4.4,1.4
		c-0.7,0.1-1.5,0.2-2.4,0.3c-1.3,0-3-0.1-5.1-0.4c-2.1-0.3-4.7-1.3-7.8-3c-3.1-1.7-6.4-4.4-9.9-8c-0.8,1-2.2,2.3-4.4,3.9
		c-2.2,1.6-4.9,3.4-8.1,5.3c-3.2,1.9-6.9,3.7-10.8,5.4c-4,1.7-8.2,3.2-12.6,4.3C250.1,214.5,245.6,215.1,241.1,215.3z M240.4,211
		c5.2-0.2,10.4-1.2,15.8-3c5.4-1.8,10.6-4.3,15.7-7.3c5.1-3,9.9-6.5,14.3-10.4c-3.6-4-7.9-7.9-12.8-11.7c-4.9-3.8-9.6-6.6-13.9-8.7
		c-6.8-3-13.2-4.5-19.2-4.2c-4.2,0.2-7.9,1-11.2,2.6c-3.3,1.6-6,3.6-8.3,6.1c-2.2,2.5-3.9,5.3-5.1,8.3c-1.1,3-1.6,6-1.5,9
		c0.1,3,0.8,5.8,2.2,8.5c1.4,2.7,3.4,4.9,6.2,6.8c2.8,1.8,6.3,3.1,10.5,3.7C235.5,211,237.9,211.1,240.4,211z"/>
	<path class="st0" d="M341.2,198.2c-2.1,0-4.1-0.3-5.9-0.9c-2.1-0.7-3.9-2.1-5.2-4.1c-1.3-2-2-4.7-2.2-8.3c-0.1-3,0.5-6.3,1.6-9.9
		c1.1-3.3,2.4-6.6,4-9.7c2.9-5.9,5.1-9.2,6.9-10.3c0.9-0.5,1.8-0.8,2.6-0.8l0.2,0c1,0,1.8,0.3,2.5,0.9c0.8,0.7,1.2,1.6,1.3,2.8
		c0,0.8-0.2,1.7-0.6,2.7l0,0.1l0,0.1c-1.3,2.2-2.7,4.9-4.2,7.8c-1.4,3-2.7,6-3.7,9c-1,3-1.5,5.6-1.4,7.9c0.1,3.6,1.8,5.4,5.3,5.8
		c0.7,0.1,1.4,0.1,2.2,0.1c0.3,0,0.6,0,0.9,0c5.8-0.2,12.5-2.5,19.6-6.6c5.5-3.2,11-7.2,16.5-11.9c1.7-1.5,3.6-3.2,5.8-5.1
		c0.7-0.7,1.6-1,2.7-1.1l0.2,0c1.8,0,2,1.4,2,1.6l0,0.2l-0.3,0.9l-0.1,0.1c-1.2,1.4-3.3,3.5-6.5,6.4c-3.2,2.8-7,5.8-11.5,9
		c-4.5,3.1-9.3,6-14.3,8.4c-5.1,2.4-10.2,4-15.2,4.6l-2.1,0.2C341.7,198.2,341.4,198.2,341.2,198.2z M348.4,150.8
		c-1.9,0-3.2-0.4-4.1-1.3c-0.9-0.9-1.4-2-1.5-3.4c0-1.2,0.2-2.4,0.8-3.6c0.6-1.2,1.4-2.2,2.4-3c1.1-0.9,2.2-1.3,3.5-1.4l0.2,0
		c1,0,2.1,0.3,3.1,1c1.4,0.9,2.1,2.2,2.2,3.7c0,1.3-0.3,2.5-1.1,3.8c-0.7,1.2-1.6,2.1-2.5,2.9c-1.1,0.9-2,1.3-2.9,1.3L348.4,150.8z"
		/>
	<path class="st0" d="M341.9,197.1c-2.3,0.1-4.4-0.2-6.3-0.8c-1.9-0.6-3.5-1.9-4.7-3.6c-1.2-1.8-1.8-4.3-2-7.6
		c-0.1-2.9,0.5-6,1.5-9.5c1-3.3,2.3-6.4,3.9-9.5c2.7-5.6,4.9-8.8,6.5-9.8c0.7-0.4,1.4-0.6,2.1-0.7c0.8,0,1.4,0.2,2,0.6
		c0.6,0.5,0.8,1.1,0.9,1.9c0,0.6-0.2,1.4-0.5,2.2c-1.3,2.3-2.7,4.9-4.2,7.9s-2.7,6.1-3.8,9.2c-1,3.1-1.5,5.9-1.4,8.4
		c0.1,4.2,2.2,6.5,6.3,6.9c1.1,0.1,2.1,0.1,3.2,0.1c6-0.2,12.8-2.5,20.1-6.8c5.6-3.3,11.1-7.3,16.7-12c1.7-1.5,3.7-3.2,5.8-5.1
		c0.6-0.5,1.2-0.8,2-0.8c0.7,0,1,0.1,1,0.5l-0.2,0.5c-1.1,1.4-3.3,3.5-6.4,6.3c-3.1,2.8-6.9,5.8-11.4,8.9c-4.4,3.1-9.2,5.9-14.2,8.3
		c-5,2.4-10,3.9-14.9,4.5L341.9,197.1z M348.4,149.6c-1.6,0-2.8-0.3-3.5-1c-0.7-0.7-1.1-1.6-1.1-2.6c0-1,0.2-2,0.7-3.1
		c0.5-1,1.2-1.9,2.1-2.7c0.9-0.7,1.8-1.1,2.9-1.1c0.9,0,1.8,0.2,2.7,0.8c1.1,0.7,1.6,1.6,1.6,2.8c0,1-0.3,2.1-0.9,3.1
		c-0.6,1-1.4,1.9-2.3,2.6C349.8,149.3,349.1,149.6,348.4,149.6z"/>
	<path class="st0" d="M381.4,195.3c-0.8,0-1.6-0.3-2.3-0.8c-0.8-0.6-1.2-1.6-1.3-3.1c0-1.1,0.2-2.4,0.7-4.1c0.4-1.1,0.8-2.3,1.3-3.6
		c0.5-1.2,1-2.5,1.4-3.9c2-5.7,5.1-13.3,9.2-22.4l1.1-2.5c1-2.3,2.5-2.9,3.6-2.9l0.1,0c0.9,0,1.8,0.4,2.5,1.1
		c0.8,0.7,1.2,1.7,1.2,2.8c0,0.7-0.2,1.5-0.5,2.2l-5.2,12.3c2.4-3.8,5-7.7,7.7-11.6c3.7-5.5,7.2-9.8,10.4-12.9
		c1.9-1.7,3.6-3.1,5.3-4.1c1.8-1,3.4-1.6,4.8-1.6l0.2,0c1.6,0,2.9,0.7,3.9,2c1,1.3,1.5,3.3,1.6,6.1c0.1,3.7-0.7,8.8-2.4,15.8
		c-1.8,7.1-2.6,12.2-2.5,15.4c0.1,3.6,1.3,3.6,1.7,3.6c0.9,0,2.5-0.6,5.1-2.9c2.2-2,4.6-4.6,7.1-7.6c2.5-3.1,4.9-6.3,7.1-9.5
		c2.2-3.3,4.1-6.2,5.6-8.8c0.2-0.3,0.3-0.6,0.5-0.8c0.1-0.2,0.2-0.3,0.2-0.5c0.1-0.1,0.1-0.2,0.2-0.3c0.1-0.2,0.2-0.3,0.3-0.5
		c0.1-0.2,0.4-0.5,0.7-0.8c0.8-0.8,1.7-1.2,2.5-1.3l0.1,0c0.8,0,1.6,0.3,2.2,1c0.6,0.7,1,1.5,1,2.5c0,0.9-0.2,1.8-0.7,2.7l-5,9.8
		c1.2-1.4,2.4-2.7,3.6-4.1c3.6-3.9,7.2-7.6,10.7-10.9c3.6-3.3,6.9-6,10.1-8.1c3.3-2.2,6-3.3,8.3-3.3l0.3,0c2.5,0,5.4,1.3,5.6,7.6
		c0.1,4-0.9,9.8-3.2,17.8c-1.6,5.7-2.4,10-2.3,12.9c0.1,4.4,1.9,5,3.4,5l0.2,0c1.6-0.1,3.5-0.7,5.7-2.1c2.3-1.4,4.6-3.1,7-5.2
		c2.4-2.1,4.6-4.4,6.6-6.7c2-2.3,3.6-4.6,4.9-6.7l0.1-0.2l0.2-0.1c0.4-0.3,0.9-0.5,1.4-0.5c0,0,0,0,0,0c0.5,0,0.9,0.1,1.3,0.3
		c0.6,0.3,1,0.9,1,1.5c0,0.4-0.1,0.8-0.3,1.1c-1,1.4-2.5,3.4-4.4,5.9c-5.1,6.2-10.3,11-15.4,14.3c-3.2,2-6.5,3.1-9.7,3.3
		c-0.3,0-0.5,0-0.7,0c-2.1,0-3.9-0.4-5.2-1.1c-1.5-0.9-2.7-2.1-3.4-3.7c-0.6-1.5-1-3.2-1.1-5.2c-0.1-1.8,0.1-3.9,0.4-6
		c0.4-2.1,0.8-4.2,1.4-6.4c0.5-2.1,1.1-4.2,1.7-6.3c0.7-2.3,1.3-4.5,1.7-6.5c0.4-1.8,0.6-3.3,0.6-4.5c0-1.3-0.4-1.3-0.7-1.3
		c-0.8,0-2.3,0.5-5.6,2.8c-3.3,2.3-7.8,6.3-13.3,11.8c-5.5,5.5-10.7,11.4-15.3,17.6c-1,1.4-1.8,2.8-2.5,4.1
		c-0.7,1.4-1.3,2.6-1.8,3.8c-0.7,1.6-1.4,2.9-2,3.9c-0.8,1.3-1.8,2-3,2c-3,0-3.4-2.2-3.4-3.1c0-1,0.2-2.3,0.8-3.8
		c0.5-1.3,1.1-2.9,1.9-4.5c0.5-1.2,1-2.4,1.6-3.7c0.3-0.7,0.6-1.4,0.8-2.1c-0.4,0.5-0.9,1.1-1.3,1.6c-2.6,3.1-5.2,5.7-7.7,7.8
		c-2.6,2.2-5.1,3.4-7.3,3.6l-0.7,0c-0.2,0-0.4,0-0.5,0c-1.6,0-2.8-0.3-3.8-0.8c-2.2-1.4-3.5-4.4-3.6-8.9c-0.1-2.8,0.2-5.9,0.9-9.3
		c0.7-3.3,1.4-6.6,2.2-9.8c0.6-2.4,1.1-4.6,1.5-6.6c0.4-1.9,0.6-3.5,0.5-4.6c0-1.3-0.4-1.3-0.5-1.3c-0.4,0-1.5,0.3-4.1,2.3
		c-2.2,1.9-5.4,5.9-9.5,11.7c-4.1,5.9-8.1,12-11.9,18.2c-3.8,6.2-6.4,10.8-7.8,13.7c-0.3,0.6-0.8,1.1-1.6,1.5
		c-0.7,0.4-1.4,0.5-2.2,0.6L381.4,195.3z"/>
	<path class="st0" d="M381.5,194.1c-0.7,0-1.2-0.2-1.8-0.5c-0.5-0.4-0.8-1.1-0.8-2.2c0-0.9,0.2-2.1,0.7-3.7c0.4-1.1,0.8-2.3,1.3-3.5
		c0.5-1.3,1-2.6,1.5-3.9c2-5.7,5.1-13.2,9.2-22.3l1.1-2.5c0.7-1.5,1.5-2.2,2.6-2.2c0.7,0,1.3,0.2,1.9,0.8c0.5,0.5,0.8,1.2,0.9,2
		c0,0.5-0.1,1.1-0.4,1.7l-10.2,24.4c1.2-1.9,2.7-4.2,4.4-6.9c3.1-5,6.5-10.2,10.2-15.6c3.7-5.4,7.1-9.7,10.3-12.7
		c1.8-1.7,3.5-3,5.1-3.9c1.6-0.9,3.1-1.4,4.4-1.5c1.3,0,2.4,0.5,3.2,1.6c0.8,1.1,1.3,2.9,1.4,5.4c0.1,3.5-0.7,8.7-2.3,15.4
		c-1.8,7.2-2.7,12.4-2.6,15.7c0.1,3.2,1.1,4.7,2.8,4.7c1.5-0.1,3.4-1.1,5.7-3.2c2.3-2.1,4.7-4.7,7.2-7.8c2.5-3.1,4.9-6.3,7.2-9.6
		c2.3-3.3,4.1-6.3,5.7-8.9c0.2-0.3,0.4-0.6,0.5-0.9c0.1-0.1,0.2-0.3,0.2-0.4c0.1-0.1,0.1-0.3,0.2-0.4c0.1-0.1,0.1-0.2,0.2-0.4
		c0.1-0.1,0.2-0.3,0.4-0.5c0.6-0.6,1.3-1,1.9-1c0.6,0,1.1,0.2,1.5,0.7c0.4,0.5,0.7,1,0.7,1.7c0,0.6-0.2,1.3-0.6,2.1l-9.6,18.9
		c3.1-3.9,6.4-7.9,9.9-11.8c3.5-3.9,7.1-7.5,10.6-10.8c3.5-3.3,6.8-5.9,9.9-8c3.1-2,5.7-3.1,7.8-3.2c3-0.1,4.6,2,4.8,6.5
		c0.1,3.8-0.9,9.6-3.2,17.4c-1.6,5.8-2.4,10.3-2.3,13.3c0.1,4.1,1.7,6.2,4.7,6.1c1.8-0.1,3.8-0.8,6.2-2.2c2.3-1.4,4.7-3.2,7.2-5.3
		c2.4-2.2,4.7-4.4,6.7-6.8c2.1-2.4,3.7-4.7,5-6.8c0.2-0.2,0.5-0.3,0.8-0.3c0.3,0,0.5,0,0.8,0.2c0.2,0.1,0.4,0.3,0.4,0.5
		c0,0.1,0,0.2-0.1,0.4c-1,1.4-2.4,3.4-4.4,5.8c-5,6.1-10.1,10.8-15.2,14c-3.1,1.9-6.2,3-9.2,3.1c-2.2,0.1-4-0.2-5.4-1
		c-1.3-0.7-2.3-1.8-2.9-3.2c-0.6-1.4-0.9-2.9-1-4.7c-0.1-1.8,0.1-3.7,0.4-5.8c0.3-2.1,0.8-4.2,1.3-6.3c0.5-2.1,1.1-4.2,1.7-6.2
		c0.7-2.4,1.3-4.5,1.7-6.5c0.5-2,0.7-3.6,0.6-4.8c-0.1-1.7-0.7-2.5-1.9-2.4c-1.3,0-3.3,1-6.1,3c-3.4,2.4-7.9,6.4-13.5,11.9
		c-5.6,5.5-10.7,11.4-15.4,17.7c-1,1.4-1.9,2.9-2.6,4.2c-0.7,1.4-1.3,2.7-1.9,3.9c-0.7,1.6-1.3,2.8-1.9,3.8c-0.6,1-1.3,1.5-2.1,1.5
		c-1.5,0-2.3-0.7-2.3-2c0-0.9,0.2-2,0.7-3.3c0.5-1.3,1.1-2.8,1.8-4.4c0.5-1.2,1.1-2.5,1.6-3.8c1.4-3.6,3.1-7.2,4.9-11.1
		c-2.3,3.2-4.7,6.4-7.2,9.4c-2.6,3-5.1,5.6-7.5,7.6c-2.5,2-4.7,3.2-6.7,3.4l-0.6,0c-1.6,0.1-2.9-0.2-3.8-0.7c-1.9-1.2-2.9-3.8-3.1-8
		c-0.1-2.7,0.2-5.7,0.9-9.1c0.7-3.3,1.4-6.6,2.2-9.7c0.6-2.4,1.1-4.6,1.5-6.6c0.4-2,0.6-3.6,0.6-4.9c-0.1-1.6-0.6-2.4-1.6-2.4
		c-1,0-2.5,0.9-4.7,2.5c-2.4,2-5.6,6-9.7,11.9c-4.1,5.9-8.1,12-11.9,18.3c-3.8,6.2-6.4,10.8-7.8,13.8c-0.2,0.4-0.6,0.7-1.1,1
		C382.7,194,382.2,194.1,381.5,194.1z"/>
	<path class="st0" d="M519.5,194.7l-0.2,0c-4.9,0-9-1.4-12.2-4c-3.3-2.7-5.2-6.5-5.6-11.1l0-0.6c-0.1-2.8,0.6-5.9,1.9-9.1
		c1.3-3.2,3.2-6.3,5.5-9.4c2.3-3.1,4.9-5.9,7.8-8.5c2.9-2.6,6-4.7,9.2-6.3c3.2-1.6,6.4-2.5,9.4-2.6c0.2,0,0.4,0,0.6,0
		c0.9,0,1.8,0.1,2.6,0.2c1.9,0.4,3.3,1,4.4,2c0.9,0.9,1.4,1.9,1.5,3.1l0,0.8l0,0.1c-0.8,4.2-4.9,8.5-12.6,13
		c-5.4,3.2-11.9,6.3-19.2,9.3c-0.5,0.6-1.1,1.8-1.7,4.4l0,0.1l0,0.1c-0.3,1.1-0.5,2.2-0.4,3.2l0,0.3c0.3,2.8,1.3,5,2.7,6.3
		c2.3,2.2,5.4,3.3,9.1,3.3c0.2,0,0.5,0,0.7,0l0.9-0.1c6.4-0.7,12.4-2.6,17.7-5.5c5.3-2.9,10-6.5,14-10.7c4-4.2,7.3-8.5,9.9-12.9
		l0-0.1l0-0.1c0.4-0.5,0.9-0.8,1.6-0.8c0,0,0,0,0,0c0.6,0,1.2,0.3,1.5,0.8c0.2,0.4,0.4,0.8,0.4,1.2c0,0.4,0,0.7-0.2,1l-0.1,0.1
		l-0.1,0.1c-0.3,0.4-0.8,1.1-1.4,2.1c-0.9,1.6-2.3,3.6-4.1,5.9c-4.4,6-10.3,11.5-17.7,16.2c-7.4,4.5-14.3,7.1-20.4,7.7
		c-1.5,0.1-2.7,0.2-3.6,0.3c-0.3,0-0.6,0-0.9,0C520.4,194.7,519.5,194.7,519.5,194.7z M537.3,148.2c-1.3,0.1-4,1.1-8.9,4.8
		c-3.2,2.5-6.2,5.2-8.8,7.9c-1.2,1.2-2.2,2.4-2.9,3.4c1.3-0.6,2.8-1.4,4.6-2.3c3.7-1.9,7.2-4.2,10.6-6.8c4.1-3.3,5.2-5.2,5.5-6.3
		c0-0.2,0.1-0.4,0-0.6C537.3,148.3,537.3,148.2,537.3,148.2z"/>
	<path class="st0" d="M521.4,193.6c-0.5,0-0.9,0-1.2,0c-0.3,0-0.5,0-0.7,0c-4.7,0-8.7-1.2-11.8-3.8s-4.8-6-5.2-10.3l0-0.5
		c-0.1-2.6,0.5-5.5,1.8-8.6c1.3-3.1,3.1-6.2,5.4-9.2c2.3-3,4.8-5.8,7.7-8.3c2.9-2.5,5.8-4.6,8.9-6.2c3.1-1.6,6.1-2.4,9-2.5
		c1,0,2,0,3,0.2c1.7,0.3,2.9,0.9,3.8,1.7c0.7,0.7,1.1,1.4,1.1,2.3l0,0.6c-0.7,3.9-4.7,7.9-12.1,12.2c-5.5,3.2-11.9,6.3-19.3,9.3
		c-0.8,0.8-1.5,2.5-2.1,5.1l0,0.1c-0.4,1.4-0.5,2.6-0.5,3.6l0,0.3c0.4,3.2,1.4,5.6,3.1,7.1c2.7,2.6,6.2,3.8,10.6,3.6l1-0.1
		c6.6-0.8,12.7-2.6,18.1-5.6c5.4-3,10.2-6.6,14.2-10.9c4.1-4.2,7.4-8.6,10.1-13.1c0.2-0.2,0.4-0.4,0.8-0.4c0.2,0,0.4,0.1,0.6,0.3
		c0.1,0.2,0.2,0.4,0.2,0.6c0,0.2,0,0.3-0.1,0.5c-0.4,0.5-0.9,1.2-1.5,2.2c-0.9,1.5-2.3,3.5-4,5.9c-4.3,5.9-10.1,11.3-17.4,15.9
		c-7.3,4.5-13.9,7-19.9,7.6C523.4,193.4,522.3,193.5,521.4,193.6z M513.8,166.6c1.5-0.4,4.2-1.7,7.9-3.6c3.8-2,7.3-4.3,10.7-6.9
		c3.5-2.8,5.5-5.1,5.9-7c0.1-0.3,0.1-0.6,0.1-0.8c0-0.3-0.1-0.7-0.3-0.9c-0.2-0.3-0.4-0.4-0.7-0.4c-2.1,0.1-5.3,1.8-9.7,5.1
		c-3.3,2.6-6.3,5.2-8.9,8C516.2,162.9,514.5,165.1,513.8,166.6z"/>
	<path class="st0" d="M573.8,210.3c-2.8,0-5-1.1-6.6-3.3c-1-1.4-1.5-2.9-1.6-4.5l-0.1-1c-0.1-1.6,0.4-3.4,1.2-5.3
		c0.8-1.9,2-3.9,3.4-6c1.4-2.1,2.9-4.2,4.4-6.2c1.7-2.3,3.2-4.3,4.4-6.2c1.3-2.1,1.6-3.2,1.6-3.8c-0.1-1.1-1-2-2.6-2.7
		c-8.3-3.3-13.7-6.3-16.4-9c-1.4-1.4-2.3-2.8-2.7-4.2c-0.4-1.3-0.6-2.7-0.7-4.1c-0.1-2.1,0.4-4,1.3-5.9c0.9-1.8,2-3.4,3.4-4.8
		c1.4-1.4,2.9-2.5,4.6-3.3c1.7-0.8,3.3-1.3,4.8-1.4l0.1,0l2.4,0.4l0.1,0c1.1,0.4,2,1.1,2.7,2.1c0.7,1,1,2.2,1.1,3.7
		c0,1.4-0.3,3-0.9,4.8c-0.6,1.8-1.7,3.8-3.1,6c-1.2,1.8-2.9,3.9-4.8,6c2.6,1.4,5.1,2.7,7.4,3.6c2.1,0.9,4,1.8,5.6,2.7
		c1.7,0.9,3.1,2,4.2,3.2c1.1,1.3,1.8,3,1.8,4.9c0,1.2-0.4,2.7-1.4,4.6c-0.9,1.7-2,3.6-3.3,5.6c-1.3,2-2.7,4-4,5.9
		c-1.5,2.2-2.9,4.2-4,5.9c-1.3,2-1.6,2.9-1.6,3.3l0,0.8c0,0.2,0,0.4,0.1,0.7c0,0.2,0.1,0.3,0.2,0.4c0.1,0.2,0.2,0.2,0.2,0.3
		c0.2,0.1,0.3,0.1,0.3,0.2c0.1,0,0.2,0,0.2,0l0.1,0c1.1-0.3,3.2-1.5,7.3-5.8c3.6-3.7,7.5-8.1,11.7-13.3c4.2-5.2,8.3-10.4,12.1-15.4
		c3.7-5,6.7-9,8.8-12l0.1-0.1c0.6-0.7,1.3-0.9,1.7-0.9c0,0,0,0,0,0c0.5,0,0.9,0.1,1.3,0.4c0.5,0.3,0.8,0.8,0.8,1.4l0,0.2l-0.3,0.7
		l-3.3,4.9c-2.1,3.2-4.9,7.3-8.2,12c-3.3,4.8-6.9,9.6-10.7,14.5c-3.8,4.9-7.4,9.2-10.8,12.8c-3.5,3.7-6.4,5.9-8.8,6.8
		c-1.2,0.3-2.2,0.5-3.2,0.5C574.1,210.3,574,210.3,573.8,210.3z M570.9,147l-0.5,0.1c-1.6,0.2-2.8,1-3.5,2.3
		c-0.8,1.4-1.2,2.9-1.2,4.7c0,1,0.2,2.1,0.6,3.1c0.2,0.6,0.5,1.2,0.8,1.7c1.4-1.8,2.5-3.7,3.4-5.5c1-2.2,1.6-3.9,1.5-5.2
		C571.9,147.2,571.6,147,570.9,147L570.9,147z"/>
	<path class="st0" d="M574.2,209.2c-2.7,0.1-4.7-0.8-6.1-2.8c-0.8-1.2-1.3-2.5-1.3-3.9l-0.1-1c0-1.4,0.3-3,1.1-4.8
		c0.8-1.8,1.9-3.7,3.3-5.8c1.4-2.1,2.8-4.1,4.3-6.1c1.7-2.3,3.2-4.4,4.4-6.3c1.2-1.9,1.8-3.4,1.7-4.5c-0.2-1.6-1.3-2.9-3.3-3.8
		c-8.1-3.3-13.5-6.2-16-8.8c-1.2-1.3-2.1-2.5-2.4-3.7c-0.4-1.2-0.6-2.5-0.6-3.8c-0.1-1.9,0.3-3.6,1.1-5.3c0.8-1.7,1.9-3.2,3.2-4.5
		c1.3-1.3,2.8-2.4,4.3-3.1c1.5-0.8,3-1.2,4.4-1.2l2.2,0.4c0.9,0.3,1.6,0.9,2.2,1.7c0.6,0.8,0.8,1.8,0.9,3.1c0,1.2-0.2,2.7-0.8,4.4
		c-0.6,1.7-1.6,3.6-3,5.7c-1.4,2.1-3.3,4.4-5.7,6.9c3.1,1.8,6,3.2,8.8,4.4c2.1,0.9,3.9,1.8,5.5,2.7c1.6,0.9,2.9,1.9,3.9,3
		c1,1.1,1.5,2.5,1.5,4.1c0,1-0.4,2.3-1.2,4c-0.9,1.7-1.9,3.5-3.2,5.5c-1.3,2-2.6,4-4,5.9c-1.5,2.2-2.9,4.2-4,6
		c-1.1,1.8-1.7,3-1.8,3.8l0,0.9c0,0.3,0,0.6,0.1,0.9c0.1,0.3,0.2,0.6,0.3,0.9c0.2,0.3,0.4,0.5,0.6,0.6c0.2,0.1,0.4,0.2,0.6,0.3
		c0.2,0,0.3,0.1,0.5,0.1l0.2,0c1.7-0.4,4.4-2.4,8-6.1c3.6-3.7,7.5-8.1,11.8-13.4c4.3-5.2,8.3-10.4,12.1-15.4c3.8-5,6.7-9,8.8-12
		c0.3-0.3,0.6-0.5,0.9-0.5c0.2,0,0.5,0.1,0.6,0.2c0.2,0.1,0.3,0.3,0.3,0.5l-0.1,0.3L615,163c-2.1,3.2-4.9,7.2-8.2,12
		c-3.3,4.8-6.9,9.6-10.6,14.5c-3.8,4.9-7.3,9.1-10.7,12.7c-3.4,3.6-6.2,5.7-8.4,6.5C576,209,575.1,209.1,574.2,209.2z M566.9,160.7
		c1.8-2.2,3.3-4.5,4.4-6.9c1.1-2.4,1.7-4.3,1.6-5.7c-0.1-1.5-0.8-2.3-2.2-2.2l-0.6,0.1c-2,0.3-3.4,1.2-4.4,2.8
		c-1,1.6-1.4,3.4-1.3,5.3c0,1.2,0.3,2.3,0.7,3.5C565.6,158.7,566.2,159.8,566.9,160.7z"/>
	<path class="st0" d="M613.2,201.1L613.2,201.1c-1.4-0.4-2.6-1.6-3.4-3.3c-0.8-1.6-1.2-3.3-1.3-5c0.1-1.9,0.6-4,1.7-6.4
		c1-2.3,2.2-4.4,3.6-6.3c1.5-2,2.9-3.1,4.2-3.5l0.1,0l0.4,0c1.3,0,2.7,0.7,4.4,2.1c1.7,1.4,2.7,3.1,3,4.9l0,0.2l-0.1,0.2
		c-0.4,1.5-1,3.2-1.8,5.1c-0.8,1.9-1.8,3.7-2.9,5.4c-1.1,1.8-2.3,3.3-3.5,4.5c-1.4,1.4-2.6,2-3.8,2.1l-0.1,0L613.2,201.1z
		 M621.8,169.6c-1.1,0-2.6-0.4-3.7-2.3c-0.8-1.4-1.2-3.1-1.3-4.9l0-1.8c0.5-4.9,2.5-9.7,5.9-14.5c3.3-4.7,7.6-9.5,12.7-14.3
		c5.1-4.7,10.5-9.6,16.2-14.4c6-5,11.7-10.2,17.1-15.2c5.4-5,9.9-10.2,13.5-15.3c3.5-5,5.6-10.2,6.1-15.2l0.1-1.8
		c-0.1-1.8-0.5-3.3-1.3-4.4c-0.8-1.1-1.8-1.9-3.2-2.5c-1.2-0.5-2.7-0.7-4.2-0.7c-0.2,0-0.4,0-0.6,0c-6.5,0.4-12.7,2.5-18.5,6.5
		c-5.6,3.9-10.8,9.2-15.4,15.8c-4.6,6.7-8.7,14.5-12.1,23.3c-0.5,1.1-1.3,1.7-2.4,1.7c0,0,0,0,0,0c-0.8,0-1.4-0.2-2.1-0.7
		c-0.7-0.5-1.2-1.2-1.7-2.2c-0.4-0.9-0.7-2.1-0.7-3.6c-0.2-5.5,2.6-12.7,8.6-21.8c5.4-8,11.8-14.6,19-19.5c7.3-5,14.2-7.7,20.8-8.3
		l0.4,0c0.4,0,0.7,0,1.1,0c3,0,5.7,0.5,8.1,1.4c2.8,1.1,5,2.9,6.6,5.4c1.6,2.5,2.5,5.7,2.6,9.6c0,1.3,0,2.7-0.1,4.2
		c-0.5,5-2.1,10-4.6,14.8c-2.5,4.8-5.7,9.5-9.6,14.1c-3.8,4.5-8.1,9.1-12.6,13.4c-4.5,4.3-9.1,8.6-13.7,12.7
		c-4.9,4.4-9.5,8.6-13.6,12.7c-4.1,4-7.6,8-10.3,11.7c-2.6,3.6-4.2,7.1-4.6,10.3l0,0.1c0.3,0,0.5,0.1,0.7,0.1l0.2,0
		c0.2,0,0.4-0.1,0.9-0.3c0.5-0.3,0.8-0.5,1.1-0.7c0.5-0.3,0.7-0.5,1.1-0.5l1.6-0.1l-0.5,1.6c-0.2,0.7-0.7,1.6-1.5,2.5
		c-0.7,0.8-1.6,1.6-2.6,2.3c-1.1,0.7-2.2,1.1-3.2,1.2L621.8,169.6z"/>
	<path class="st0" d="M613.8,200l-0.5-0.1c-1.1-0.3-2-1.2-2.7-2.7c-0.7-1.5-1.1-3-1.2-4.5c0.1-1.7,0.6-3.6,1.6-5.9
		c1-2.3,2.2-4.3,3.5-6c1.3-1.8,2.5-2.8,3.6-3.1l0.2,0c1,0,2.3,0.6,3.8,1.8c1.5,1.2,2.4,2.7,2.6,4.2c-0.3,1.4-0.9,3.1-1.7,4.9
		c-0.8,1.8-1.8,3.6-2.8,5.3c-1.1,1.7-2.2,3.1-3.3,4.3C615.8,199.4,614.8,200,613.8,200z M622.1,168.5l-0.2,0c-1.2,0-2.2-0.5-2.9-1.8
		c-0.7-1.2-1.1-2.7-1.1-4.4l0-1.7c0.5-4.6,2.4-9.2,5.7-13.9s7.5-9.4,12.6-14.1c5.1-4.7,10.4-9.5,16.1-14.3
		c6-5.1,11.7-10.2,17.1-15.3c5.4-5.1,10-10.3,13.6-15.5c3.6-5.2,5.8-10.5,6.3-15.8l0.1-1.9c-0.1-2.1-0.6-3.8-1.5-5.1
		c-0.9-1.3-2.1-2.3-3.7-2.9c-1.5-0.6-3.3-0.8-5.2-0.8c-6.7,0.4-13.1,2.6-19,6.7c-5.8,4-11,9.3-15.7,16.1
		c-4.7,6.8-8.8,14.6-12.2,23.5c-0.3,0.7-0.8,1-1.4,1c-0.5,0-0.9-0.2-1.4-0.5c-0.5-0.4-0.9-0.9-1.3-1.8c-0.4-0.8-0.6-1.8-0.6-3.1
		c-0.2-5.2,2.6-12.3,8.4-21.2c5.3-7.9,11.6-14.3,18.7-19.2c7.1-4.9,13.9-7.6,20.2-8.1l0.4,0c3.3-0.1,6.2,0.3,8.8,1.3
		c2.6,1,4.6,2.7,6.1,4.9c1.5,2.3,2.3,5.3,2.4,9c0,1.3,0,2.6-0.1,4.1c-0.5,4.9-2,9.7-4.5,14.4c-2.5,4.7-5.6,9.3-9.5,13.9
		c-3.8,4.5-8,9-12.5,13.3c-4.5,4.3-9.1,8.5-13.7,12.7c-4.9,4.4-9.5,8.6-13.7,12.7c-4.2,4.1-7.7,8-10.4,11.8
		c-2.7,3.8-4.3,7.4-4.8,10.8l0,0.3c0,0.6,0.3,0.9,0.7,1c0.5,0.1,0.9,0.1,1.3,0.1c0.4,0,0.8-0.2,1.3-0.4c0.5-0.3,0.9-0.5,1.2-0.7
		c0.3-0.2,0.5-0.3,0.5-0.3c-0.2,0.6-0.6,1.3-1.3,2c-0.7,0.8-1.5,1.5-2.4,2.1C623.9,168.1,623,168.5,622.1,168.5z"/>
</g>
<g>
	<path class="st1" d="M102.9,170.3c0,25.6-13.9,57.6-31.1,57.6c-17.2,0-31.1-32-31.1-57.6c0-15.9,5.4-25.7,13.6-30.8
		c5.9-3.6,9.4-10.1,9.4-17V47h16.1v75.5c0,6.9,3.6,13.4,9.4,17c3,1.8,5.5,4.3,7.6,7.4C100.7,152.4,102.9,160.1,102.9,170.3z"/>
	<path class="st1" d="M158.4,212.8v-39.3c0-1.8-1.4-3.2-3.2-3.2c-0.9,0-1.7,0.4-2.3,0.9c-0.6,0.6-0.9,1.4-0.9,2.3v47.8
		c-3.1,3.2-6.6,5.4-10.2,6.3v-54.1c0-1.8-1.4-3.2-3.2-3.2c-0.9,0-1.7,0.4-2.3,0.9c-0.6,0.6-0.9,1.4-0.9,2.3v54.1
		c-3.6-0.8-7.1-3.1-10.2-6.3v-47.8c0-1.8-1.4-3.2-3.2-3.2c-0.9,0-1.7,0.4-2.3,0.9c-0.6,0.6-0.9,1.4-0.9,2.3v39.3
		c-6.9-11.6-11.3-28.1-11.3-42.5c0-10.2,2.2-17.9,6-23.4c2.1-3.1,4.7-5.5,7.6-7.4c5.9-3.6,9.4-10.1,9.4-17V47h16.1v75.5
		c0,6.9,3.6,13.4,9.4,17c8.2,5.1,13.6,14.8,13.6,30.8C169.7,184.7,165.3,201.2,158.4,212.8z"/>
	<path class="st0" d="M127.5,97.7V123c0,6.1-3.1,11.8-8.3,15c-1.1,0.7-2.2,1.5-3.2,2.4c-2.9,2.6-6.6,4.1-10.4,4.1h-0.7
		c-3.9,0-7.6-1.5-10.4-4.1c-1-0.9-2.1-1.7-3.2-2.4c-5.2-3.2-8.3-8.9-8.3-15v-12.6c11.1,1.8,22-0.5,32.6-5.7
		C119.6,102.7,123.6,100.4,127.5,97.7z"/>
	<path class="st2" d="M115.6,104.7c-10.6,5.2-21.5,7.5-32.6,5.7V98.7C92.5,95.6,109,101.9,115.6,104.7z"/>
</g>
<g>
	<path class="st3" d="M431.2,88.1c2.8-3.3,5.1-6.4,6.8-9.4s3.1-5.6,3.9-7.9c0.8-2.3,1.2-4.1,1.2-5.3c0-0.6-0.1-1-0.3-1.3
		c-0.2-0.3-0.5-0.5-0.9-0.4c-0.5,0-1.2,0.4-2.1,1.1c-1.9,1.6-4.3,4.9-7.2,9.8c-3.3,5.7-7.1,13.3-11.3,22.9c0,0.1-0.1,0.1-0.1,0.2
		s-0.1,0.1-0.1,0.2C425.1,94.6,428.4,91.4,431.2,88.1z"/>
	<path class="st3" d="M486.2,83.2c0.9-1.6,1.8-3.3,2.7-4.9c-0.7-0.3-1.3-0.6-2-1.1l-2,4.4c-0.2,0.4-0.7,1.5-1.4,3.2
		c-0.7,1.7-1.6,3.8-2.5,6.2c-0.7,1.9-1.4,3.8-2,5.7C481.3,92.2,483.7,87.7,486.2,83.2z"/>
	<path class="st3" d="M493,70.5c1.1-2,2.1-4.1,3-6.2c0.9-2.2,1.4-3.6,1.4-4.3c0-0.3-0.1-0.4-0.3-0.4c-0.5,0-1.5,1.3-3.1,3.8
		s-3.7,6.5-6.3,12.1l2,1.2C490.9,74.6,492,72.5,493,70.5z"/>
	<path class="st3" d="M498.9,113.5L498.9,113.5c0.1,0.4,0.3,0.5,0.8,0.5c0.2,0,0.5-0.1,1-0.2c0.5-0.1,1.4-0.5,2.5-1.2
		c1.1-0.7,2.2-1.4,3.2-2.4c1-0.9,1.7-1.9,2-2.8l0-0.3c-2.9,1.4-5.2,2.7-6.8,3.9C499.8,112.2,498.9,113,498.9,113.5z"/>
	<path class="st3" d="M579.4,93.6c0.2-1.1,0.2-2.1,0.2-3.1c-0.1-1.6-0.4-2.8-0.9-3.7c-0.4-0.6-0.9-0.9-1.6-0.9
		c-0.5,0-1.1,0.3-1.8,0.8c-0.7,0.5-1.4,1.1-2,2.1c-1,1.3-1.7,2.8-2.3,4.5c-0.5,1.5-0.7,2.9-0.7,4.2l0,0.5c0.1,1.2,0.6,2.1,1.5,2.9
		c0.9,0.8,2.1,1.2,3.8,1.3c1.1-1.3,1.9-2.7,2.5-4.2C578.7,96.6,579.2,95.1,579.4,93.6z"/>
	<path class="st3" d="M591.7,95.9c0.7-0.8,1.3-1.7,1.7-2.5c0.4-0.9,0.7-1.6,0.6-2.1c0-0.6-0.3-0.8-0.9-0.8l-0.2,0
		c-0.8,0.1-1.3,0.5-1.7,1c-0.4,0.6-0.5,1.2-0.5,2c0,0.4,0.1,0.9,0.3,1.3C591.1,95.1,591.4,95.5,591.7,95.9z"/>
	<path class="st3" d="M545.3,119.3c-0.2,2.2-0.3,4.3-0.2,6.4l0,0.6c0,1,0.2,2,0.3,2.8c0.2,0.8,0.5,1.4,0.9,1.8
		c0.2,0.2,0.4,0.2,0.6,0.2l0.1,0c0.4-0.1,0.8-0.4,1.2-0.9c0.4-0.6,0.7-1.3,0.9-2.3c0.2-0.9,0.3-2,0.3-3.2c0-0.9-0.2-1.8-0.4-2.8
		c-0.3-1.2-0.6-2.2-0.8-3c-0.3-0.8-0.6-1.7-1.1-2.8l-0.9-2.2C545.8,115.4,545.5,117.1,545.3,119.3z"/>
	<path class="st1" d="M420,76.2c0.8-2.6,1.1-4.9,1-7c0-1.2-0.3-2.3-0.6-3.2c-0.5-1.2-1.1-2-1.8-2.5c-0.7-0.5-1.5-0.7-2.3-0.7
		c-0.7,0-1.5,0.2-2.3,0.6c-0.8,0.4-1.5,0.9-2.3,1.6c-0.7,0.7-1.4,1.4-2,2.2c-0.5,0.7-1.1,1.6-1.7,2.8c-0.6,1.1-1.2,2.4-1.7,3.8
		c-0.5,1.4-0.9,2.8-1.3,4.2c-0.3,1.4-0.5,2.8-0.4,4.1c0,1.1,0.2,2,0.6,2.9c0.3,0.9,0.9,1.6,1.7,2.1c0.8,0.5,1.7,0.9,3,1l0,0
		c0.1,0,0.1,0,0.1-0.1c0-0.1,0.1-0.2,0.1-0.2c0-0.1,0-0.1-0.1-0.2c-0.8-0.2-1.4-0.6-1.9-1.1c-0.5-0.5-0.9-1.2-1.1-2
		c-0.2-0.8-0.4-1.6-0.4-2.6c0-1.4,0.1-3,0.4-4.6c0.3-1.7,0.8-3.3,1.5-4.9c0.6-1.6,1.3-3.1,2.1-4.4s1.6-2.4,2.5-3.2s1.7-1.2,2.5-1.3
		c0.9,0,1.6,0.5,2.3,1.5c0.6,0.9,0.9,2.1,0.9,3.5c0.1,1.8-0.2,3.9-0.9,6.4c-0.7,2.4-1.6,5-2.8,7.8c-1.2,2.8-2.6,5.6-4.1,8.4
		c-1.5,2.9-3.2,5.6-4.8,8.3c-1.7,2.7-3.4,5.2-5,7.5c-1.6,2.3-3.2,4.3-4.6,5.9s-2.6,2.9-3.6,3.6c-1.5,1.1-2.7,1.6-3.6,1.7
		c-0.6,0-1.1-0.2-1.5-0.6c-0.4-0.4-0.7-1-0.9-1.7c-0.2-0.7-0.3-1.6-0.3-2.6c-0.1-1.9,0.1-4.2,0.5-6.9c0.4-2.6,0.9-5.4,1.5-8.2
		s1.2-5.5,1.8-8.1c0.6-2.5,1-4.7,1.4-6.5c0.4-1.9,0.6-3.2,0.5-4c0-0.2,0-0.3-0.1-0.4c-0.2-0.8-0.6-1.2-1.1-1.2c-0.8,0-2,1.3-3.6,3.7
		c-1.3,2-2.9,4.8-4.9,8.6c-2.5,4.6-5.3,10.3-8.4,16.8c-1.2,2.5-1.9,3.9-2,4.1c0-0.8,0.5-2.9,1.3-6.1c0.8-3.2,1.8-7,2.9-11.1
		c1.1-4,2.1-7.8,3-11.3c0.9-3.5,1.5-6.1,1.8-7.8c0.2-1.1,0.3-2.1,0.2-2.9c0-1.3-0.3-2.2-0.8-2.8c-0.5-0.6-1.1-0.9-1.8-0.9
		c-0.9,0-2,0.5-3.1,1.6c-1.2,1-2.3,2.4-3.4,4.3c-1.1,1.9-1.9,3.8-2.6,5.7c-0.6,1.9-1.1,3.7-1.4,5.5c-0.3,1.7-0.4,3.3-0.3,4.6
		c0.1,1.8,0.4,3.1,1,3.7l0.2,0c0.2,0,0.4-0.2,0.4-0.4l0-0.1c0-0.3-0.1-0.8-0.1-1.3c0-1.1,0-2.4,0.2-4.1c0.2-1.7,0.5-3.5,1-5.4
		c0.5-1.9,1.2-3.9,2.1-5.8c0.9-1.9,2.1-3.7,3.5-5.4c1-1.1,1.7-1.7,2.2-1.7c0.4,0,0.6,0.4,0.7,1.3l0,0.7c-0.1,1.7-0.6,4.2-1.5,7.4
		c-0.8,3.2-1.8,6.7-2.9,10.6c-0.9,3.1-1.7,6.1-2.5,9.1c-0.8,3-1.5,5.7-2,8.1c-0.5,2.4-0.7,4.4-0.7,5.7c0,0.6,0.1,1,0.2,1.4
		c0.1,0.3,0.3,0.6,0.6,0.8c0.2,0.2,0.5,0.2,0.8,0.2c0.4,0,0.8-0.2,1.1-0.5c0.2-0.3,0.7-1.2,1.3-2.8c0.7-1.7,1.6-3.9,2.8-6.5
		c1.6-3.3,3.3-6.7,5-10.2c1.8-3.5,3.4-6.6,4.8-9.2c1.6-2.9,2.7-4.4,3.1-4.4c0.1,0,0.2,0,0.2,0.1c0.1,0.1,0.1,0.1,0.1,0.2l0,0.2
		c-0.2,0.5-0.7,2.3-1.5,5.6c-0.9,3.3-1.7,7.2-2.6,11.6c-0.5,2.4-0.9,4.8-1.2,7.2c-0.3,2.4-0.5,4.5-0.4,6.5c0.1,2.2,0.5,4,1.1,5.2
		c0.8,1.5,2,2.2,3.6,2.1c0.8,0,1.8-0.3,2.9-0.8c1.2-0.6,2.7-1.7,4.3-3.3c1.7-1.6,3.4-3.5,5.3-5.9c1.9-2.3,3.8-4.9,5.7-7.7
		c1.9-2.8,3.7-5.7,5.4-8.7s3.2-6,4.6-8.9C418.2,81.6,419.2,78.9,420,76.2z"/>
	<path class="st1" d="M492.7,99c-0.1,0-0.2,0.1-0.3,0.2c-1.2,1.8-2.7,3.6-4.2,5.3c-1.6,1.7-3.2,3.1-4.8,4.2
		c-1.3,0.9-2.5,1.3-3.5,1.3c-0.8,0-1.5-0.2-2-0.8c-0.6-0.6-0.9-1.5-0.9-2.8c0-0.4,0-0.9,0.1-1.5c0.2-1.9,0.7-4.1,1.4-6.6
		c0.2-0.5,0.3-1,0.5-1.6c0.4-0.7,1.1-1.8,2.1-3.4c2.4-3.9,5.3-8.7,8.8-14.6c3.4,1.5,6.6,2.3,9.5,2.2c3.7-0.1,7.1-1.9,10.1-5.2
		c0.2-0.2,0.2-0.4,0.2-0.5c0-0.2-0.1-0.3-0.3-0.3l-0.4,0.1c-1.9,1.4-3.6,2.4-5.3,3c-1.7,0.6-3.3,1-4.8,1c-1.5,0.1-2.9-0.1-4.3-0.5
		c-1.3-0.4-2.7-0.8-3.9-1.5c1.5-2.7,2.9-5.2,4.2-7.7c1.3-2.5,2.3-4.6,3-6.5c0.7-1.9,1.1-3.3,1.1-4.3c0-0.8-0.4-1.2-1.1-1.1l-0.2,0
		c-1.1,0.2-2.3,1-3.6,2.5s-2.7,3.4-4.2,5.9c-1.5,2.5-3,5.2-4.4,8.3c-0.5-0.4-1.2-0.9-2.1-1.5c-0.5-0.4-1.5-1-3-1.9
		c-1.4-0.8-2.9-1.6-4.6-2.2c-1.7-0.7-3.4-1-5-1l-0.1,0c-1.7,0.1-3,0.7-4.1,1.9l0,0.3c0,0.1,0.1,0.2,0.2,0.2l0.1,0
		c1.1-0.5,2.2-0.8,3.3-0.8c1.3,0,2.7,0.2,4.1,0.7c1.3,0.5,2.7,1.2,4,2c1.4,0.8,2.7,1.7,4.2,2.7c0.8,0.6,1.5,1.1,2.3,1.5l-3.4,7.4
		c-1.7,3.9-3.2,7.7-4.5,11.3c-0.8,2.3-1.4,4.4-1.8,6.3c-0.5,0.5-1.1,1.1-1.7,1.8c-1.3,1.4-2.7,2.8-4.1,4.2c-1.4,1.4-2.9,2.8-4.3,4
		c-2.6,2.2-4.6,3.3-6.1,3.3c-0.4,0-0.7,0-1-0.2c-0.3-0.2-0.5-0.5-0.5-0.9c0-0.5,0.1-1.3,0.4-2.3c0.6-2.3,1.3-4.1,2.1-5.7
		c0.5-0.9,0.9-1.7,1.3-2.4c0.3-0.6,0.6-1,0.8-1.4c0.2-0.4,0.3-0.7,0.3-1c0-0.4-0.2-0.6-0.7-0.6l-0.1,0c-0.2,0-0.5,0.1-0.7,0.3
		c-0.4,0.3-0.9,0.7-1.4,1.3l-0.3,0.3c-5.2,5.1-9.2,8.2-12.2,9.4c-0.7,0.3-1.3,0.4-1.8,0.5c-1,0-1.5-0.4-1.6-1.4c0-0.9,0.3-2.1,1-3.6
		c0.7-1.5,1.7-2.9,2.9-4.4s2.6-2.8,4.1-3.9s3.1-1.8,4.7-2.2c0.4-0.1,0.7-0.1,1.1-0.1c1,0,1.9,0.1,2.8,0.5c0.9,0.4,1.6,1,2.1,1.9
		c0.1,0.1,0.2,0.2,0.3,0.2c0.1,0,0.2,0,0.3-0.1c0.1-0.1,0.1-0.2,0.1-0.3c-0.3-1.4-0.9-2.4-2-3c-1.1-0.6-2.4-0.9-3.9-0.9
		c-1.4,0-2.8,0.4-4.3,0.9c-1.5,0.6-2.9,1.4-4.3,2.4c-2.1,1.7-3.8,3.6-5.2,5.6c-0.8,0.9-1.7,1.9-2.7,2.9c-1.1,1.2-2.3,2.3-3.4,3.3
		c-1.2,1.1-2.2,1.9-3.3,2.7c-1,0.7-1.8,1.1-2.5,1.1c-0.5,0-0.8-0.3-1-0.8c-0.2-0.5-0.2-1.1-0.3-1.8c0-1,0-2.1,0.2-3.4
		c0.2-1.3,0.3-2.5,0.5-3.8c0.4-2.4,0.6-3.8,0.5-4.4c0-1.3-0.6-1.9-1.6-1.9c-0.7,0-1.5,0.3-2.4,0.9c-0.9,0.5-1.9,1.2-2.9,2
		s-2,1.7-2.9,2.5c-0.9,0.9-1.7,1.7-2.4,2.4c-0.7,0.7-1.1,1.3-1.3,1.6c0.2-0.4,0.3-0.9,0.5-1.5c0.4-1.2,0.9-2.5,1.4-3.8
		c0.5-1.3,1.1-2.1,1.7-2.6c3.5-2.7,6.5-5.3,9.1-7.9c2.6-2.6,4.8-5.1,6.6-7.6c1.8-2.4,3.2-4.8,4.3-6.9c1.1-2.2,1.9-4.2,2.3-5.9
		c0.5-1.8,0.7-3.3,0.6-4.6c0-1.2-0.3-2.1-0.7-2.8s-1-1-1.8-1c-0.2,0-0.5,0.1-0.8,0.2c-1.8,0.7-3.7,2.2-5.6,4.5
		c-2,2.4-3.9,5.2-5.9,8.6c-1.9,3.4-3.8,6.9-5.5,10.7c-1.8,3.7-3.3,7.3-4.7,10.6c-1.4,3.4-2.5,6.2-3.4,8.5c-0.9,2.3-1.4,3.8-1.5,4.4
		c-0.2,0.5-0.3,1-0.3,1.4c0,0.2,0.1,0.4,0.1,0.6c0.2,0.5,0.4,0.7,0.7,0.7c0.2,0,0.4,0,0.4,0c0.4,0,0.8-0.3,1.1-1
		c0.5-1.2,1.1-2.3,1.9-3.3c0.7-1,1.3-1.7,1.8-2.2c1-1.1,2-2.1,3.1-3.1c1.1-1,2.1-1.8,3-2.4c0.9-0.6,1.6-1,2-1c0.5,0,0.8,0.3,0.8,0.8
		l0,0.2c0,0.4,0,0.8,0,1c0,0.3-0.1,0.7-0.2,1.2c-0.8,4.1-1.1,7.2-1,9.3c0.1,2.7,0.8,4,2.3,4c1.4,0,3.3-1.1,5.8-3.2
		c1.8-1.5,3.7-3.4,5.6-5.5c-0.5,1.2-0.7,2.3-0.7,3.3c0,0.9,0.3,1.7,0.9,2.2c0.6,0.6,1.4,0.8,2.6,0.8l0.1,0c2.8-0.1,7.2-2.8,13.1-8
		c0,0.1-0.1,0.2-0.2,0.4c-0.3,0.5-0.6,1.3-1.1,2.4c-0.4,1.1-0.8,2-1,2.9c-0.2,0.9-0.3,1.6-0.3,2.2c0,0.5,0.1,0.9,0.2,1.3
		c0.3,0.9,1,1.4,2.2,1.6c0.2,0,0.5,0,0.8,0c1,0,2-0.3,3.1-0.9c1.4-0.7,2.9-1.8,4.4-3.1c1.5-1.3,3-2.7,4.5-4.3c1.5-1.5,2.9-3,4.2-4.5
		c0.2-0.2,0.4-0.4,0.6-0.6c-0.1,0.5-0.2,1-0.2,1.5l0,1.9c0.1,1.7,0.6,3,1.4,4c0.8,1,1.9,1.5,3.3,1.5l0.1,0c1.1,0,2.3-0.5,3.7-1.3
		c1.3-0.9,2.7-2,3.9-3.3c1.3-1.3,2.4-2.6,3.5-4s1.9-2.5,2.5-3.5l0.1-0.2C493,99.1,492.9,99,492.7,99z M494.1,63.4
		c1.6-2.5,2.6-3.7,3.1-3.8c0.2,0,0.3,0.1,0.3,0.4c0,0.7-0.4,2.1-1.4,4.3c-0.9,2.1-1.9,4.2-3,6.2c-1.1,2-2.2,4.1-3.3,6.2l-2-1.2
		C490.4,69.9,492.5,65.9,494.1,63.4z M483.5,84.9c0.7-1.7,1.2-2.8,1.4-3.2l2-4.4c0.7,0.5,1.3,0.8,2,1.1c-0.9,1.6-1.8,3.3-2.7,4.9
		c-2.5,4.5-4.9,9-7.1,13.6c0.6-1.9,1.3-3.8,2-5.7C481.9,88.7,482.8,86.6,483.5,84.9z M421.3,97.7c0,0,0.1-0.1,0.1-0.2
		c4.2-9.6,7.9-17.2,11.3-22.9c2.9-5,5.3-8.2,7.2-9.8c0.9-0.7,1.5-1.1,2.1-1.1c0.4,0,0.7,0.1,0.9,0.4c0.2,0.3,0.3,0.7,0.3,1.3
		c0,1.2-0.3,3-1.2,5.3c-0.8,2.3-2.1,4.9-3.9,7.9c-1.8,3-4,6.1-6.8,9.4c-2.8,3.3-6.1,6.6-10,9.9C421.3,97.8,421.3,97.8,421.3,97.7z"
		/>
	<path class="st1" d="M504,72.1c0.8-0.8,1.8-1.9,3-3.4c1.2-1.5,2.2-3,3.1-4.4c0.9-1.4,1.3-2.3,1.3-2.7c0-0.1-0.1-0.2-0.3-0.2
		c-0.3,0-0.7,0.1-1.3,0.4s-1.1,0.5-1.6,0.8s-0.9,0.5-1.2,0.7l-0.1,0l0,0.1c0,0,0,0.1,0,0.1c0,0.3-0.1,0.8-0.4,1.6
		c-0.3,0.9-0.7,1.9-1.2,3c-0.5,1.1-0.9,2.1-1.4,2.9c-0.4,0.9-0.7,1.4-0.9,1.7l0.1,0C503.3,72.6,503.6,72.4,504,72.1z"/>
	<path class="st1" d="M522.8,98.2c-0.1,0-0.3,0.1-0.5,0.2c-1.9,1.6-3.7,2.9-5.7,3.8c-1.9,1-3.6,1.8-5.1,2.4c-0.6,0.2-1,0.4-1.5,0.6
		c-0.4-0.5-0.9-0.9-1.5-1.3c-0.6-0.4-1.2-0.7-1.8-1.1c-0.8-0.4-1.4-0.8-2-1.2c-0.6-0.4-1-0.8-1.2-1.3c-0.2-0.4-0.3-0.8-0.3-1.1
		c0-0.4,0.1-0.8,0.2-1.3c0.3-0.8,1-1.9,2.1-3.1c0.7-0.8,1.6-1.6,2.5-2.3c0.9-0.7,1.9-1.3,2.9-1.7s1.9-0.7,2.8-0.7c0.2,0,0.4,0,0.5,0
		c0.7,0.1,1.1,0.2,1.3,0.5c0.2,0.3,0.3,0.5,0.3,0.8c0,0.1,0,0.3,0,0.5c-0.2,1.2-1,2.6-2.4,4.4c-0.5,0.7-1,1.2-1.3,1.6l-0.3,0.4
		c-0.1,0.1-0.1,0.2-0.1,0.3c0,0.2,0.1,0.4,0.4,0.6c0.3,0.1,0.5,0.2,0.7,0.2c0.1,0,0.2,0,0.3-0.1c2.2-3,3.4-5.3,3.6-6.9
		c0.1-0.3,0.1-0.7,0.1-1c0-0.4-0.1-0.9-0.3-1.2c-0.2-0.6-0.7-1.1-1.2-1.5c-0.6-0.4-1.3-0.6-2.2-0.5c-0.8,0-1.8,0.3-2.9,0.8
		c-1,0.5-2.2,1.2-3.6,2.3c-1.4,1-2.7,2.2-3.8,3.5c-1.1,1.3-1.8,2.6-2.1,3.8c0,0.2,0,0.5,0,0.7c0,0.3,0,0.5,0.1,0.8
		c0.2,0.6,0.7,1.2,1.4,1.7c0.8,0.5,1.7,1,2.6,1.5c0.9,0.4,1.7,0.9,2.4,1.3c0.7,0.4,1.2,0.9,1.4,1.4c-0.3,0.1-0.7,0.4-1.4,0.7
		c-3.3,1.5-5.8,2.9-7.6,4.2c-1.2,0.9-1.9,1.8-2,2.5c0,0.1,0,0.2,0,0.4c0,0.5,0.2,0.9,0.7,1.2c0.5,0.4,1.2,0.6,2.2,0.5l0.1,0
		c1.5-0.1,2.8-0.5,4-1.2c1.2-0.6,2.2-1.4,3-2.3c0.8-0.9,1.5-1.8,2-2.6c0.5-0.9,0.8-1.6,0.9-2.1c0.1-0.4,0.1-0.8,0.1-1.3
		c0.7-0.3,1.3-0.6,2.1-1c1.8-0.8,3.6-1.7,5.5-2.7c1.8-1,3.4-2.2,4.8-3.7c0.1-0.1,0.1-0.1,0.2-0.2c0-0.1,0.1-0.2,0.1-0.2
		C523,98.3,522.9,98.2,522.8,98.2z M508.5,107.4c-0.4,1-1,1.9-2,2.8c-1,0.9-2,1.7-3.2,2.4c-1.1,0.7-2,1-2.5,1.2
		c-0.5,0.1-0.9,0.2-1,0.2c-0.5,0-0.7-0.1-0.8-0.5l0,0c0-0.5,0.9-1.3,2.7-2.5c1.6-1.1,3.9-2.4,6.8-3.9L508.5,107.4z"/>
	<path class="st1" d="M611.5,94.6c-0.1,0-0.2-0.1-0.3-0.1c-0.1,0-0.2,0.1-0.4,0.2c-0.8,1.1-2,2.6-3.4,4.4c-1.5,1.8-3,3.7-4.7,5.7
		c-1.7,1.9-3.2,3.6-4.6,4.9s-2.4,2.1-3.1,2.2l-0.1,0c-0.1,0-0.1,0-0.2,0s-0.2-0.1-0.2-0.1s-0.2-0.1-0.2-0.2
		c-0.1-0.1-0.1-0.2-0.1-0.3c0-0.1,0-0.2,0-0.3l0-0.3c0-0.3,0.3-0.8,0.7-1.4c0.4-0.6,0.9-1.4,1.5-2.2c0.5-0.7,1-1.4,1.5-2.2
		c0.5-0.7,0.9-1.4,1.3-2s0.5-1.1,0.5-1.5c0-0.6-0.2-1.1-0.6-1.5c-0.4-0.4-0.9-0.8-1.5-1.1c-0.6-0.3-1.3-0.6-2.1-1
		c-1.1-0.4-2.2-1-3.4-1.6c0.9-0.9,1.7-1.8,2.2-2.5c0.5-0.8,0.9-1.5,1.2-2.1c0.2-0.6,0.3-1.2,0.3-1.6c0-0.5-0.1-0.8-0.3-1.1
		c-0.2-0.3-0.5-0.5-0.8-0.6l-0.9-0.1c-0.5,0-1.1,0.2-1.7,0.5c-0.6,0.3-1.1,0.7-1.7,1.2c-0.5,0.5-0.9,1-1.2,1.7
		c-0.3,0.6-0.5,1.3-0.4,2c0,0.5,0.1,1,0.2,1.4c0.1,0.4,0.5,0.9,0.9,1.4c0.2,0.2,0.4,0.3,0.6,0.5c-1.6,1.4-3.2,2.5-4.9,3.3
		c-1.7,0.9-3.3,1.5-4.7,1.8c-1.4,0.3-2.5,0.5-3.3,0.5l-0.4,0c1.1-1.5,2-3,2.6-4.6c0.6-1.6,1-3,1.2-4.2s0.2-2.3,0.2-3.2
		c0-0.4,0-0.7-0.1-1.1l-0.3-1.4c-0.4-1.3-1-2.3-1.7-2.8c-0.7-0.5-1.5-0.8-2.3-0.8l-0.3,0c-1.9,0.2-3.7,1.5-5.6,3.9
		c-1.3,1.8-2.2,3.8-2.7,6c-0.2,0.9-0.3,1.9-0.3,2.8c0,0.2,0,0.4,0,0.7c0.2,1.5,0.8,2.8,1.8,3.9c1,1.1,2.6,1.8,4.8,2.1
		c-1.8,1.7-3.3,2.7-4.6,2.8l-0.2,0c-1,0-1.8-0.3-2.4-1c-0.7-0.7-1.1-1.7-1.2-3c0-0.2,0-0.5,0-0.7c-0.1-1.6,0.3-3.3,1.1-5.1
		c0-0.1-0.1-0.1-0.3-0.1c-0.1,0-0.2,0-0.3,0.1c0,0,0-0.1,0-0.1c-0.1,0-0.1-0.1-0.2-0.1c-2.4,2-5.5,4.3-9.3,6.7
		c-3.8,2.4-6.9,4.4-9.3,5.8c1.4-4.4,3.2-9.6,5.7-15.4s5.1-11.3,8.1-16.5c0.3-0.4,0.7-1.2,1.5-2.3c0.7-1.1,1.6-2.3,2.6-3.7
		c1-1.4,2.1-2.8,3.2-4.1c1.1-1.3,2.2-2.4,3.3-3.4c1.1-0.9,2-1.4,2.9-1.6c0,0.1,0,0.1,0,0.2c0,0.6-0.5,1.9-1.6,3.7
		c-1.1,1.8-2.8,4.5-5.2,8c-2.4,3.5-5.5,8-9.3,13.6c-2.2,3.2-4.7,6.8-7.5,10.8l-0.5,1.2c4.1-5.3,7.6-10,10.5-14
		c2.9-4,5.4-7.4,7.3-10.2c1.9-2.8,3.5-5.2,4.6-7c1.1-1.9,1.9-3.3,2.3-4.4c0.4-1.1,0.7-1.9,0.6-2.4c0-0.4-0.1-0.7-0.3-0.9
		c-0.2-0.2-0.5-0.3-0.8-0.3c-1.2,0.1-2.7,0.8-4.4,1.9c-1.7,1.1-3.5,2.9-5.5,5.2c-2,2.3-4.1,5.3-6.2,8.9c-3,5.1-5.6,10.4-7.9,15.9
		c-2.3,5.5-4.1,10.8-5.6,15.7c-0.9,3-1.5,5.5-1.9,7.5c-0.4,2.1-0.7,3.8-0.8,5.3c-0.1,1.5-0.1,2.8-0.1,3.9c0,0.6,0.1,1.1,0.1,1.3
		c0.1,1.6,0.3,2.9,0.7,3.8c0.4,1,0.9,1.7,1.5,2.2c0.6,0.5,1.2,0.7,1.8,0.7l0.2,0c1.1-0.2,1.9-0.9,2.5-2.3c0.6-1.4,0.8-3.1,0.8-5.3
		c0-0.7-0.1-1.5-0.2-2.3c-0.2-1.1-0.5-2.4-1-4c-0.5-1.6-1-3-1.5-4.3c-0.4-1.2-0.7-2-0.8-2.3l0-0.2c0-0.5,0.2-1,0.7-1.5
		c0.5-0.5,1.3-1.1,2.5-1.8c5.9-3.8,11-7.5,15.3-11c-0.5,0.7-0.8,1.5-1,2.4c-0.3,1.1-0.4,2.1-0.4,3c0,0.2,0,0.4,0,0.6l0.1,0.7
		c0.3,1.2,0.8,2.2,1.6,2.9c0.8,0.7,1.8,1,2.9,1c1.1,0,2.3-0.5,3.6-1.3c1.2-0.7,2.4-1.9,3.8-3.4l1.8-0.1c2-0.2,3.9-0.7,5.7-1.5
		c1.8-0.7,3.4-1.6,4.8-2.6c1.1-0.8,2-1.5,2.8-2.3c1.1,0.7,2.8,1.5,4.9,2.3c0.8,0.3,1.2,0.8,1.3,1.4c0,0.4-0.2,1-0.7,1.7
		c-0.5,0.7-1,1.5-1.7,2.3c-0.6,0.7-1.1,1.5-1.7,2.2c-0.5,0.8-1,1.5-1.3,2.1c-0.3,0.7-0.5,1.2-0.4,1.8l0,0.4c0,0.5,0.2,1,0.5,1.4
		c0.5,0.7,1.3,1.1,2.3,1c0.3,0,0.7-0.1,1.1-0.2c0.9-0.3,1.9-1.1,3.3-2.4c1.3-1.3,2.7-2.9,4.2-4.7c1.5-1.8,2.8-3.6,4.1-5.3
		c1.3-1.7,2.3-3.2,3.2-4.4l1.2-1.8l0-0.1C611.6,94.8,611.5,94.7,611.5,94.6z M547.1,116.1c0.4,1,0.8,1.9,1.1,2.8
		c0.3,0.8,0.6,1.8,0.8,3c0.2,1,0.3,1.9,0.4,2.8c0,1.2-0.1,2.2-0.3,3.2c-0.2,0.9-0.5,1.7-0.9,2.3c-0.4,0.6-0.8,0.9-1.2,0.9l-0.1,0
		c-0.2,0-0.4-0.1-0.6-0.2c-0.4-0.4-0.7-1-0.9-1.8s-0.3-1.7-0.3-2.8l0-0.6c-0.1-2.1,0-4.3,0.2-6.4c0.2-2.2,0.5-4,0.9-5.4L547.1,116.1
		z M575.6,102.2c-1.6-0.1-2.9-0.5-3.8-1.3c-0.9-0.8-1.4-1.7-1.5-2.9l0-0.5c0-1.3,0.2-2.7,0.7-4.2c0.6-1.7,1.3-3.2,2.3-4.5
		c0.7-0.9,1.3-1.6,2-2.1c0.7-0.5,1.3-0.7,1.8-0.8c0.6,0,1.2,0.3,1.6,0.9c0.6,0.8,0.9,2.1,0.9,3.7c0,0.9,0,2-0.2,3.1
		c-0.2,1.5-0.6,3-1.3,4.5C577.5,99.6,576.6,101,575.6,102.2z M591.3,91.5c0.4-0.6,0.9-0.9,1.7-1l0.2,0c0.5,0,0.8,0.3,0.9,0.8
		c0,0.5-0.2,1.2-0.6,2.1c-0.4,0.9-1,1.7-1.7,2.5c-0.3-0.3-0.5-0.7-0.7-1.2c-0.2-0.4-0.2-0.8-0.3-1.3C590.7,92.7,590.9,92,591.3,91.5
		z"/>
</g>
</svg>
