<?xml version="1.0" encoding="utf-8"?>
<!-- Generator: Adobe Illustrator 25.0.1, SVG Export Plug-In . SVG Version: 6.00 Build 0)  -->
<!DOCTYPE svg PUBLIC "-//W3C//DTD SVG 1.1//EN" "http://www.w3.org/Graphics/SVG/1.1/DTD/svg11.dtd" [
	<!ENTITY ns_extend "http://ns.adobe.com/Extensibility/1.0/">
	<!ENTITY ns_ai "http://ns.adobe.com/AdobeIllustrator/10.0/">
	<!ENTITY ns_graphs "http://ns.adobe.com/Graphs/1.0/">
	<!ENTITY ns_vars "http://ns.adobe.com/Variables/1.0/">
	<!ENTITY ns_imrep "http://ns.adobe.com/ImageReplacement/1.0/">
	<!ENTITY ns_sfw "http://ns.adobe.com/SaveForWeb/1.0/">
	<!ENTITY ns_custom "http://ns.adobe.com/GenericCustomNamespace/1.0/">
	<!ENTITY ns_adobe_xpath "http://ns.adobe.com/XPath/1.0/">
]>
<svg version="1.1" id="Layer_1" xmlns:x="&ns_extend;" xmlns:i="&ns_ai;" xmlns:graph="&ns_graphs;"
	 xmlns="http://www.w3.org/2000/svg" xmlns:xlink="http://www.w3.org/1999/xlink" x="0px" y="0px" viewBox="0 0 734.4463 274.9284"
	 enable-background="new 0 0 734.4463 274.9284" xml:space="preserve">
<metadata>
	<x:xmpmeta  x:xmptk="Adobe XMP Core 6.0-c002 79.164519, 2020/08/25-17:54:00        " xmlns:x="adobe:ns:meta/">
		<rdf:RDF  xmlns:rdf="http://www.w3.org/1999/02/22-rdf-syntax-ns#">
			
				<rdf:Description  rdf:about="" xmlns:dc="http://purl.org/dc/elements/1.1/" xmlns:stDim="http://ns.adobe.com/xap/1.0/sType/Dimensions#" xmlns:stEvt="http://ns.adobe.com/xap/1.0/sType/ResourceEvent#" xmlns:stFnt="http://ns.adobe.com/xap/1.0/sType/Font#" xmlns:xmp="http://ns.adobe.com/xap/1.0/" xmlns:xmpG="http://ns.adobe.com/xap/1.0/g/" xmlns:xmpGImg="http://ns.adobe.com/xap/1.0/g/img/" xmlns:xmpMM="http://ns.adobe.com/xap/1.0/mm/" xmlns:xmpTPg="http://ns.adobe.com/xap/1.0/t/pg/">
				<xmp:CreatorTool>Adobe Illustrator 25.0 (Macintosh)</xmp:CreatorTool>
				<xmp:CreateDate>2020-12-03T14:49:05-05:00</xmp:CreateDate>
				<xmp:Thumbnails>
					<rdf:Alt>
						<rdf:li  rdf:parseType="Resource">
							<xmpGImg:width>256</xmpGImg:width>
							<xmpGImg:height>48</xmpGImg:height>
							<xmpGImg:format>JPEG</xmpGImg:format>
							<xmpGImg:image>/9j/4AAQSkZJRgABAgEASABIAAD/7QAsUGhvdG9zaG9wIDMuMAA4QklNA+0AAAAAABAASAAAAAEA
AQBIAAAAAQAB/+4ADkFkb2JlAGTAAAAAAf/bAIQABgQEBAUEBgUFBgkGBQYJCwgGBggLDAoKCwoK
DBAMDAwMDAwQDA4PEA8ODBMTFBQTExwbGxscHx8fHx8fHx8fHwEHBwcNDA0YEBAYGhURFRofHx8f
Hx8fHx8fHx8fHx8fHx8fHx8fHx8fHx8fHx8fHx8fHx8fHx8fHx8fHx8fHx8f/8AAEQgAMAEAAwER
AAIRAQMRAf/EAaIAAAAHAQEBAQEAAAAAAAAAAAQFAwIGAQAHCAkKCwEAAgIDAQEBAQEAAAAAAAAA
AQACAwQFBgcICQoLEAACAQMDAgQCBgcDBAIGAnMBAgMRBAAFIRIxQVEGE2EicYEUMpGhBxWxQiPB
UtHhMxZi8CRygvElQzRTkqKyY3PCNUQnk6OzNhdUZHTD0uIIJoMJChgZhJRFRqS0VtNVKBry4/PE
1OT0ZXWFlaW1xdXl9WZ2hpamtsbW5vY3R1dnd4eXp7fH1+f3OEhYaHiImKi4yNjo+Ck5SVlpeYmZ
qbnJ2en5KjpKWmp6ipqqusra6voRAAICAQIDBQUEBQYECAMDbQEAAhEDBCESMUEFURNhIgZxgZEy
obHwFMHR4SNCFVJicvEzJDRDghaSUyWiY7LCB3PSNeJEgxdUkwgJChgZJjZFGidkdFU38qOzwygp
0+PzhJSktMTU5PRldYWVpbXF1eX1RlZmdoaWprbG1ub2R1dnd4eXp7fH1+f3OEhYaHiImKi4yNjo
+DlJWWl5iZmpucnZ6fkqOkpaanqKmqq6ytrq+v/aAAwDAQACEQMRAD8A7tYaZoUPlmyvp9PjuJ5v
SQ1NCzSSBK19q1zaZMuQ5TESoC3SYcGGOCMzAEmvtNJnquheXLDT57z9GRyiBeZjFQSK7775j4s+
WchHiO7lZ9LgxwMuAGks1mx0yO+h0zRtGt7zUJIzcSGVikUUNaBnINasdlGAanJ1kXH1GHGJCGPH
GUyL35Aefv6LIo9Al8u3WojSIob6zJhubOSp4TqQCtQdweQIOWYs2SUxHiNFiI4ThM/DAlHYjuKa
/onTtP8AMem/UrdYPViufU49+Ijp+s5HxpTxS4je4/S5X5eGPPDhFWJfoZDmE7F2KtLIj14MGp1o
a4SKQCCpXV7Z2iq11PHbq5KoZXVAxVGkIHIitERm+QJ7YEqFnrmj3t3LZ2d5Dc3MMUU8scTh+Mc4
5RMStR8a7j2oehGKqp1LTheCyN1CLw0AtvUX1d1Lj4K8vsqT06DFWhqVmdSbTA5N4kK3MkYRyqxO
7IhZ6cAWZG4gmpodtjiqJxV2KuxV2KuxV2KuxV5Z5S81eYbz87vMug3N68ukWdo8lrZkLwRg9uAR
QV6SN375IjZgD6qZN+bGr6lo/wCX2salps7W19bpEYZ1oSpadFNKgj7LEYI82UjsjPy81G91LyPo
l/fSme8ubSOSeZqAsxG5NKDE81HJkOBLsVdirTMqqWYhVHUnYYqhbrV9Ks3dLu9gt3jjE0iyyohW
ItwEjBiKLz+GvSu2Kt3eqadZlBc3CRtJLFAiE/EZZ24xKFG9WP8AE9AcVX31/ZWFpJd3s6W1rFT1
JpWCqKkKNz4sQB4nFVfFXYqksvm/RkneJGkmSI0nuIULxR70q7jt7jMoaOZF8vLqXBl2hiBoWa5k
DYe8pZZ/Hovlq3rTncRuflErv+sDL57ZMh8vvcXFviwjvkPsssj1WAXGl3cB39WGRfpKkZhYpVMH
zdnnhxY5DvBY95EdrttS1KT+8ka3tvksFtGfxaQnJ6gVMjzP3uv7Llx8Uzz9I+UR+tCa4DBq+tWy
7LfxWE9AP2/X9FvvVMs0v1A91/c1ar05Mkf5wxn/AGXD9wZBf/8AKR6T/wAYrr9UeQx/3UvfH9Ln
Zf7+Hul/vU2NaGgqewzHcxhWt6hqUQtnvLH1ZLmUR+lcsDCCeqpDG1Gp05Ofopm0wY4m+GXIdOfz
P3B0eqzTHDxRviNb8vgAftLvOFjFohtNY0pRaTCURSJF8KMCCwqg2/ZNcOjyHLcJ7ikdpYhg4cuP
0m625I/zLpdh5s0i10x7prSa4EV9GyLyPpAgSrXYfHFI0da7VrvSma+WMxvuBp20M0ZUOshfwYxJ
+SNrS5a31T07iVVjtrh7ZZHgijaRY41PNfhFu8cJ6VCV70EOJt4VSw/Jm0s9O1CyFxaSrfcSrvZy
FoWS4eZeD/WfUKqrhaO5rxBYkfDjxLworV/yng1G6hvGurb6zHYW9hIJbFGhcwxXETTelHJEFY/W
F4AbJwpvtxeJeFPvKdhpWgW48uw3CTXytNdTssfps5mlMnJ6chyAdRu1SBkjjlw8VelrGaHHwX6u
dI7UNYmhu1srG0a9u+IeRQwjSNCaAu5BpXsKZPHhBHFI8Ia82oMZcMI8UvkB7yjLC7W8s4rlVKCV
Q3A0JB7io265XkhwyIbsWTjiJd6vkGx2KuxV2KvnKbX9b0L87vNl7o1rFeXZgMZimNF4M1sSftJv
sO+ZWDD4mzharUeCDJP/AMwPPmp6z+W+rWd/p0dncPGhkaOUyKQs0ZFBxFPvOXZNEYRMiXFw9pjL
MQA+L0T8qv8AyXPl3/mCi/VmBLm7aPJlEj8I2fiW4gnioqTQVoBiBZUmhbC9G1rVrjVLkRObi7uI
oysLFvq8Jb4yTT7KxqQp7s2bTNghGAvYA/E/2/c6PTanJLIaNyIG38I6/ZsO8lF69pS2kVlcieWf
V5LuGOO6diKszbqEB4qlK7AZVp8vESKAhwnZv1eAQEZWTk4hv+NqVvzE0m/1XypcWVipkmklt+UI
oQ8YnT1Kg9eKVb6MwA7UsBm8vea7240jVJtNub+zSCMXttO4hubieC1RP3gk+JUnniXn6g+ELyG7
ZK0InzBZedtcm06/m8v+hqlpJLbRXEbcAkskvp+uSknq8I4U+Ek8TyY9lDIpU889W+v6vqlhpWlR
xfWdOij1N4pJFSIyvKIY2Vmjfn6IErUKUrxJB+ywCSyHyvN5qkW8TX4YozDMyWs0ZH75OvIKKcVW
vEE7tTlRemAqFfzLDqNxYJZ2NVa7lWGeVR/dwsCXb8KfTl+lMYy4pdBfxcTWxnKAjD+I0fIdUvuR
bSqPLGjqFiUBdRnXpFF+0pI+1JJ0+/6L42P3s/h5/sDjz4T/AIPi5fxHuH6ypWsFw3lTSby2X1J7
DjcCIdXUcldR7lW2wzkPGlE8pbMMcJfl8co7mG/v70y1TWI5dJi+o/vrjU19KyTxLj4mbwCDdspx
YSJni2Eef483Kz6gHGODcz2j+PJLtHjHlzWH0udv9B1FVms7g7KJoYlSaNq9CyoGXKskuMmTRp4/
l8nhn6Z7g+YABH2WPil8jyalLLr1DHa3d1Z2lgGqCYIZiTIfZ3NR7Zfp9iR/Rl9zjzJyXl/hlKEY
+4S5/E/YyS//AOUj0n/jFdfqjyvH/dS98f0uwy/38PdL/eovUtUtrCNGlDPJK3CCCMcpJH8FGV4s
Rmdm7NnjjG/M8h1LGNXu31HzJolnLA0E0ErSzQsVboFkU1UkEUXM/DDgxTkDYIdVqMniZ8cSKINk
fat/Mm55W9lYp8Ukshk4Dr8I4r9/M4ezI7yl5I7bncYwHMm/x81S31GWzsNYaSQm2sY47G2hrUer
FFxan+y6+2CWMSlCucjxH3EsoZjCGQk+mAEQPMBCWVrKk+gW9y1JYYzeysT/AHUEYJRR/rGvL6B2
yycwRMjkdveWrFjIOKMuYHEfID9fX9iEeSe90q+umU8NUvvTsbdv53IHJgP5VFB77+GWACM4j+ZH
ctJkZ45S/wBUnUR+O770w1O6kv8AXrbRljlubCwQGaKOn790ovxEkAIGoDU+OU4o8GM5NhKX2ORn
mcmYYqJhAb/0v2K0CXVjrdo8RVJdQmMc6CjJwiUGURmgNEACD5E98jIieM3/AAj7+Xz5tkRLHljX
OZ3+HOvdyTC9uZrmVbOwjMU2pEvPdCtUtkonqb93AomUQiIjilyj08+79bk5ZmR4YCjPme6PK/j0
Ty3t4reCOCFeMUShEUdgBQZiykZGy50ICIAHIKmRZOxV2Ksa/MTzinlDynea16Ynnj4x2sDEhXmk
PFeVOw+0fYYQLRI0HyXbedtYTzRc+YbgrcXd8zm9Q/CrrIwYqKfZpxHHwoOo2zKxZDjNhwdRiGWJ
jLqyP8yvNcDpFo+mOZLW5tra6u5mABPrxpcxxAAtTgGXkevLbahrfn1hyCqoOLpuz44ZcV8RZ7/z
jr+Y95cOvku/UPFBE8umTgUYBW5PE/iPiLKfo8MwZjq7THLo9r1nVItPspZS8YuODGCKR1Tmw6fa
K/TksOIzkB0YanOMcCbF9LNIfyzp1vZ6cHSVLi4uT6t3dIwfnIdz8Q6hSaZPVZDKXKgOQa9DhjCF
g3KW5PeUo1XU1n1Z7tWU2ukVit+YJWW+lFAg47nh7dPlmRixVDh6z5+UQ4efPxZOL+HHsPOZ/UyK
51BLDTPrmoEJ6SKZ/TqRzNAQvf7RoMwo4+OfDF2U8wx4+KfQbpbY+Z1udQuI3iENjFb/AFlLlial
OVORWnwhhuO9Pnl89LwxBu5E1TjYtdxTIIqAjxX5KI83G4lsWsrVmtLqdIDNMeBJb7XBRWvDuenb
J/k6EuI7gW1/yhxGPBH0ylVn9Hudf+Z7WHWxZ2Fj9e1EgRTSIVUqoNePOjEhSSTXYZHHpCYccjwh
ll7QAyeHCPHLqiYNduJvM8+kiJFgt4+TOxPqMxCsCB0p8X4ZGWADEJ3uSzhqpSznHWwHxU9d1K4n
vYdC02ZYru4Ba5nrvDEBU8f8th0/h1yWDEBE5JC4jl5ljqs0pTGGBqR5nuH6/wAeaZ6Xpdnplott
apxQbsx3Z27sx7k5j5cspmy5WDBHFHhihPKn/KOWH/GIfrOWav8AvZe9p0H9xH3MXivXsRHeRAFY
or02nIEqP9LUNQVH7BObAw4/Sepjf+l/W6uOXw6kOgnX+nH6EB511u81LQ5I3VFeORDD6YYP6nqz
x7bn/dUe+Y08EYUR+Nh+to7Q1M8uIjqOVc74pD7gyrUBEPKmnPGAYojZMvHoF5IBT6DlWm+s+4/c
7bPXgRI5Dg+8I2//AOUj0n/jFdfqjyOP+6l74/pbcv8Afw90v96o38fHzXps839wYZYoGPQTHenz
ZemTxn9zIDnY+TDKK1ECeVED3/2NXllHa65Jr99cJHa28HpQp3qepPidyABjCZlj8OI3JXJiEMpz
TNREaS3RtOuta1s+YL+Mx2sdBp8D7EhfssR4Dr7n2y/NkGLH4cefVxdNhlny+NMVEfSE6fy1pzx3
sTGQx3rvI6lhRHlpzZNupp3rmKNTIEH+a5x0UCJDepWfn3L5NBsn1CO+ZpPUSFbdo6jg6K3MchSv
2gOhwDUSEeHztkdLEzE97qvhzUj5ZsPqlrbJJLGlnM08Dqy8gzMWIqVO3xfPJfmpWTt6hTD8lDhj
EEjhNhUby9ZfXkvYJJbaVYvq7CJgA0fg3IMe3UEHIjUS4eE0RdsjpI8fGCYmq27lS70WyupLV25x
/Uw6xrGeIKSKFZW26EDtghnlEHzZZNNGRif5v6UQloq3bXIkfeMRiGo9NQpJqq02JrkDPamwY6lx
X0quivkGx2KuxV2KvPPz70mfUPy01AwAs9k8V2UAqSkb0f8A4FGLfRko82Mxs+SQCTQbk5a471PW
/I40XWbO11G1UtK3l4UkAbZ4WhuU+TSwtUfLI228P6E7/I7y+kvnLStRghVI7LT7yW4kApyd7qW3
jBI78DtXsuCRTAPaYNR0q0v7/wDSzpDfGVijzD7Vv/usRmlONOoHeuZMsc5Rjwbxrp39bcGObHCc
vENSvr/N6V+OaV3Mdxd3Mk3lOGW3SRGFzOP3NvLtQemrj7f+UKU/HMiJERWYg93Uj3+TiZIynInT
AjvPKJ919fNFxaTcS2umfo60NuNMl5yW17VPUcj7fJOVSp3rT+mVHMAZcRviHOPRujpyYw4I1wHl
Lr57WidQ8u6lqs1q2pXSG3jk5zWcQYR8QNgCd2J6Emm3TIY9THGDwjfvbc2jnmMeOXpB3A5ft/FL
tV8pi+uZ5Fu3hhuvRFxbqooyw7UB6jbt0rvgxavgAFWRdH3p1HZ/iSJ4qEqse5G32hQ3H1I28rWb
WBPoGMKQFZeJHFgR06HKseci7F8Tfl0olw0eHg5UgrHQtX04zwWVzAtvO7SG6kjZ7kct99wrkdif
uy3JnhOjIGx06NGLS5MdiJjRPMj1ftS/WdOvYtS06z0+1eYxt9aa+cVLTk0rLLTYCgLDuKAdsvw5
ImMpSNdK8vIONqcMxOEYRJr1cXn5n7+/kmWjaNqNlq9xLNKJLQxgIxA5yTPxaWRu4+IEfKnhlGbN
GUAAN7+zoHK02mnDISTca+Z6n8eXcn2YbsGOacvmWy0mKwTT4meKMxrP9ZA33o3Hh/HM3IcUpmXE
d/L9rrMIz48YgIjYc+L9ijqvli7k0GwtLUKbq1Qo9WoCJIyJN/8AXocni1QGSUjyP69mGfQyOGMY
/VEfeN/tQGm+T9U/TNvLfJGbCMyvIoapZz6gTb/nsTkdTqIzAEfxy/U1YOz8gygzrhF/76v90msG
iamvk1dIk4teQr6cR5VUrFLWI1/1VGU4cgjkEjycoaaf5bw/4hsPgdkTFFrF1rFpdXVolrFapMpK
zCUsZQtNuKUpwyRMIwIBsmulcmcY5ZZYylEREQet868h3JtPbwXERinjWSNuqMKj8cxoyINhzJQE
hRFhCjQtJEiyNbiR0NUMpaTifYOWAy3x51VtX5XHd1fv3+9HZS3uxV2KuxV2KuxV2KuxV2KuxV2K
rJ4IZ4ZIJ0WWGVSksbgFWVhRlIPUEYq8u0T/AJx58paX5oXWfrE1zaQSetaaZIFKJIDVeb/akVT0
BHzJ7yM2AgLZv5s8n6b5lt7WO6ZoZbO6gu4Z4wvLlAxZUaoNUPI7YAWRFu8m+UNN8q6NHplkzS8S
zSXEgX1HLuz0JUD4QzniO2JNqBSeFVNKgGhqK9jgTTeKuxV2KuxV2KuxV2KuxV2KuxV2KuxV2Kux
V2KuxV2KuxV2KuxV2KuxV2KuxV2KuxV2KuxV2KuxV2KuxV2KuxV2KuxV2KuxV2KuxV2Kv//Z
								</xmpGImg:image>
						</rdf:li>
					</rdf:Alt>
				</xmp:Thumbnails>
				<xmp:MetadataDate>2020-12-03T14:49:05-05:00</xmp:MetadataDate>
				<xmp:ModifyDate>2020-12-03T14:49:05-05:00</xmp:ModifyDate>
				<xmpTPg:MaxPageSize  rdf:parseType="Resource">
					<stDim:w>734.446286</stDim:w>
					<stDim:h>274.928388</stDim:h>
					<stDim:unit>Pixels</stDim:unit>
				</xmpTPg:MaxPageSize>
				<xmpTPg:NPages>1</xmpTPg:NPages>
				<xmpTPg:HasVisibleTransparency>False</xmpTPg:HasVisibleTransparency>
				<xmpTPg:HasVisibleOverprint>False</xmpTPg:HasVisibleOverprint>
				<xmpTPg:Fonts>
					<rdf:Bag>
						<rdf:li  rdf:parseType="Resource">
							<stFnt:fontName>Amarillo</stFnt:fontName>
							<stFnt:fontFamily>Amarillo</stFnt:fontFamily>
							<stFnt:fontFace>Regular</stFnt:fontFace>
							<stFnt:fontType>TrueType</stFnt:fontType>
							<stFnt:versionString>Version 1.000 by Francis Sudio</stFnt:versionString>
							<stFnt:composite>False</stFnt:composite>
							<stFnt:fontFileName>Amarillo.ttf</stFnt:fontFileName>
						</rdf:li>
						<rdf:li  rdf:parseType="Resource">
							<stFnt:fontName>RedHatDisplay-Regular</stFnt:fontName>
							<stFnt:fontFamily>Red Hat Display</stFnt:fontFamily>
							<stFnt:fontFace>Regular</stFnt:fontFace>
							<stFnt:fontType>TrueType</stFnt:fontType>
							<stFnt:versionString>Version 1.005; Red Hat Display</stFnt:versionString>
							<stFnt:composite>False</stFnt:composite>
							<stFnt:fontFileName>RedHatDisplay-Regular.ttf</stFnt:fontFileName>
						</rdf:li>
					</rdf:Bag>
				</xmpTPg:Fonts>
				<xmpTPg:PlateNames>
					<rdf:Seq>
						<rdf:li>Cyan</rdf:li>
						<rdf:li>Magenta</rdf:li>
						<rdf:li>Yellow</rdf:li>
						<rdf:li>Black</rdf:li>
					</rdf:Seq>
				</xmpTPg:PlateNames>
				<xmpTPg:SwatchGroups>
					<rdf:Seq>
						<rdf:li  rdf:parseType="Resource">
							<xmpG:groupName>Default Swatch Group</xmpG:groupName>
							<xmpG:groupType>0</xmpG:groupType>
							<xmpG:Colorants>
								<rdf:Seq>
									<rdf:li  rdf:parseType="Resource">
										<xmpG:swatchName>C=58 M=5 Y=0 K=0 1</xmpG:swatchName>
										<xmpG:mode>CMYK</xmpG:mode>
										<xmpG:type>PROCESS</xmpG:type>
										<xmpG:cyan>57.860684</xmpG:cyan>
										<xmpG:magenta>4.885939</xmpG:magenta>
										<xmpG:yellow>0.000000</xmpG:yellow>
										<xmpG:black>0.000000</xmpG:black>
									</rdf:li>
									<rdf:li  rdf:parseType="Resource">
										<xmpG:swatchName>C=86 M=49 Y=36 K=11 1</xmpG:swatchName>
										<xmpG:mode>CMYK</xmpG:mode>
										<xmpG:type>PROCESS</xmpG:type>
										<xmpG:cyan>85.653466</xmpG:cyan>
										<xmpG:magenta>48.581672</xmpG:magenta>
										<xmpG:yellow>36.179140</xmpG:yellow>
										<xmpG:black>10.687418</xmpG:black>
									</rdf:li>
									<rdf:li  rdf:parseType="Resource">
										<xmpG:swatchName>C=73 M=0 Y=46 K=0 1</xmpG:swatchName>
										<xmpG:mode>CMYK</xmpG:mode>
										<xmpG:type>PROCESS</xmpG:type>
										<xmpG:cyan>72.503239</xmpG:cyan>
										<xmpG:magenta>0.000000</xmpG:magenta>
										<xmpG:yellow>46.454564</xmpG:yellow>
										<xmpG:black>0.000000</xmpG:black>
									</rdf:li>
									<rdf:li  rdf:parseType="Resource">
										<xmpG:swatchName>C=86 M=32 Y=66 K=16 1</xmpG:swatchName>
										<xmpG:mode>CMYK</xmpG:mode>
										<xmpG:type>PROCESS</xmpG:type>
										<xmpG:cyan>85.702294</xmpG:cyan>
										<xmpG:magenta>32.138550</xmpG:magenta>
										<xmpG:yellow>66.103607</xmpG:yellow>
										<xmpG:black>15.576409</xmpG:black>
									</rdf:li>
									<rdf:li  rdf:parseType="Resource">
										<xmpG:swatchName>C=78 M=60 Y=52 K=38 1</xmpG:swatchName>
										<xmpG:mode>CMYK</xmpG:mode>
										<xmpG:type>PROCESS</xmpG:type>
										<xmpG:cyan>77.825588</xmpG:cyan>
										<xmpG:magenta>60.234988</xmpG:magenta>
										<xmpG:yellow>52.483404</xmpG:yellow>
										<xmpG:black>38.113984</xmpG:black>
									</rdf:li>
								</rdf:Seq>
							</xmpG:Colorants>
						</rdf:li>
					</rdf:Seq>
				</xmpTPg:SwatchGroups>
				<dc:format>image/svg+xml</dc:format>
				<xmpMM:DerivedFrom  rdf:parseType="Resource"></xmpMM:DerivedFrom>
				<xmpMM:DocumentID>xmp.did:0ffee13e-f5e8-468e-b584-fe3f10d80539</xmpMM:DocumentID>
				<xmpMM:InstanceID>xmp.iid:0ffee13e-f5e8-468e-b584-fe3f10d80539</xmpMM:InstanceID>
				<xmpMM:OriginalDocumentID>xmp.did:0ffee13e-f5e8-468e-b584-fe3f10d80539</xmpMM:OriginalDocumentID>
				<xmpMM:History>
					<rdf:Seq>
						<rdf:li  rdf:parseType="Resource">
							<stEvt:action>saved</stEvt:action>
							<stEvt:instanceID>xmp.iid:0ffee13e-f5e8-468e-b584-fe3f10d80539</stEvt:instanceID>
							<stEvt:when>2020-12-03T14:49:05-05:00</stEvt:when>
							<stEvt:softwareAgent>Adobe Illustrator 25.0 (Macintosh)</stEvt:softwareAgent>
							<stEvt:changed>/</stEvt:changed>
						</rdf:li>
					</rdf:Seq>
				</xmpMM:History>
			</rdf:Description>
		</rdf:RDF>
	</x:xmpmeta>
	<sfw  xmlns="&ns_sfw;">
		<slices></slices>
		<sliceSourceBounds  bottomLeftOrigin="true" height="180.9025" width="652.9718" x="40.7372" y="47.013"></sliceSourceBounds>
		<optimizationSettings>
			<targetSettings  fileFormat="PNG24Format" targetSettingsID="0">
				<PNG24Format  filtered="false" interlaced="false" matteColor="#FFFFFF" noMatteColor="false" transparency="true">
					</PNG24Format>
			</targetSettings>
		</optimizationSettings>
	</sfw>
</metadata>
<g>
	<g>
		<path fill="#56C0EE" d="M239.3191,216.4669c-1.6824,0-3.3786-0.087-5.042-0.2576c-2.2852-0.2363-4.5598-0.6722-6.7615-1.2955
			c-3.6567-1.0891-6.7403-2.7313-9.1799-4.8839c-2.4459-2.1616-4.3177-4.7212-5.5634-7.6086
			c-1.2383-2.8706-1.9193-5.9364-2.024-9.1103c-0.0972-2.9186,0.2813-5.9007,1.1241-8.8639
			c0.8428-2.9553,2.153-5.8015,3.8946-8.4626c1.7438-2.661,3.9507-5.0836,6.5616-7.1995c2.613-2.116,5.6702-3.8406,9.0869-5.126
			c3.4167-1.2865,7.2786-2.0168,11.4746-2.1705l1.4572-0.0145c5.3878,0,10.5261,0.845,15.273,2.5117
			c8.2092,2.9141,16.1613,7.6844,23.6398,14.1804c2.6786,2.3545,5.0801,4.5596,7.1559,6.5708
			c7.9067-7.8829,15.364-17.419,22.1741-28.3598c7.0301-11.2925,12.8177-22.7445,17.2029-34.0364
			c4.3652-11.2363,6.7372-20.968,7.0523-28.9244l0.0116-2.5535c-0.1142-3.4113-0.5922-6.2123-1.4191-8.2781
			c-0.7878-1.9698-1.8505-3.4002-3.1566-4.2514c-1.2224-0.7948-2.6743-1.1979-4.3145-1.1979c-0.1291,0-0.258,0.0023-0.3892,0.0073
			c-5.4005,0.1984-12.8526,4.0785-22.1497,11.5328c-8.3064,6.6728-17.1585,15.2535-26.3089,25.5036
			c-8.7717,9.87-15.5617,18.5879-20.1797,25.9094c-2.2915,3.6566-4.1971,6.8193-5.6638,9.3979
			c-1.9457,3.4849-3.3649,5.6532-4.3367,6.6209l-0.0909,0.0803c-0.5435,0.4336-1.1209,0.6633-1.7163,0.6844
			c-0.0021,0-0.0042,0-0.0063,0c-1.1157,0-2.0262-0.5195-2.8118-1.544c-0.7423-0.9654-1.14-2.0959-1.1812-3.3579
			c-0.0339-1.0257,0.2326-2.0468,0.7931-3.0345l0.0656-0.1037c2.0546-2.8617,4.6666-7.3616,7.765-13.3734
			c3.1206-6.054,6.3057-12.8198,9.4665-20.1096c3.1598-7.2886,5.8711-14.3198,8.059-20.8983
			c2.0822-6.2669,3.2761-11.3683,3.551-15.1738c-0.5414,0.3072-1.564,1.0669-3.3406,2.9459
			c-2.1096,2.2352-4.3357,5.0908-6.6156,8.4882c-2.2704,3.3823-4.1929,6.9637-5.7146,10.6442
			c-1.2405,3.0942-1.8199,6.2463-1.7173,9.3572c0.0286,0.8244,0.0877,1.5428,0.1776,2.1343
			c0.0952,0.6188,0.1735,1.0875,0.2368,1.4085c0.0846,0.4309,0.1205,0.7079,0.1248,0.8261l0.0582,1.6684l-1.4952-0.5485
			c-3.0212-1.107-4.6233-3.7804-4.7607-7.9442c-0.0793-2.3857,0.2644-4.7486,1.0226-7.0233
			c0.9454-3.0123,2.3264-6.0969,4.0998-9.1482c1.7607-3.0317,3.735-5.8723,5.8679-8.4425c2.1456-2.5853,4.325-4.7184,6.4781-6.3399
			c2.2905-1.7252,4.2923-2.5964,6.1185-2.6633l0.2104-0.0039c2.2545,0,4.986,1.3523,5.1974,7.7954l-0.1893,4.2837
			c-0.552,5.0624-2.1879,11.2563-4.8686,18.4864c-1.7321,4.6722-3.7297,9.6442-5.9684,14.8555
			c6.3025-7.8779,13.3104-15.5477,20.9147-22.8833c13.7493-13.4826,25.5813-21.9786,35.1588-25.2461
			c2.4935-0.8105,4.8475-1.2592,7.0099-1.3389c0.2285-0.0084,0.4547-0.0122,0.6778-0.0122c2.5918,0,4.9362,0.5708,6.9677,1.6973
			c2.2397,1.2397,4.0395,3.2402,5.3498,5.9465c1.2764,2.645,1.9933,6.1143,2.1319,10.3126
			c0.1819,5.4681-0.7593,12.4988-2.7959,20.8967c-2.8012,10.9419-6.9254,21.8649-12.2614,32.479
			c-5.3233,10.5946-11.2018,20.3627-17.4737,29.0315c-5.963,8.243-11.721,14.9787-17.1279,20.041
			c3.4114,3.6532,7.2193,6.496,11.3329,8.4581c3.8905,1.8338,8.0146,2.7648,12.2519,2.7648c0.3669,0,0.7338-0.0067,1.1029-0.0201
			l0.5901-0.0211l0.5055,2.1694l-1.5482,0.7826c-1.1187,0.5908-2.6458,1.0725-4.6529,1.466
			c-0.7983,0.1528-1.6538,0.2464-2.5464,0.2787c-0.1967,0.0078-0.4008,0.0112-0.6134,0.0112c-1.2584,0-2.8224-0.1304-4.6465-0.3868
			c-2.1963-0.31-4.9362-1.3523-8.1457-3.0992c-2.963-1.6098-6.1249-4.0902-9.4115-7.3789c-0.8852,0.894-2.1456,1.9532-3.8175,3.2073
			c-2.1974,1.6488-4.9669,3.4426-8.2324,5.3322c-3.2644,1.8919-6.9497,3.7269-10.9532,5.4526
			c-3.9993,1.7224-8.2863,3.1984-12.7446,4.3867c-4.4784,1.1906-9.0573,1.8807-13.6086,2.0479
			C240.55,216.4558,239.9335,216.4669,239.3191,216.4669z M241.5028,166.8197c-0.3997,0-0.7952,0.0067-1.1907,0.0212
			c-4.0078,0.1472-7.6254,0.9844-10.7535,2.4883c-3.128,1.5016-5.7991,3.4737-7.9395,5.8595
			c-2.1404,2.3857-3.7667,5.0479-4.8347,7.9107c-1.0649,2.8528-1.5566,5.7425-1.4625,8.5897
			c0.092,2.7803,0.7888,5.4581,2.0695,7.9598c1.2742,2.4838,3.2327,4.6209,5.8203,6.3511
			c2.6173,1.7503,5.9969,2.9431,10.0439,3.5462c1.8009,0.2452,3.6716,0.3713,5.5464,0.3713c0.5288,0,1.0585-0.0101,1.5915-0.029
			c5.0283-0.1851,10.23-1.1873,15.4623-2.9799c5.2619-1.8049,10.4668-4.2307,15.4687-7.2117
			c4.6751-2.7849,9.1356-5.9798,13.2745-9.5071c-3.385-3.6666-7.3653-7.2541-11.8469-10.6755
			c-4.8401-3.6967-9.4432-6.5674-13.6826-8.5328C252.8939,168.2221,246.9794,166.8197,241.5028,166.8197z"/>
		<path fill="#56C0EE" d="M241.1306,215.2919c-2.2725,0.0836-4.5218,0.0101-6.7487-0.2185c-2.2271-0.2307-4.4224-0.6499-6.586-1.262
			c-3.5119-1.0468-6.4326-2.5986-8.7654-4.6566c-2.3296-2.0591-4.0882-4.4615-5.2725-7.2062
			c-1.1843-2.7458-1.8273-5.6387-1.9278-8.6777c-0.0931-2.8093,0.2675-5.641,1.0797-8.4961
			c0.8132-2.8528,2.0632-5.5673,3.7487-8.1414c1.6867-2.5752,3.7964-4.8896,6.3301-6.943c2.5348-2.0524,5.465-3.7045,8.7908-4.9564
			s7.0417-1.9543,11.1489-2.1048l1.3113-0.0134c5.3349-0.0112,10.3473,0.806,15.0383,2.4537
			c8.1214,2.8818,15.8853,7.5417,23.294,13.9775c2.9948,2.6331,5.612,5.0502,7.8496,7.2497
			c8.2811-8.1203,15.972-17.8839,23.074-29.2929c7.1009-11.4068,12.8672-22.8159,17.3002-34.2305
			c4.4329-11.4123,6.8101-21.1832,7.1317-29.3097l0.0128-2.5947c-0.1205-3.6143-0.6218-6.5233-1.5037-8.7279
			c-0.8819-2.2029-2.0779-3.7966-3.5859-4.7786c-1.509-0.9816-3.2781-1.4354-5.3106-1.3606
			c-5.6554,0.2079-13.2459,4.1309-22.7674,11.7652c-8.3921,6.7418-17.2061,15.2847-26.442,25.6296
			c-8.8542,9.9631-15.6189,18.6497-20.2929,26.0599c-2.3063,3.6812-4.2034,6.8282-5.6903,9.4425
			c-1.8791,3.3668-3.2623,5.4927-4.1517,6.3779c-0.3627,0.2887-0.7297,0.4415-1.1009,0.4548
			c-0.699,0.0257-1.345-0.3467-1.9394-1.1215c-0.5943-0.7737-0.9073-1.6656-0.9412-2.6801
			c-0.0264-0.8049,0.1871-1.6087,0.6408-2.4091c2.0906-2.9131,4.7089-7.4168,7.8527-13.5171
			c3.1429-6.097,6.31-12.8238,9.4993-20.1804c3.1894-7.3555,5.888-14.3544,8.096-20.9954
			c2.2058-6.6387,3.4188-11.9453,3.6377-15.919l-0.0063-0.1728c-0.018-0.5529-0.2242-0.8222-0.6165-0.8077
			c-0.8968,0.0329-2.4258,1.1962-4.5926,3.4883c-2.1646,2.2932-4.4086,5.1716-6.7329,8.6348
			c-2.3232,3.4621-4.2647,7.0785-5.8234,10.8472c-1.3134,3.2765-1.9151,6.5612-1.8061,9.8533
			c0.0296,0.8751,0.093,1.6343,0.1904,2.2753c0.0983,0.6421,0.1798,1.1282,0.2453,1.4604c0.0656,0.3322,0.1004,0.544,0.1037,0.6355
			c-2.5697-0.942-3.9127-3.2452-4.0342-6.9063c-0.0751-2.2559,0.2464-4.4564,0.9623-6.6047
			c0.9296-2.9621,2.263-5.9386,4.0015-8.9302c1.7374-2.9922,3.6578-5.7547,5.7601-8.287c2.1023-2.5339,4.1992-4.5869,6.292-6.1627
			c2.0906-1.5746,3.9317-2.393,5.5274-2.4515c2.7071-0.0997,4.1379,2.1305,4.288,6.69l-0.1893,4.1901
			c-0.5372,4.9091-2.135,10.9502-4.7956,18.1246c-2.6595,7.1761-5.8965,14.9374-9.7076,23.2841
			c7.6572-10.4481,16.4554-20.4658,26.3934-30.0537c13.7037-13.4375,25.2904-21.7712,34.7612-25.0019
			c2.4015-0.7803,4.6401-1.2079,6.7149-1.2843c2.687-0.0987,5.0537,0.4181,7.1031,1.5547c2.0494,1.1338,3.6789,2.9532,4.8897,5.4548
			c1.2076,2.5033,1.8802,5.7814,2.0145,9.8337c0.1788,5.3879-0.7434,12.2462-2.7632,20.574
			c-2.7886,10.8917-6.844,21.6341-12.1694,32.2271c-5.3223,10.593-11.1161,20.2183-17.3774,28.8738
			c-6.2634,8.6566-12.2085,15.545-17.8332,20.662c3.7244,4.1984,7.876,7.3868,12.4528,9.5696
			c4.3991,2.0735,9.0107,3.0234,13.8392,2.845l0.5891-0.0212l-1.5482,0.7826c-1.031,0.544-2.4914,1.0023-4.3822,1.3723
			c-0.7391,0.1416-1.5344,0.2297-2.3868,0.2609c-1.3102,0.0479-3.0032-0.0747-5.079-0.3668
			c-2.0769-0.2932-4.674-1.2854-7.7914-2.9821c-3.1185-1.6946-6.4315-4.3556-9.9402-7.9844
			c-0.7784,0.9743-2.2493,2.2731-4.4139,3.8974c-2.1656,1.6243-4.8739,3.379-8.1256,5.2608
			c-3.2496,1.884-6.864,3.6822-10.8422,5.3968c-3.9772,1.7135-8.1784,3.1583-12.5998,4.3366
			C250.0905,214.4536,245.6291,215.1258,241.1306,215.2919z M240.4316,211.0289c5.1541-0.1895,10.4076-1.2017,15.7585-3.0345
			c5.353-1.8361,10.5737-4.2686,15.6676-7.3031c5.0928-3.0346,9.8704-6.5005,14.3329-10.4001
			c-3.6103-4.039-7.877-7.9409-12.8027-11.7011c-4.9247-3.7614-9.5511-6.6454-13.8824-8.6533
			c-6.8143-3.0456-13.2248-4.4581-19.2312-4.2363c-4.1718,0.1528-7.893,1.0168-11.1648,2.5898
			c-3.2718,1.5719-6.0308,3.6109-8.2768,6.1136c-2.245,2.5028-3.9317,5.2631-5.0558,8.2775
			c-1.1262,3.0166-1.637,6.0322-1.5365,9.0478c0.0984,2.971,0.8312,5.7914,2.1985,8.4615c1.3684,2.6677,3.4325,4.9274,6.1936,6.7736
			c2.7632,1.8472,6.2539,3.0835,10.4721,3.7124C235.4984,211.0032,237.9423,211.1202,240.4316,211.0289z"/>
		<path fill="#56C0EE" d="M341.1557,198.2119c-2.0906,0-4.0628-0.3055-5.8605-0.9075c-2.1435-0.7157-3.9053-2.0802-5.2345-4.0579
			c-1.3155-1.952-2.042-4.7324-2.1573-8.2608c-0.056-3.0122,0.4748-6.3232,1.5757-9.8583c1.067-3.3165,2.3952-6.5841,3.9518-9.7212
			c2.907-5.9196,5.1097-9.1783,6.9285-10.2507c0.8841-0.5072,1.7554-0.7782,2.6003-0.8093l0.1713-0.0033
			c0.9507,0,1.7935,0.2955,2.5052,0.8774c0.8015,0.6588,1.2458,1.6221,1.2838,2.7847c0.0286,0.8317-0.1734,1.7224-0.6176,2.7224
			l-0.0264,0.0591l-0.0327,0.0557c-1.3049,2.2285-2.705,4.8617-4.16,7.826c-1.4499,2.9554-2.7008,5.9955-3.7181,9.0367
			c-0.9962,2.9621-1.4614,5.6365-1.3852,7.9498c0.1185,3.5897,1.8115,5.4426,5.3286,5.8305
			c0.7032,0.0669,1.4392,0.1015,2.1689,0.1015c0.2876,0,0.5753-0.0056,0.865-0.0157c5.8478-0.2162,12.4507-2.4537,19.6245-6.6499
			c5.4957-3.2241,11.0474-7.2318,16.5008-11.9118c1.7131-1.4861,3.6409-3.1895,5.7802-5.1092c0.736-0.67,1.6476-1.0323,2.705-1.0714
			l0.1607-0.0033c1.8485,0,1.9849,1.35,1.9934,1.6209l0.0084,0.2497l-0.3416,0.8551l-0.1132,0.1371
			c-1.1843,1.4382-3.3226,3.5295-6.5373,6.3946c-3.1724,2.8261-7.029,5.8438-11.463,8.9676
			c-4.4593,3.1448-9.2803,5.9676-14.3267,8.3923c-5.0949,2.4471-10.2088,3.9955-15.2001,4.6019l-2.1139,0.1505
			C341.7067,198.2074,341.4296,198.2119,341.1557,198.2119z M348.3507,150.7909c-1.8675,0-3.2211-0.437-4.1368-1.3367
			c-0.9264-0.912-1.4181-2.0435-1.4615-3.3634c-0.0392-1.1845,0.2432-2.4019,0.8385-3.6187
			c0.5826-1.1873,1.3801-2.2051,2.3719-3.025c1.0522-0.8734,2.2334-1.3406,3.5119-1.3868l0.1734-0.0033
			c1.0268,0,2.0812,0.3356,3.1344,0.9978c1.3716,0.9113,2.1118,2.1911,2.1614,3.7157c0.0424,1.2698-0.3235,2.5446-1.0849,3.7882
			c-0.7106,1.1577-1.5544,2.1366-2.5083,2.9103c-1.0543,0.8561-1.9912,1.2887-2.8647,1.321L348.3507,150.7909z"/>
		<path fill="#56C0EE" d="M341.9478,197.0558c-2.2926,0.0847-4.4011-0.1951-6.3248-0.8394
			c-1.9246-0.6422-3.4843-1.8528-4.6793-3.6298c-1.1971-1.777-1.8495-4.3244-1.9585-7.6398
			c-0.0529-2.8807,0.4547-6.0345,1.5228-9.4626c1.05-3.2653,2.3444-6.4492,3.882-9.5484c2.7442-5.5874,4.9109-8.8483,6.4981-9.7836
			c0.7297-0.4192,1.4329-0.6399,2.1107-0.6656c0.7646-0.0278,1.4212,0.1839,1.9733,0.6355c0.551,0.4527,0.8387,1.0936,0.8661,1.923
			c0.0223,0.6444-0.1512,1.3768-0.5161,2.1973c-1.325,2.262-2.7251,4.8951-4.2002,7.9007
			c-1.4751,3.0056-2.7357,6.0646-3.7784,9.1828c-1.0469,3.1148-1.527,5.9063-1.4455,8.3689
			c0.1375,4.1683,2.2355,6.477,6.2972,6.9252c1.0532,0.1004,2.1139,0.1305,3.1841,0.0915
			c6.0498-0.223,12.7542-2.4871,20.1131-6.7926c5.576-3.2709,11.1288-7.2787,16.6583-12.0244
			c1.7216-1.4927,3.6546-3.2007,5.7992-5.1248c0.552-0.5028,1.233-0.7704,2.0409-0.8004c0.6768-0.0246,1.0226,0.1483,1.0341,0.515
			l-0.1819,0.456c-1.1356,1.379-3.275,3.4693-6.4188,6.2708c-3.1438,2.8004-6.9318,5.7659-11.3658,8.8906
			c-4.434,3.126-9.1588,5.8929-14.1744,8.3021c-5.0166,2.4102-9.9741,3.9119-14.8744,4.5072L341.9478,197.0558z M348.448,149.6494
			c-1.619,0.0145-2.7832-0.3299-3.496-1.0301c-0.7106-0.7001-1.0839-1.5552-1.1177-2.5685
			c-0.0327-0.9899,0.2062-2.0078,0.719-3.0546c0.5118-1.0435,1.2034-1.9275,2.0779-2.6511
			c0.8714-0.7235,1.8326-1.1059,2.8806-1.1438c0.8724-0.0323,1.7797,0.2452,2.7166,0.8339c1.0512,0.699,1.5957,1.6243,1.6338,2.7748
			c0.0339,1.0367-0.2697,2.0791-0.9126,3.1293c-0.644,1.0491-1.3969,1.9253-2.2588,2.6242
			C349.828,149.2648,349.0804,149.626,348.448,149.6494z"/>
		<path fill="#56C0EE" d="M381.4252,195.2899c-0.8332,0-1.5946-0.2531-2.264-0.7514c-0.8058-0.6009-1.2372-1.6299-1.2837-3.0591
			c-0.0359-1.0624,0.1999-2.3879,0.7191-4.0512c0.3935-1.1394,0.8407-2.3411,1.3409-3.6064
			c0.4875-1.2375,0.9697-2.5284,1.4455-3.8696c2.0145-5.7379,5.1235-13.2607,9.2381-22.3554l1.1315-2.4972
			c1.0384-2.3166,2.5242-2.8505,3.588-2.8896l0.1343-0.0033c0.939,0,1.7819,0.3601,2.5041,1.0702
			c0.7581,0.7469,1.1601,1.69,1.196,2.8049c0.0243,0.7213-0.1502,1.4738-0.5213,2.2353l-5.1572,12.2886
			c2.3909-3.7592,4.9606-7.6622,7.6709-11.6488c3.7213-5.4681,7.2268-9.8126,10.4183-12.9129
			c1.8517-1.7218,3.6324-3.0835,5.3116-4.064c1.7628-1.0318,3.3945-1.5814,4.8495-1.6343l0.2084-0.0039
			c1.5926,0,2.9122,0.6678,3.9211,1.985c0.994,1.296,1.5238,3.2826,1.6158,6.0729c0.1227,3.6911-0.6556,8.8483-2.3782,15.769
			c-1.7808,7.078-2.632,12.2452-2.5284,15.36c0.1183,3.5685,1.2742,3.5685,1.6549,3.5685c0.9306-0.0334,2.5051-0.5641,5.1213-2.9141
			c2.2493-2.0178,4.6444-4.5841,7.1199-7.6264c2.483-3.0557,4.8802-6.2619,7.1231-9.5272c2.2375-3.2653,4.1252-6.2252,5.6099-8.7959
			c0.1776-0.292,0.3236-0.5608,0.4505-0.8306c0.1153-0.2085,0.184-0.3322,0.2464-0.456c0.0677-0.1304,0.1226-0.2386,0.166-0.3322
			c0.0751-0.1516,0.1544-0.301,0.2559-0.4716c0.1406-0.2419,0.35-0.486,0.6545-0.7625c0.7837-0.8004,1.6529-1.2452,2.539-1.2775
			l0.1153-0.0023c0.8354,0,1.6052,0.3378,2.226,0.9788c0.6366,0.6589,0.9898,1.5217,1.0205,2.4972
			c0.0306,0.864-0.2189,1.7681-0.7403,2.6867l-4.9965,9.7904c1.1717-1.3568,2.3677-2.7091,3.5859-4.0523
			c3.5563-3.9253,7.1506-7.5752,10.6837-10.8517c3.5626-3.3043,6.9476-6.0233,10.0597-8.0829
			c3.275-2.1661,5.9926-3.2608,8.3054-3.3455l0.2612-0.0051c2.4554,0,5.4249,1.3133,5.631,7.5685
			c0.1333,3.9877-0.9274,9.8148-3.2401,17.817c-1.5999,5.6677-2.3635,10.0178-2.2683,12.9207
			c0.1459,4.3912,1.8834,4.9543,3.3808,4.9543l0.1925-0.0033c1.5841-0.058,3.496-0.748,5.6828-2.0512
			c2.2841-1.3634,4.6349-3.116,6.9878-5.2095c2.373-2.1071,4.6021-4.3656,6.625-6.7135c2.0103-2.3299,3.6483-4.573,4.8665-6.6677
			l0.1025-0.1773l0.1554-0.1271c0.4177-0.3434,0.902-0.5273,1.4392-0.5463c0.0043,0,0.0084,0,0.0138,0
			c0.5223,0,0.9274,0.1003,1.3018,0.2988c0.5964,0.3144,0.9517,0.8551,0.974,1.4816c0.0105,0.3858-0.1058,0.7559-0.3373,1.0802
			c-0.9813,1.4448-2.4798,3.4213-4.4392,5.8517c-5.059,6.2018-10.2554,11.0054-15.4496,14.2852
			c-3.2495,2.0257-6.5278,3.1349-9.7488,3.302c-0.2538,0.0089-0.4886,0.0134-0.718,0.0134c-2.1086,0-3.8651-0.3835-5.2207-1.1404
			c-1.5461-0.8606-2.6796-2.1036-3.3702-3.6945c-0.6482-1.4871-1.011-3.2274-1.0755-5.1705
			c-0.0613-1.8484,0.0899-3.8651,0.4494-5.9966c0.3501-2.0825,0.8048-4.2307,1.3536-6.3867
			c0.5361-2.1092,1.0976-4.2151,1.6697-6.2608c0.6788-2.349,1.2584-4.5172,1.7269-6.4548c0.4431-1.8383,0.6493-3.3434,0.6122-4.4737
			c-0.0444-1.3216-0.4304-1.3216-0.7117-1.3216c-0.7805,0.0278-2.3391,0.5367-5.631,2.8088
			c-3.3173,2.349-7.8073,6.3155-13.3326,11.7836c-5.52,5.4615-10.6614,11.3689-15.2794,17.5572
			c-0.9528,1.3734-1.7945,2.7592-2.4819,4.0869c-0.7074,1.3612-1.3271,2.6422-1.8422,3.8083
			c-0.6842,1.602-1.3535,2.9353-1.9838,3.9475c-0.8047,1.2932-1.7977,1.9688-2.9524,2.0089
			c-2.9948-0.0257-3.3839-2.1694-3.4135-3.0903c-0.0349-1.0457,0.222-2.2843,0.7837-3.787c0.5013-1.3444,1.1241-2.8517,1.8505-4.476
			c0.5203-1.1973,1.0437-2.4426,1.5651-3.7224c0.275-0.6801,0.5583-1.3668,0.8491-2.0591
			c-0.4336,0.5329-0.8713,1.0613-1.3123,1.5875c-2.5792,3.0735-5.1637,5.6866-7.6804,7.7669
			c-2.6225,2.1649-5.0801,3.3813-7.304,3.6153l-0.6609,0.0256c-0.1798,0.0067-0.3564,0.0101-0.5288,0.0101
			c-1.583,0-2.8245-0.2754-3.7952-0.8416c-2.2493-1.3656-3.459-4.3701-3.6091-8.9386c-0.0931-2.7993,0.2051-5.9442,0.8862-9.3499
			c0.6641-3.3289,1.4159-6.6298,2.2344-9.8115c0.5954-2.4158,1.1082-4.6377,1.5228-6.5919c0.4029-1.903,0.5869-3.4592,0.5489-4.6265
			c-0.0424-1.2608-0.3617-1.2608-0.4674-1.2608c-0.3744,0.0134-1.4583,0.263-4.103,2.3043
			c-2.2334,1.9174-5.447,5.8639-9.5056,11.6966c-4.0987,5.8885-8.0875,12.0133-11.8553,18.2049
			c-3.753,6.1672-6.3618,10.7624-7.7555,13.6565c-0.3003,0.6132-0.8247,1.1026-1.6074,1.5039
			c-0.6958,0.3545-1.4318,0.5473-2.1922,0.5753L381.4252,195.2899z"/>
		<path fill="#56C0EE" d="M381.5427,194.1461c-0.6556,0.0245-1.2415-0.1561-1.7565-0.5396
			c-0.5171-0.3858-0.7921-1.1059-0.8269-2.1661c-0.0307-0.9197,0.1924-2.1394,0.6662-3.6555
			c0.3786-1.097,0.8163-2.2731,1.3113-3.524c0.4927-1.2508,0.9803-2.5552,1.4604-3.9096
			c2.0177-5.7458,5.0854-13.1659,9.2011-22.2628l1.1315-2.4972c0.6514-1.4526,1.5344-2.1995,2.649-2.2408
			c0.6979-0.0256,1.3186,0.2274,1.8622,0.7614c0.5414,0.534,0.8259,1.204,0.8523,2.0089c0.018,0.5307-0.1174,1.088-0.4029,1.6745
			l-10.2458,24.4111c1.2488-1.9141,2.7241-4.2274,4.4276-6.9409c3.092-5.0011,6.4844-10.2151,10.175-15.6431
			c3.6917-5.4247,7.1147-9.6722,10.2722-12.739c1.7819-1.6567,3.4822-2.9587,5.1022-3.9052c1.62-0.9476,3.073-1.4448,4.3621-1.4916
			c1.3324-0.0491,2.4153,0.4682,3.2496,1.5574c0.8343,1.087,1.2933,2.8862,1.3769,5.3957
			c0.1173,3.5462-0.6641,8.6922-2.3434,15.4391c-1.8157,7.214-2.6711,12.4436-2.5633,15.6899
			c0.1047,3.1772,1.0532,4.7335,2.8446,4.6677c1.5069-0.0557,3.4124-1.116,5.7156-3.1839c2.3053-2.068,4.7185-4.6532,7.2395-7.7535
			c2.521-3.1014,4.9131-6.3021,7.1781-9.6008c2.2619-3.2999,4.1484-6.2563,5.6585-8.8706c0.1861-0.3065,0.351-0.612,0.4949-0.9176
			c0.0814-0.1416,0.1597-0.2831,0.2316-0.4247c0.0719-0.1394,0.1343-0.262,0.1841-0.369c0.0518-0.1048,0.1185-0.2286,0.2019-0.3701
			c0.0826-0.1416,0.2295-0.3077,0.442-0.5005c0.6345-0.6466,1.2584-0.9799,1.8696-1.0023c0.5901-0.0211,1.105,0.1962,1.5471,0.6521
			c0.441,0.456,0.6737,1.0301,0.6958,1.7202c0.0222,0.6455-0.1745,1.3334-0.5879,2.0613l-9.6409,18.8906
			c3.0836-3.9398,6.3977-7.8662,9.9424-11.778c3.5447-3.9108,7.0819-7.505,10.616-10.7825c3.532-3.2753,6.8387-5.9342,9.9201-7.9732
			c3.0815-2.0379,5.6712-3.0947,7.7682-3.1717c3.035-0.1126,4.6264,2.0412,4.7724,6.4626
			c0.1269,3.8228-0.9379,9.6376-3.1946,17.4435c-1.6433,5.8227-2.4142,10.2552-2.3138,13.2941
			c0.1375,4.1449,1.7004,6.1616,4.6931,6.0512c1.7691-0.0646,3.828-0.7982,6.1777-2.1984c2.3465-1.4003,4.7322-3.1761,7.1527-5.33
			c2.4227-2.1516,4.6645-4.4236,6.7287-6.8183c2.0631-2.3913,3.7265-4.6711,4.9881-6.8394
			c0.2348-0.1928,0.5044-0.2955,0.8111-0.3065c0.2834-0.0101,0.5477,0.0491,0.792,0.1783c0.2454,0.1293,0.3712,0.2976,0.3785,0.5051
			c0.0032,0.116-0.037,0.233-0.1205,0.35c-0.9803,1.4426-2.4459,3.3757-4.399,5.7993c-5.0018,6.1314-10.0629,10.8137-15.181,14.0444
			c-3.1068,1.9364-6.1883,2.9833-9.2455,3.1415c-2.2492,0.0836-4.0417-0.2487-5.3794-0.9955
			c-1.3367-0.7447-2.301-1.7993-2.8922-3.1605c-0.5932-1.3612-0.9178-2.9398-0.9781-4.7358
			c-0.0582-1.7725,0.0857-3.6911,0.4335-5.7569c0.3468-2.0647,0.792-4.1627,1.3334-6.2909
			c0.5414-2.1305,1.0956-4.2062,1.6624-6.2329c0.6873-2.3779,1.2658-4.5429,1.7375-6.4971
			c0.4716-1.9532,0.6863-3.5518,0.6451-4.7948c-0.055-1.6577-0.6841-2.4649-1.8844-2.4214
			c-1.2679,0.0468-3.311,1.0458-6.1333,2.9933c-3.3976,2.4058-7.8909,6.3756-13.4807,11.9062
			c-5.5909,5.5317-10.7196,11.4268-15.3894,17.6843c-1.0015,1.4436-1.8633,2.8584-2.5813,4.2452
			c-0.7202,1.3868-1.344,2.6766-1.8728,3.8729c-0.6705,1.5697-1.306,2.8372-1.9077,3.8048
			c-0.6027,0.9677-1.2965,1.466-2.0832,1.4939c-1.4879-0.0134-2.2524-0.6778-2.2957-1.9899
			c-0.0286-0.8751,0.2072-1.9843,0.7096-3.3277c0.5012-1.3456,1.1093-2.8138,1.8221-4.408c0.5288-1.2174,1.0554-2.4704,1.581-3.758
			c1.4351-3.5563,3.0836-7.2486,4.9479-11.0746c-2.2556,3.2173-4.6613,6.35-7.2173,9.3945
			c-2.5559,3.0468-5.0695,5.5863-7.5377,7.6253c-2.4703,2.0402-4.7163,3.1649-6.7435,3.3779l-0.5901,0.0211
			c-1.6169,0.0602-2.871-0.1694-3.7625-0.69c-1.8972-1.1516-2.9144-3.8116-3.0518-7.9798c-0.0899-2.7157,0.1977-5.7425,0.864-9.0746
			c0.6652-3.3322,1.4053-6.5808,2.2196-9.748c0.5964-2.418,1.1093-4.6332,1.5344-6.6421c0.4261-2.0112,0.6165-3.6488,0.5742-4.9152
			c-0.0529-1.6109-0.5922-2.3991-1.619-2.3612c-0.9824,0.0368-2.5411,0.8785-4.673,2.5239
			c-2.3603,2.0234-5.6067,6.0044-9.7393,11.9419c-4.1336,5.9398-8.097,12.0267-11.8934,18.264
			c-3.7953,6.2374-6.3977,10.8238-7.8094,13.7569c-0.1851,0.3768-0.5573,0.7068-1.1157,0.9933
			C382.7386,193.9699,382.1528,194.1238,381.5427,194.1461z"/>
		<path fill="#56C0EE" d="M519.4623,194.7057l-0.2104,0.0011c-4.8792,0-8.9948-1.35-12.2328-4.01
			c-3.3353-2.7402-5.2324-6.4737-5.6416-11.098l-0.0201-0.5842c-0.0941-2.8116,0.5531-5.8773,1.9225-9.1125
			c1.3377-3.1605,3.1851-6.3333,5.4914-9.4291c2.299-3.0825,4.9341-5.9453,7.8338-8.5094c2.9144-2.5752,5.9948-4.6978,9.1555-6.3087
			c3.2158-1.6394,6.3796-2.5267,9.403-2.6382c0.1914-0.0067,0.3807-0.0106,0.57-0.0106c0.8788,0,1.7555,0.077,2.6067,0.2274
			c1.876,0.3701,3.3342,1.0262,4.3547,1.9532c0.9412,0.8947,1.4298,1.9431,1.4698,3.1338l-0.0148,0.7525l-0.017,0.0936
			c-0.7762,4.2441-4.8981,8.4804-12.603,12.9519c-5.41,3.1504-11.8616,6.2753-19.1793,9.2897
			c-0.4525,0.5507-1.0702,1.7547-1.6581,4.3823l-0.0254,0.1115l-0.0455,0.1037c-0.3098,1.1383-0.4653,2.2341-0.4346,3.1684
			l0.0095,0.3144c0.3468,2.7882,1.2679,4.9554,2.7304,6.3333c2.2979,2.2218,5.3687,3.3434,9.1408,3.3434
			c0.2464,0,0.496-0.0045,0.7487-0.0134l0.9475-0.0691c6.4305-0.7279,12.384-2.5797,17.6534-5.4983
			c5.2927-2.9375,9.9962-6.5261,13.9798-10.6676c4.0004-4.1594,7.3441-8.4904,9.9381-12.8717l0.0402-0.068l0.0497-0.0613
			c0.389-0.4894,0.9316-0.7592,1.5682-0.7803c0.001,0,0.0021,0,0.0042,0c0.6461,0,1.1644,0.291,1.4848,0.7993
			c0.2401,0.3879,0.3669,0.8038,0.3807,1.243c0.0128,0.3612-0.0475,0.7001-0.1808,1.0033l-0.0603,0.1382l-0.093,0.117
			c-0.3235,0.4092-0.8038,1.1237-1.4244,2.1249c-0.9464,1.5563-2.3127,3.553-4.0543,5.9264
			c-4.3854,6.0256-10.3442,11.4782-17.7095,16.2039c-7.4034,4.5373-14.2547,7.1382-20.3839,7.7424
			c-1.4952,0.1494-2.6607,0.2375-3.5638,0.2698c-0.332,0.0134-0.6239,0.019-0.8734,0.019
			C520.3527,194.7225,519.4623,194.7057,519.4623,194.7057z M537.2945,148.1656c-1.3399,0.117-3.9593,1.0825-8.941,4.8383
			c-3.2316,2.5072-6.1831,5.1728-8.7632,7.913c-1.1759,1.2497-2.153,2.369-2.925,3.3511c1.2764-0.5908,2.8193-1.3624,4.6201-2.3099
			c3.6948-1.9408,7.2468-4.2162,10.5577-6.7625c4.1063-3.2542,5.2314-5.2117,5.4503-6.2776
			c0.0359-0.1918,0.0529-0.3835,0.0477-0.5507C537.3378,148.2882,537.324,148.2246,537.2945,148.1656z"/>
		<path fill="#56C0EE" d="M521.3562,193.563c-0.5245,0.0201-0.94,0.0223-1.2457,0.0112c-0.3077-0.0112-0.5256-0.0145-0.6568-0.01
			c-4.7448,0.0368-8.668-1.2197-11.7696-3.7681s-4.8463-5.9821-5.2282-10.3031l-0.0169-0.5173
			c-0.0877-2.6476,0.5213-5.5172,1.8294-8.6086c1.308-3.0914,3.0931-6.1538,5.354-9.1884c2.262-3.0334,4.821-5.8137,7.6783-8.3399
			c2.8572-2.525,5.834-4.5774,8.9314-6.156c3.0963-1.5786,6.0869-2.4192,8.9695-2.525c1.0046-0.0368,1.9902,0.0301,2.9589,0.2018
			c1.6719,0.3299,2.9493,0.894,3.828,1.6923c0.7001,0.6656,1.0649,1.4359,1.0945,2.3099l-0.0138,0.5886
			c-0.7043,3.8539-4.7237,7.9096-12.0615,12.1682c-5.4503,3.1738-11.8745,6.2797-19.2746,9.3187
			c-0.8249,0.8395-1.5228,2.5351-2.0948,5.0914l-0.0306,0.0702c-0.3701,1.3512-0.5372,2.5573-0.5023,3.6153l0.0095,0.311
			c0.3902,3.1895,1.4191,5.5729,3.091,7.1482c2.6649,2.5774,6.2147,3.7826,10.6488,3.6187l0.9824-0.0702
			c6.644-0.7513,12.6716-2.6287,18.0838-5.6276c5.4111-3.0022,10.1559-6.622,14.2366-10.865
			c4.0787-4.2407,7.4447-8.6008,10.0967-13.0801c0.1884-0.2363,0.4463-0.3624,0.774-0.3734c0.2401-0.0089,0.4241,0.088,0.552,0.291
			c0.1259,0.2029,0.1936,0.4203,0.2009,0.6499c0.0063,0.1851-0.0211,0.3467-0.0826,0.4872
			c-0.3575,0.4504-0.8576,1.1962-1.5005,2.233c-0.9337,1.534-2.2682,3.4861-4.0046,5.8528
			c-4.3293,5.9475-10.1359,11.2551-17.4155,15.9263c-7.2861,4.4648-13.9269,6.9899-19.9218,7.5808
			C523.4183,193.4404,522.2509,193.5307,521.3562,193.563z M513.8375,166.6257c1.5153-0.4482,4.1601-1.6621,7.9311-3.6466
			c3.774-1.9822,7.3431-4.2697,10.7131-6.8616c3.5363-2.8027,5.4936-5.1225,5.8701-6.9587c0.056-0.3009,0.0793-0.5786,0.0709-0.8317
			c-0.0116-0.3456-0.1141-0.6533-0.3098-0.923c-0.1935-0.2698-0.4219-0.3991-0.6841-0.3902
			c-2.0969,0.078-5.3328,1.7648-9.7054,5.0612c-3.3057,2.5652-6.273,5.2452-8.9018,8.0378
			C516.1904,162.9079,514.5291,165.0784,513.8375,166.6257z"/>
		<path fill="#56C0EE" d="M573.8173,210.2997c-2.8298,0-5.0389-1.1069-6.5626-3.292c-0.9728-1.3678-1.4974-2.8951-1.5513-4.5294
			l-0.0665-0.9967c-0.0529-1.5931,0.3584-3.3745,1.2192-5.3355c0.8207-1.8662,1.9585-3.8874,3.3828-6.0078
			c1.3969-2.0814,2.8627-4.1516,4.3568-6.1527c1.7078-2.2587,3.1714-4.3411,4.3536-6.1962
			c1.3207-2.0758,1.5735-3.2297,1.5534-3.8317c-0.129-1.0847-0.9857-2.0133-2.6141-2.7414
			c-8.2874-3.321-13.653-6.2842-16.3654-9.0457c-1.3694-1.3947-2.2778-2.8093-2.7008-4.2073
			c-0.3954-1.3121-0.6207-2.7045-0.6683-4.1393c-0.0687-2.0512,0.3521-4.0379,1.252-5.9063
			c0.8651-1.8032,2.0208-3.433,3.4346-4.8411c1.3969-1.3907,2.9323-2.5168,4.563-3.3462c1.6644-0.8489,3.2814-1.3072,4.8041-1.3629
			l0.1015-0.0033l2.4459,0.3985l0.0983,0.0374c1.0881,0.4136,1.9838,1.1204,2.6637,2.102c0.6789,0.9833,1.048,2.2386,1.0976,3.7313
			c0.0465,1.3835-0.2527,3.0111-0.8882,4.8383c-0.6155,1.7726-1.6719,3.7837-3.1396,5.9765
			c-1.2393,1.8495-2.852,3.8607-4.8051,5.9922c2.594,1.437,5.0843,2.6588,7.4202,3.6398c2.0896,0.9265,3.9708,1.8417,5.6099,2.728
			c1.7247,0.9342,3.129,2.0222,4.177,3.2341c1.1399,1.3177,1.7501,2.952,1.8125,4.8561c0.0402,1.2085-0.4039,2.7035-1.3579,4.5696
			c-0.8618,1.6879-1.9689,3.5685-3.2908,5.5863c-1.3198,2.01-2.6659,4.01-4.0026,5.9454c-1.5207,2.1872-2.8521,4.1817-3.9592,5.933
			c-1.2563,1.9899-1.5735,2.8974-1.6433,3.2831l-0.0043,0.7748c0.0074,0.1783,0.0328,0.4225,0.0784,0.6879
			c0.0264,0.1572,0.0783,0.291,0.1596,0.4125c0.1027,0.1539,0.1861,0.2241,0.239,0.2564c0.1577,0.097,0.2633,0.1371,0.3246,0.1539
			c0.1185,0.0312,0.1723,0.0312,0.1745,0.0312l0.092-0.0033c1.0587-0.2597,3.1829-1.4861,7.3484-5.7502
			c3.5669-3.6532,7.5175-8.1326,11.7422-13.3109c4.2448-5.2018,8.3022-10.3711,12.0583-15.3644
			c3.7488-4.9844,6.7128-9.0277,8.812-12.0178l0.0771-0.0981c0.6197-0.7023,1.2626-0.8673,1.692-0.8818c0.0032,0,0.0065,0,0.0085,0
			c0.5086,0,0.9063,0.1226,1.2616,0.3645c0.4907,0.3411,0.7676,0.8339,0.7867,1.3912l0.0085,0.2419l-0.2516,0.6622l-3.257,4.9264
			c-2.1372,3.2241-4.9056,7.2664-8.2303,12.0155c-3.3321,4.758-6.9169,9.6376-10.653,14.5049
			c-3.7635,4.8996-7.3959,9.1928-10.7936,12.7613c-3.55,3.7224-6.4338,5.9375-8.8194,6.7736
			c-1.1526,0.3311-2.2006,0.5084-3.1734,0.544C574.0901,210.2976,573.9528,210.2997,573.8173,210.2997z M570.8542,147.0301
			l-0.5298,0.0518c-1.5873,0.2475-2.7673,1.0023-3.55,2.2999c-0.8427,1.3947-1.2234,2.9264-1.1652,4.6867
			c0.0349,1.0491,0.2347,2.1036,0.5922,3.1338c0.2051,0.5919,0.4706,1.1572,0.792,1.6901c1.3748-1.7971,2.5273-3.6532,3.4337-5.5362
			c1.0458-2.1728,1.5544-3.9197,1.5132-5.1906c-0.0328-0.9733-0.331-1.1376-0.9866-1.1376L570.8542,147.0301z"/>
		<path fill="#56C0EE" d="M574.1906,209.1516c-2.6659,0.0981-4.6846-0.8439-6.0635-2.8205
			c-0.8481-1.1918-1.2954-2.4883-1.3419-3.893l-0.0676-1.0346c-0.0454-1.3813,0.329-2.9744,1.1208-4.7781
			c0.7941-1.806,1.8876-3.748,3.2845-5.8272c1.3949-2.0791,2.8372-4.1159,4.324-6.107c1.7395-2.2999,3.2063-4.3902,4.4012-6.2652
			c1.1949-1.8785,1.7744-3.3801,1.7363-4.5083c-0.184-1.6053-1.2742-2.8584-3.2728-3.7524
			c-8.1118-3.2508-13.4573-6.1906-16.0366-8.8159c-1.2446-1.2676-2.0515-2.5128-2.4205-3.7325
			c-0.368-1.2185-0.5742-2.4972-0.6187-3.8327c-0.0623-1.8651,0.3162-3.6476,1.1357-5.3489
			c0.8164-1.7023,1.8897-3.2107,3.2126-4.5284c1.3219-1.3154,2.7527-2.3656,4.2901-3.1483
			c1.5375-0.7838,2.9937-1.1995,4.3705-1.2497l2.2418,0.3657c0.8862,0.3367,1.6042,0.9041,2.1561,1.7012
			c0.552,0.7993,0.8481,1.8316,0.8903,3.098c0.0413,1.243-0.2336,2.7112-0.8227,4.4047c-0.5879,1.6923-1.5925,3.5964-3.0085,5.7123
			c-1.417,2.1148-3.3195,4.4281-5.7072,6.9364c3.0984,1.777,6.0328,3.2486,8.8066,4.4136c2.0632,0.9153,3.9021,1.8105,5.5168,2.6834
			c1.6147,0.8751,2.9049,1.8706,3.8703,2.9877c0.9676,1.1181,1.4773,2.4927,1.5312,4.127c0.0328,0.9911-0.3765,2.32-1.2288,3.9877
			c-0.8523,1.6689-1.9299,3.495-3.2296,5.4793c-1.3018,1.9843-2.6299,3.9587-3.9867,5.9219
			c-1.545,2.2229-2.8731,4.2151-3.9845,5.972c-1.1103,1.7592-1.7194,3.0323-1.8251,3.8205l-0.0043,0.8651
			c0.0096,0.2754,0.0402,0.573,0.0952,0.8952c0.054,0.3199,0.1682,0.6109,0.3415,0.8695c0.1713,0.2576,0.3649,0.4527,0.5764,0.5831
			c0.2126,0.1304,0.4114,0.2218,0.5984,0.2731c0.1883,0.0491,0.3478,0.0725,0.4791,0.068l0.1967-0.0078
			c1.7142-0.3634,4.3694-2.3857,7.9659-6.068c3.5954-3.6834,7.5323-8.1437,11.8088-13.3856
			c4.2764-5.2397,8.3043-10.3723,12.0859-15.4001c3.7805-5.0267,6.7244-9.0422,8.834-12.0478
			c0.2939-0.3334,0.6059-0.5072,0.9337-0.5184c0.2401-0.0089,0.4558,0.0524,0.6471,0.1828
			c0.1893,0.1315,0.2866,0.2899,0.2928,0.4738l-0.1205,0.3166l-3.1862,4.8193c-2.1455,3.2374-4.8834,7.2341-8.2134,11.9909
			c-3.3311,4.7558-6.8713,9.5773-10.6234,14.4647c-3.754,4.8862-7.3262,9.1103-10.7164,12.6699
			c-3.3933,3.5596-6.1903,5.7268-8.3963,6.4994C576.0423,208.9553,575.0853,209.1181,574.1906,209.1516z M566.9448,160.7285
			c1.8294-2.2118,3.311-4.495,4.4476-6.855c1.1346-2.3578,1.6782-4.2742,1.6295-5.7479c-0.0518-1.5418-0.7867-2.2887-2.206-2.2363
			l-0.5889,0.0557c-1.9585,0.3032-3.4146,1.2452-4.3663,2.8249c-0.955,1.5797-1.399,3.3589-1.3335,5.3389
			c0.0391,1.1739,0.258,2.3366,0.6567,3.486C565.5839,158.7429,566.1707,159.7886,566.9448,160.7285z"/>
		<path fill="#56C0EE" d="M613.1668,201.0858l-0.0941-0.029c-1.3525-0.4203-2.4755-1.5351-3.3383-3.3111
			c-0.7975-1.6387-1.2299-3.3099-1.2849-4.9676c0.0592-1.8896,0.6239-4.0123,1.6782-6.3913
			c1.0246-2.3144,2.244-4.4236,3.6219-6.2652c1.4931-1.9966,2.8668-3.1438,4.2002-3.5061l0.1153-0.0313l0.4473-0.0134
			c1.2891,0,2.7261,0.6745,4.3917,2.0602c1.7005,1.4192,2.7241,3.0791,3.0435,4.9342l0.0412,0.2441l-0.0571,0.2396
			c-0.3628,1.5095-0.9719,3.2241-1.8114,5.097c-0.8312,1.8528-1.8135,3.6811-2.9197,5.4358
			c-1.1198,1.7725-2.2936,3.2809-3.4896,4.4838c-1.3535,1.3612-2.6078,2.0446-3.8323,2.0891l-0.0771,0.0033L613.1668,201.0858z
			 M621.7524,169.6357c-1.0743,0-2.5854-0.4058-3.6799-2.3378c-0.7878-1.3912-1.2181-3.0557-1.2817-4.9464l0.0402-1.7993
			c0.5065-4.8617,2.4978-9.7156,5.9239-14.5261c3.3448-4.695,7.6244-9.4916,12.7182-14.2562
			c5.0653-4.7313,10.5092-9.5623,16.1815-14.3588c5.9525-5.0401,11.6998-10.1666,17.0814-15.2362
			c5.3561-5.0434,9.8895-10.2028,13.4732-15.3348c3.5119-5.0278,5.5792-10.1537,6.1461-15.2345l0.0603-1.8467
			c-0.0613-1.7731-0.4844-3.2814-1.2574-4.4024c-0.7867-1.1394-1.8178-1.9426-3.1502-2.4559
			c-1.2404-0.4782-2.651-0.7202-4.1938-0.7202c-0.1883,0-0.3796,0.0033-0.5721,0.0106c-6.5034,0.3512-12.7267,2.5374-18.4793,6.4983
			c-5.6141,3.874-10.799,9.1928-15.4083,15.8069c-4.6338,6.651-8.704,14.4742-12.0964,23.2523
			c-0.5107,1.1031-1.343,1.6918-2.374,1.7302c-0.0032,0-0.0065,0-0.0085,0c-0.7571,0-1.4255-0.2414-2.0842-0.7152
			c-0.6588-0.4726-1.2214-1.2129-1.6707-2.199c-0.4294-0.9459-0.6705-2.1427-0.717-3.5601
			c-0.1829-5.5322,2.6331-12.6788,8.6078-21.8492c5.3985-8.0368,11.7887-14.6052,19.0027-19.5349
			c7.2532-4.9543,14.2357-7.7441,20.7528-8.2914l0.4409-0.0173c0.3649-0.0134,0.7253-0.0201,1.0818-0.0201
			c2.9915,0,5.7294,0.4805,8.1373,1.4275c2.7696,1.0914,4.9987,2.8958,6.6262,5.3628c1.622,2.4548,2.5104,5.6845,2.6393,9.5986
			c0.0444,1.3037,0,2.7157-0.1311,4.1962c-0.5086,5.0301-2.0536,10.0183-4.5916,14.8416
			c-2.5021,4.7591-5.7315,9.5005-9.5987,14.0919c-3.829,4.5446-8.0737,9.0511-12.6146,13.3956
			c-4.5017,4.3043-9.1218,8.5724-13.7302,12.6844c-4.8782,4.3516-9.4696,8.6175-13.6499,12.6793
			c-4.1464,4.0289-7.6127,7.9598-10.305,11.6821c-2.6141,3.6153-4.1665,7.0813-4.6138,10.302l-0.0042,0.0859
			c0.2516,0.039,0.4991,0.0591,0.7392,0.0591l0.1713-0.0033c0.1522-0.0056,0.4229-0.0646,0.8523-0.3088
			c0.4653-0.2686,0.8481-0.5017,1.1443-0.6979c0.499-0.3344,0.735-0.4727,1.0575-0.4894l1.5607-0.0781l-0.4779,1.5674
			c-0.2273,0.748-0.7222,1.5519-1.5112,2.4571c-0.735,0.8439-1.6084,1.6153-2.596,2.2954
			c-1.0818,0.7458-2.1732,1.1449-3.2433,1.1839L621.7524,169.6357z"/>
		<path fill="#56C0EE" d="M613.8405,200.0145l-0.4611-0.0524c-1.0606-0.33-1.9553-1.2419-2.6817-2.7369
			c-0.7275-1.495-1.1167-2.9911-1.1664-4.4871c0.055-1.6611,0.5804-3.6176,1.5778-5.8672c0.9962-2.2508,2.1604-4.2641,3.4908-6.0423
			c1.3292-1.7781,2.5358-2.8127,3.6196-3.107l0.1967-0.0067c1.0479-0.039,2.319,0.5664,3.8164,1.8127
			c1.4952,1.2475,2.3771,2.661,2.649,4.2419c-0.3468,1.4436-0.9263,3.0724-1.7405,4.8896c-0.8154,1.816-1.7639,3.5797-2.8426,5.2909
			c-1.0807,1.7112-2.1922,3.1404-3.3353,4.2898C615.8211,199.388,614.7784,199.98,613.8405,200.0145z M622.1121,168.4841
			l-0.2295,0.0078c-1.2245,0.0457-2.1826-0.5474-2.8806-1.7793c-0.6958-1.2297-1.0723-2.6967-1.1293-4.4013l0.0412-1.7302
			c0.4811-4.5818,2.3846-9.205,5.7072-13.8694s7.5144-9.3588,12.5712-14.0879c5.0599-4.7268,10.4393-9.5015,16.1402-14.3221
			c5.9778-5.0624,11.686-10.1526,17.1247-15.2758c5.4407-5.1226,9.9804-10.2914,13.6243-15.5093
			c3.643-5.2163,5.7579-10.4764,6.349-15.7779l0.0666-1.9387c-0.0687-2.0936-0.5573-3.8015-1.4636-5.1153
			c-0.9094-1.3161-2.1266-2.2681-3.6545-2.8567c-1.5292-0.5892-3.2549-0.8489-5.1752-0.7782
			c-6.7467,0.364-13.0905,2.5914-19.0335,6.6833c-5.7526,3.9699-10.9807,9.3316-15.6886,16.0868
			c-4.7068,6.7552-8.7834,14.5879-12.2266,23.4975c-0.3066,0.6577-0.7772,0.9967-1.4095,1.0201
			c-0.4589,0.0167-0.939-0.1539-1.4444-0.5173c-0.5034-0.3612-0.938-0.9454-1.3049-1.7503
			c-0.3648-0.8044-0.5689-1.8395-0.6112-3.1059c-0.1723-5.2273,2.632-12.2814,8.4185-21.1625
			c5.335-7.9425,11.5677-14.3499,18.6993-19.2233c7.1326-4.8723,13.8815-7.5768,20.2495-8.1114l0.3934-0.0145
			c3.2971-0.121,6.2307,0.3245,8.8024,1.3361c2.5686,1.0122,4.6085,2.6605,6.1154,4.9447c1.509,2.2837,2.3243,5.2797,2.4471,8.9865
			c0.0422,1.2676-0.001,2.6176-0.128,4.0507c-0.4938,4.8829-1.9796,9.6811-4.4594,14.3933
			c-2.4788,4.7145-5.6343,9.3433-9.4623,13.8879c-3.8301,4.5457-8.0072,8.9793-12.532,13.3081
			c-4.5261,4.3277-9.0932,8.5462-13.7027,12.6587c-4.9067,4.3778-9.4676,8.6142-13.6837,12.7111
			c-4.2161,4.097-7.6931,8.0412-10.4319,11.8293c-2.741,3.7903-4.3484,7.4002-4.8242,10.8293l-0.0211,0.3456
			c0.019,0.5763,0.2549,0.9085,0.7043,0.9944c0.4515,0.088,0.8957,0.1237,1.3336,0.107c0.3923-0.0145,0.8353-0.1638,1.3292-0.4459
			c0.4928-0.2843,0.8958-0.5295,1.2066-0.7368c0.3098-0.2073,0.4865-0.311,0.5308-0.3133c-0.1776,0.5831-0.6048,1.262-1.2775,2.0346
			c-0.6758,0.7748-1.4731,1.4794-2.3909,2.1115C623.8812,168.1196,622.9844,168.4518,622.1121,168.4841z"/>
	</g>
	<g>
		<path fill="#37474F" d="M102.9488,170.3105c0,25.6302-13.9285,57.605-31.1058,57.605c-17.1822,0-31.1058-31.9747-31.1058-57.605
			c0-15.943,5.3867-25.6746,13.5927-30.7552c5.8953-3.6488,9.4453-10.1167,9.4453-17.044V47.013h16.1306v75.4983
			c0,6.9271,3.5549,13.3952,9.4453,17.044c2.9526,1.8319,5.5398,4.261,7.6333,7.3618
			C100.7368,152.4419,102.9488,160.1047,102.9488,170.3105z"/>
		<path fill="#37474F" d="M158.4108,212.8018V173.5c0-1.7627-1.427-3.1895-3.1896-3.1895c-0.8789,0-1.6787,0.3554-2.2564,0.9332
			c-0.5777,0.5777-0.9332,1.3776-0.9332,2.2564v47.7795c-3.1452,3.2142-6.5816,5.4312-10.2007,6.2706v-54.05
			c0-1.7627-1.427-3.1895-3.1896-3.1895c-0.8788,0-1.6788,0.3555-2.2564,0.9332c-0.5777,0.5777-0.9332,1.3776-0.9332,2.2564v54.05
			c-3.6192-0.8394-7.0556-3.0563-10.1957-6.2706V173.5c0-1.7627-1.4269-3.1895-3.1895-3.1895c-0.8838,0-1.6788,0.3554-2.2565,0.9332
			c-0.5776,0.5777-0.9332,1.3776-0.9332,2.2564v39.3019c-6.9272-11.6128-11.3413-28.0593-11.3413-42.4915
			c0-10.2056,2.212-17.8686,5.9594-23.3935c2.0984-3.1007,4.6856-5.5299,7.6382-7.3618c5.8903-3.6488,9.4453-10.1118,9.4453-17.044
			V47.013h16.1305v75.4983c0,6.9321,3.5501,13.3952,9.4454,17.044c8.2059,5.0807,13.5927,14.8123,13.5927,30.7552
			C169.7472,184.7425,165.3331,201.1891,158.4108,212.8018z"/>
		<path fill="#56C0EE" d="M127.5272,97.7055v25.2797c0,6.0928-3.1254,11.7807-8.3097,14.99
			c-1.1208,0.6962-2.1824,1.491-3.1796,2.3897c-2.8687,2.5922-6.5619,4.0833-10.4328,4.0833h-0.7258
			c-3.871,0-7.5641-1.4911-10.4376-4.0882c-0.9924-0.8987-2.054-1.6886-3.1748-2.3848c-5.1794-3.2093-8.3097-8.8972-8.3097-14.99
			V110.38c11.1093,1.8466,21.9963-0.5283,32.6264-5.6978C119.6028,102.7319,123.5823,100.3767,127.5272,97.7055z"/>
		<path fill="#286B82" d="M115.5836,104.6821c-10.6302,5.1695-21.5173,7.5444-32.6264,5.6978V98.693
			C92.5308,95.5776,109.0317,101.8777,115.5836,104.6821z"/>
	</g>
	<g>
		<path fill="none" d="M434.1315,85.4864c2.1462-2.5383,3.9006-4.947,5.2631-7.2262s2.3603-4.3043,2.9934-6.0752
			s0.933-3.1321,0.8998-4.0836c-0.0154-0.4432-0.0991-0.7828-0.2509-1.0189c-0.1518-0.2361-0.371-0.3492-0.6578-0.3392
			c-0.3975,0.0139-0.9258,0.3032-1.5847,0.8677c-1.4449,1.225-3.2883,3.7495-5.53,7.5732
			c-2.5558,4.3568-5.4468,10.2358-8.6728,17.6372c-0.031,0.0468-0.0574,0.0869-0.079,0.1202s-0.0411,0.083-0.0584,0.1489
			C429.4261,90.5593,431.9852,88.0246,434.1315,85.4864z"/>
		<path fill="none" d="M476.4942,81.7216c0.6935-1.2575,1.3771-2.5146,2.051-3.7715c-0.5031-0.2043-1.0086-0.4802-1.5167-0.8279
			l-1.5061,3.4001c-0.1581,0.3318-0.5237,1.1651-1.097,2.4999c-0.5732,1.3349-1.2141,2.9331-1.9222,4.7947
			c-0.5494,1.4442-1.0455,2.907-1.5135,4.3798C472.7411,88.6833,474.5739,85.1911,476.4942,81.7216z"/>
		<path fill="none" d="M481.7562,71.9407c0.816-1.5782,1.5872-3.1794,2.3135-4.8035c0.7317-1.6569,1.0883-2.7492,1.0699-3.2772
			c-0.0071-0.202-0.0757-0.3008-0.2061-0.2962c-0.3519,0.0123-1.1371,0.9794-2.3555,2.9012s-2.8456,5.0292-4.8816,9.3221
			l1.5292,0.9058C480.0967,75.1031,480.9402,73.519,481.7562,71.9407z"/>
		<path fill="none" d="M486.3153,105.0947l0.0007,0.0195c0.048,0.2528,0.2512,0.373,0.6097,0.3604
			c0.1303-0.0045,0.3994-0.0547,0.8071-0.1505c0.4077-0.0958,1.0498-0.3956,1.9261-0.8992c0.8764-0.5037,1.6921-1.108,2.4473-1.813
			c0.7551-0.705,1.2761-1.4344,1.563-2.1884l0.0302-0.2555c-2.2449,1.1159-4.0015,2.1071-5.2697,2.9736
			C487.007,104.0657,486.3021,104.7167,486.3153,105.0947z"/>
		<path fill="none" d="M548.3045,89.7457c0.127-0.8462,0.1778-1.6343,0.1523-2.3642c-0.043-1.2318-0.2782-2.173-0.7054-2.8237
			c-0.3169-0.4783-0.723-0.7088-1.2183-0.6915c-0.391,0.0137-0.8605,0.2095-1.4085,0.5875
			c-0.5228,0.3511-1.0425,0.8847-1.5591,1.601c-0.741,1.0177-1.3271,2.1703-1.7585,3.4578
			c-0.3715,1.1353-0.5392,2.2178-0.5032,3.2476l0.0245,0.42c0.1033,0.9034,0.485,1.6503,1.1451,2.2406
			c0.6601,0.5903,1.6243,0.9221,2.8928,0.9952c0.8207-0.9748,1.4735-2.0433,1.9582-3.2054S548.1357,90.8935,548.3045,89.7457z"/>
		<path fill="none" d="M557.7716,91.4901c0.5458-0.6259,0.9882-1.2726,1.327-1.9403c0.3388-0.6676,0.501-1.21,0.4864-1.6271
			c-0.0153-0.4366-0.2347-0.6476-0.6583-0.6328l-0.1756,0.0159c-0.5843,0.0856-1.0187,0.3521-1.3033,0.7992
			c-0.2845,0.4471-0.4171,0.9509-0.3975,1.5114c0.0116,0.3324,0.077,0.6613,0.196,0.9866S557.5405,91.2241,557.7716,91.4901z"/>
		<path fill="none" d="M522.0504,109.5629c-0.157,1.6694-0.2072,3.3188-0.1502,4.9482l0.0164,0.4692
			c0.0345,0.8014,0.1212,1.508,0.26,2.1198c0.1388,0.6118,0.3703,1.0751,0.6945,1.3901c0.1414,0.1255,0.2969,0.1854,0.4663,0.1794
			l0.0684-0.0024c0.3248-0.0439,0.6279-0.2845,0.9095-0.7218c0.2817-0.4373,0.5092-1.0211,0.6827-1.7514
			s0.2444-1.5485,0.2128-2.4544c-0.0241-0.6909-0.1212-1.415-0.2912-2.1725c-0.2148-0.9191-0.4327-1.6929-0.6537-2.3214
			c-0.2209-0.6285-0.4953-1.3383-0.8231-2.1295l-0.6753-1.6795C522.4465,106.5181,522.2075,107.8935,522.0504,109.5629z"/>
		<path fill="#37474F" d="M425.4638,76.3633c0.5785-2.0267,0.8408-3.8124,0.7868-5.357c-0.0323-0.9255-0.1946-1.7419-0.4868-2.4495
			c-0.3906-0.9064-0.8568-1.5508-1.3987-1.9332c-0.5419-0.3824-1.1224-0.5627-1.7416-0.5411c-0.5735,0.02-1.16,0.1841-1.7593,0.4921
			s-1.1822,0.715-1.7485,1.2209c-0.5663,0.5059-1.0897,1.074-1.5702,1.7041c-0.4182,0.5432-0.8585,1.2502-1.3207,2.1212
			c-0.4623,0.871-0.8951,1.8355-1.2986,2.8937c-0.4035,1.0581-0.728,2.1379-0.9733,3.2395s-0.3509,2.1444-0.3165,3.1285
			c0.0284,0.8147,0.1767,1.5566,0.4448,2.226c0.2681,0.6693,0.6933,1.2139,1.2757,1.634c0.5823,0.4202,1.3483,0.6789,2.2979,0.7762
			l0.0198,0.0091c0.0391-0.0014,0.0772-0.0321,0.1143-0.0921c0.037-0.0601,0.0544-0.1226,0.0522-0.1878
			c-0.0021-0.0587-0.0328-0.1-0.0924-0.124c-0.593-0.162-1.0776-0.4453-1.4539-0.8497s-0.6564-0.9069-0.8405-1.5073
			c-0.1841-0.6004-0.2891-1.2689-0.3148-2.0053c-0.0385-1.1014,0.0765-2.293,0.345-3.5748
			c0.2685-1.2819,0.6453-2.5446,1.1304-3.7883s1.0359-2.3804,1.6525-3.4101c0.6166-1.0297,1.2613-1.8613,1.9341-2.4949
			s1.3221-0.9613,1.9477-0.9832c0.6779-0.0237,1.2684,0.3505,1.7717,1.1224c0.4496,0.7282,0.6935,1.6398,0.7318,2.7347
			c0.0487,1.3947-0.1879,3.0278-0.7098,4.8992s-1.2433,3.8688-2.1643,5.9924c-0.921,2.1235-1.9744,4.2842-3.1603,6.4822
			c-1.1859,2.1981-2.4293,4.3361-3.7303,6.4141c-1.301,2.0781-2.5861,4.0022-3.8555,5.7725s-2.4512,3.2911-3.5454,4.5626
			c-1.0942,1.2715-2.0293,2.1981-2.8051,2.7798c-1.1388,0.8359-2.0602,1.2661-2.764,1.2906
			c-0.4758,0.0167-0.8643-0.1296-1.1654-0.4389c-0.3012-0.3092-0.527-0.7499-0.6775-1.3221
			c-0.1505-0.5723-0.2394-1.2494-0.2667-2.0315c-0.0519-1.486,0.071-3.2455,0.3687-5.2787c0.2977-2.0333,0.6727-4.1409,1.125-6.3231
			s0.908-4.2699,1.3669-6.2631c0.4354-1.9206,0.8008-3.6022,1.0963-5.0448s0.4329-2.4604,0.4121-3.0535
			c-0.0045-0.1304-0.0179-0.2343-0.0402-0.3118c-0.1915-0.6263-0.4666-0.9332-0.825-0.9207
			c-0.6387,0.0223-1.5745,0.9751-2.8073,2.8583c-0.9976,1.5161-2.2584,3.7167-3.7825,6.6019
			c-1.8979,3.5769-4.0535,7.9034-6.4668,12.9795c-0.9298,1.9639-1.4537,3.0295-1.5719,3.1968
			c0.0296-0.647,0.3645-2.2215,1.0047-4.7234c0.6402-2.502,1.3936-5.3603,2.2601-8.5748c0.832-3.0829,1.5955-5.9758,2.2907-8.6787
			s1.1539-4.701,1.3763-5.9942c0.1394-0.8662,0.1981-1.6154,0.176-2.2476c-0.0341-0.9776-0.2305-1.6967-0.5892-2.1573
			c-0.3587-0.4605-0.8117-0.6813-1.3592-0.6621c-0.7104,0.0248-1.5138,0.4232-2.4102,1.1951s-1.7665,1.8741-2.6105,3.3065
			c-0.8302,1.4515-1.4936,2.9152-1.9902,4.3909c-0.4966,1.4758-0.8472,2.8828-1.0516,4.2211s-0.289,2.5158-0.2535,3.5325
			c0.049,1.4012,0.2946,2.3616,0.7368,2.8812l0.1274,0.0054c0.189-0.0066,0.2797-0.1207,0.2719-0.3423l-0.0125-0.0779
			c-0.0352-0.2598-0.0595-0.5819-0.0729-0.9664c-0.0286-0.8212,0.0211-1.8719,0.1494-3.152c0.1282-1.2802,0.38-2.6642,0.7555-4.152
			c0.3754-1.4879,0.9139-2.9781,1.6155-4.4708s1.6074-2.8816,2.7175-4.1667c0.7786-0.8755,1.347-1.3195,1.7055-1.332
			c0.3259-0.0114,0.5005,0.3185,0.524,0.9899l-0.0106,0.5387c-0.1096,1.348-0.4866,3.2584-1.131,5.7311
			c-0.6445,2.4728-1.3948,5.1857-2.2509,8.139c-0.6806,2.3729-1.3316,4.7055-1.953,6.998c-0.6214,2.2925-1.1292,4.382-1.5233,6.2685
			c-0.3942,1.8865-0.5727,3.361-0.5356,4.4233c0.0157,0.4497,0.0754,0.8065,0.1793,1.0704c0.1039,0.2639,0.2477,0.4579,0.4315,0.582
			s0.3832,0.1824,0.5983,0.1749c0.2933-0.0103,0.582-0.1508,0.8661-0.4218c0.1815-0.2217,0.509-0.9346,0.9824-2.1387
			c0.5152-1.3165,1.2434-2.9798,2.1846-4.9898c1.2105-2.5219,2.507-5.1495,3.8895-7.8829c1.3826-2.7335,2.6266-5.0885,3.7321-7.0651
			c1.2652-2.2628,2.0542-3.3997,2.367-3.4106c0.0652-0.0023,0.1198,0.0203,0.1639,0.0677c0.0441,0.0474,0.0673,0.1037,0.0695,0.1689
			l-0.0154,0.118c-0.1311,0.3569-0.5242,1.8079-1.1792,4.3527c-0.655,2.5449-1.3276,5.5195-2.0179,8.9236
			c-0.3846,1.8797-0.7032,3.7342-0.9558,5.5635c-0.2526,1.8294-0.3525,3.5001-0.2997,5.0121
			c0.0599,1.7141,0.3549,3.061,0.885,4.0409c0.614,1.1401,1.5304,1.6888,2.7491,1.6462c0.6452-0.0225,1.3885-0.2247,2.23-0.6064
			c0.9498-0.4573,2.0656-1.2989,3.3474-2.5247c1.2818-1.2259,2.65-2.7337,4.1047-4.5234c1.4546-1.7898,2.9159-3.7625,4.3839-5.9182
			c1.468-2.1556,2.8647-4.3887,4.1902-6.6993c1.3255-2.3106,2.5017-4.5996,3.5286-6.8671S424.8853,78.39,425.4638,76.3633z"/>
		<path fill="#37474F" d="M481.5403,93.9271c-0.0912,0.0032-0.1741,0.0583-0.2487,0.1653
			c-0.9619,1.4169-2.0464,2.7811-3.2535,4.0924c-1.2071,1.3113-2.4355,2.3835-3.6854,3.2168
			c-0.9948,0.6611-1.8898,1.0056-2.6849,1.0334c-0.6322,0.0221-1.1447-0.1721-1.5375-0.5825
			c-0.4465-0.4542-0.687-1.1734-0.7213-2.1575c-0.0121-0.3454,0.0073-0.7245,0.0582-1.1375
			c0.1701-1.4807,0.5416-3.1755,1.1144-5.0845c0.1204-0.4011,0.256-0.7969,0.3824-1.1959c0.313-0.5312,0.8433-1.3999,1.6172-2.6472
			c1.8536-2.975,4.1075-6.7307,6.7615-11.2671c2.6127,1.1942,5.0497,1.7518,7.3113,1.6729
			c2.8611-0.0999,5.4667-1.4437,7.8168-4.0315c0.1254-0.1479,0.1861-0.2773,0.1822-0.3881
			c-0.005-0.1434-0.0793-0.2158-0.2229-0.2173l-0.2703,0.1073c-1.4311,1.0614-2.7876,1.8314-4.0694,2.3101
			s-2.506,0.7384-3.6726,0.7792c-1.134,0.0396-2.2313-0.082-3.2917-0.3647c-1.0339-0.2706-2.0454-0.6464-3.0345-1.1273
			c1.168-2.0571,2.2409-4.0325,3.2188-5.9264s1.7532-3.5653,2.3257-5.0143c0.5725-1.449,0.8457-2.5483,0.8196-3.2978
			c-0.0208-0.5931-0.2953-0.8869-0.8236-0.8815l-0.117,0.0139c-0.818,0.1199-1.7388,0.7507-2.7626,1.8925
			c-1.0238,1.1418-2.103,2.6575-3.2377,4.547c-1.1346,1.8895-2.2741,4.0158-3.4183,6.3787
			c-0.3822-0.2933-0.9238-0.6659-1.6247-1.1178c-0.4019-0.2992-1.1828-0.7972-2.3425-1.494
			c-1.0529-0.6288-2.2427-1.2056-3.5694-1.7302c-1.3266-0.5247-2.6196-0.7845-3.8788-0.7797l-0.1075,0.0037
			c-1.3035,0.0455-2.3466,0.5387-3.1295,1.4796l-0.0222,0.2063c0.0039,0.1108,0.0581,0.1677,0.1626,0.1705l0.097-0.023
			c0.8412-0.3882,1.6823-0.597,2.523-0.6264c1.0363-0.0362,2.0899,0.1456,3.1609,0.5454c1.0248,0.3818,2.0588,0.8906,3.1022,1.5262
			s2.1098,1.3227,3.1992,2.0612c0.5892,0.4297,1.174,0.8236,1.7542,1.1818l-2.5909,5.6891
			c-1.3293,3.0416-2.4918,5.9565-3.4874,8.7449c-0.6439,1.8033-1.1059,3.4202-1.4218,4.8873
			c-0.4109,0.4182-0.8495,0.8727-1.3206,1.3699c-0.9943,1.0494-2.0463,2.1286-3.1561,3.2375s-2.2161,2.1263-3.3192,3.0522
			c-1.9841,1.668-3.54,2.5217-4.6675,2.561c-0.2867,0.01-0.5558-0.0328-0.8071-0.1284c-0.239-0.1156-0.3649-0.3592-0.3779-0.7307
			c-0.0148-0.4236,0.0884-1.0178,0.3097-1.7825c0.4937-1.7464,1.0367-3.1977,1.6293-4.3538c0.3599-0.7173,0.6906-1.339,0.9919-1.865
			c0.2527-0.4265,0.4552-0.794,0.6075-1.1028c0.1523-0.3087,0.2253-0.5544,0.2189-0.7368
			c-0.0109-0.3129-0.1863-0.4764-0.5261-0.4906l-0.059-0.0078c-0.189,0.0066-0.3791,0.0753-0.5703,0.2059
			c-0.2997,0.1997-0.6697,0.5356-1.11,1.0078l-0.2453,0.2631c-3.9737,3.93-7.1161,6.3431-9.4274,7.2395
			c-0.5665,0.222-1.0322,0.3395-1.3972,0.3522c-0.7756,0.027-1.1768-0.3439-1.2036-1.113c-0.0248-0.7104,0.2352-1.6265,0.78-2.7483
			c0.5449-1.1218,1.285-2.2569,2.2204-3.4054s1.99-2.1544,3.1638-3.0175s2.3892-1.4211,3.6463-1.6738
			c0.2854-0.0491,0.5715-0.0787,0.8582-0.0887c0.769-0.0269,1.498,0.1075,2.187,0.4033c0.689,0.2957,1.2249,0.7859,1.6077,1.4708
			c0.0688,0.102,0.1488,0.1514,0.2401,0.1482c0.0847-0.0029,0.1603-0.0349,0.2267-0.096c0.0663-0.061,0.098-0.1371,0.0948-0.2284
			c-0.1935-1.0569-0.7131-1.8283-1.5588-2.3143c-0.8457-0.486-1.8551-0.7084-3.0282-0.6675
			c-1.0493,0.0366-2.152,0.2725-3.3081,0.7077c-1.1561,0.4351-2.2518,1.0558-3.2874,1.8619
			c-1.6455,1.3336-2.9623,2.7799-3.9886,4.3257c-0.6276,0.689-1.3187,1.4266-2.0957,2.2293
			c-0.8628,0.8915-1.7399,1.7476-2.6313,2.5682s-1.7289,1.5025-2.5126,2.0453s-1.4199,0.8228-1.9087,0.8399
			c-0.378,0.0132-0.6432-0.1994-0.7955-0.6378c-0.1184-0.4005-0.187-0.8679-0.2056-1.4023
			c-0.027-0.7756,0.0191-1.6499,0.1384-2.6231c0.1194-0.9731,0.2595-1.9585,0.4205-2.9559
			c0.2886-1.8241,0.4252-2.9578,0.4097-3.4009c-0.0345-0.9906-0.4396-1.4724-1.2152-1.4453c-0.5149,0.018-1.1337,0.237-1.8563,0.657
			c-0.7227,0.42-1.4744,0.9422-2.2552,1.5665s-1.5281,1.2752-2.2418,1.9527c-0.7137,0.6774-1.3234,1.2974-1.829,1.8599
			c-0.5056,0.5625-0.8416,0.9837-1.0081,1.2636c0.119-0.3304,0.2521-0.7233,0.3993-1.1787
			c0.3062-0.9504,0.6623-1.9155,1.0685-2.8954s0.8411-1.6542,1.3046-2.0227c2.6886-2.0515,5.0303-4.0844,7.0252-6.0985
			c1.9949-2.0142,3.6805-3.9637,5.0568-5.8487s2.4805-3.6641,3.3128-5.3375c0.8323-1.6735,1.4266-3.1999,1.783-4.5794
			c0.3564-1.3795,0.5175-2.558,0.4834-3.5356c-0.0321-0.9189-0.2153-1.6352-0.5497-2.1488s-0.7852-0.7605-1.3521-0.7407
			c-0.189,0.0066-0.3932,0.0464-0.6125,0.1193c-1.3785,0.5115-2.8223,1.6793-4.3312,3.5036
			c-1.5089,1.8243-3.0122,4.0416-4.5099,6.6518s-2.9226,5.3467-4.2745,8.2096c-1.3519,2.8629-2.565,5.5904-3.6392,8.1826
			s-1.9423,4.7823-2.6041,6.5706c-0.6619,1.7881-1.0502,2.9061-1.1651,3.3539c-0.1816,0.4044-0.2672,0.7597-0.2564,1.066
			c0.0057,0.1629,0.0402,0.3118,0.1037,0.4466c0.1698,0.3791,0.3445,0.5687,0.5239,0.569c0.1794,0.0002,0.2757,0.0001,0.2887-0.0003
			c0.3259-0.0114,0.6041-0.2658,0.8347-0.7632c0.392-0.9207,0.8683-1.7628,1.4289-2.5262c0.5606-0.7635,1.0109-1.324,1.3508-1.6818
			c0.7668-0.8359,1.5694-1.6323,2.4076-2.3891c0.8381-0.7568,1.6123-1.3842,2.3225-1.8821
			c0.7101-0.4979,1.2314-0.7526,1.5638-0.7643c0.4041-0.0141,0.6136,0.1939,0.6287,0.6241l-0.0047,0.147
			c0.0112,0.3193,0.0042,0.5855-0.0211,0.7985c-0.0251,0.213-0.0767,0.5132-0.1545,0.901c-0.5933,3.192-0.8621,5.5831-0.8066,7.1733
			c0.0728,2.0855,0.6534,3.1093,1.7418,3.0713c1.0493-0.0366,2.5275-0.8713,4.4346-2.504c1.3646-1.1639,2.8165-2.5947,4.3455-4.2612
			c-0.363,0.9368-0.5557,1.792-0.5295,2.5424c0.0253,0.7234,0.2509,1.2979,0.6768,1.7235c0.426,0.4255,1.0854,0.6227,1.9783,0.5916
			l0.0782-0.0027c2.1437-0.088,5.5202-2.1536,10.1294-6.1971c-0.0177,0.0529-0.0692,0.1656-0.1545,0.3382
			c-0.214,0.412-0.4912,1.0237-0.8315,1.8349s-0.5849,1.562-0.7338,2.2524c-0.1488,0.6904-0.2159,1.2441-0.2014,1.6612
			c0.0128,0.365,0.0704,0.7088,0.173,1.0315c0.2262,0.6838,0.7986,1.101,1.7175,1.2516c0.1899,0.0195,0.3826,0.0258,0.5781,0.019
			c0.756-0.0264,1.5634-0.2634,2.4222-0.7111c1.0893-0.5731,2.2135-1.3595,3.3727-2.3592s2.3087-2.092,3.4484-3.277
			c1.1397-1.1849,2.2186-2.3369,3.2366-3.4556c0.1575-0.174,0.2999-0.3267,0.4523-0.4936c-0.063,0.381-0.1283,0.7645-0.1661,1.1198
			l-0.0186,1.4297c0.0974,1.2951,0.4632,2.3329,1.0973,3.1134s1.4927,1.1681,2.5757,1.1629l0.0489-0.0017
			c0.8342-0.0291,1.7816-0.3689,2.842-1.0193c1.0396-0.6888,2.054-1.5366,3.0433-2.5435c0.9893-1.0068,1.8853-2.025,2.6878-3.0547
			s1.4386-1.9214,1.9082-2.6751l0.0535-0.1487C481.754,93.9718,481.6772,93.9222,481.5403,93.9271z M482.5781,66.4651
			c1.2184-1.9218,2.0035-2.8889,2.3555-2.9012c0.1304-0.0046,0.199,0.0942,0.2061,0.2962c0.0184,0.528-0.3382,1.6203-1.0699,3.2772
			c-0.7263,1.6241-1.4975,3.2252-2.3135,4.8035c-0.816,1.5782-1.6595,3.1624-2.5306,4.7523l-1.5292-0.9058
			C479.7325,71.4943,481.3597,68.3869,482.5781,66.4651z M474.4254,83.0222c0.5733-1.3348,0.939-2.1682,1.097-2.4999l1.5061-3.4001
			c0.5081,0.3477,1.0136,0.6237,1.5167,0.8279c-0.6739,1.2568-1.3575,2.514-2.051,3.7715
			c-1.9203,3.4695-3.7531,6.9618-5.5045,10.4751c0.468-1.4728,0.9641-2.9356,1.5135-4.3798
			C473.2114,85.9553,473.8522,84.3571,474.4254,83.0222z M426.5125,92.9417c0.0217-0.0334,0.048-0.0734,0.079-0.1202
			c3.226-7.4014,6.1169-13.2805,8.6728-17.6372c2.2417-3.8238,4.085-6.3482,5.53-7.5732c0.6589-0.5646,1.1872-0.8538,1.5847-0.8677
			c0.2868-0.01,0.506,0.1031,0.6578,0.3392c0.1519,0.2361,0.2355,0.5757,0.2509,1.0189c0.0333,0.9515-0.2667,2.3127-0.8998,4.0836
			s-1.6309,3.796-2.9934,6.0752s-3.1169,4.6879-5.2631,7.2262c-2.1463,2.5382-4.7054,5.0729-7.6774,7.6041
			C426.4714,93.0247,426.4908,92.975,426.5125,92.9417z"/>
		<path fill="#37474F" d="M490.1774,73.163c0.6387-0.5834,1.4187-1.4639,2.3401-2.6412s1.7127-2.2947,2.374-3.3521
			c0.6613-1.0574,0.9859-1.7587,0.9738-2.1041c-0.0038-0.1108-0.084-0.1635-0.2404-0.158
			c-0.2281,0.0079-0.5624,0.1044-1.0029,0.2895s-0.8642,0.3858-1.271,0.6023s-0.7028,0.3834-0.8879,0.5009l-0.0482,0.0212
			l-0.0363,0.0796c0.0074,0.0258,0.0118,0.0583,0.0132,0.0974c0.0077,0.2216-0.0892,0.623-0.2908,1.2043
			c-0.2372,0.6804-0.5386,1.4397-0.9041,2.2779c-0.3655,0.8382-0.7142,1.5959-1.0463,2.2731
			c-0.332,0.6772-0.5697,1.1096-0.7133,1.2973l0.0792,0.0266C489.6469,73.5731,489.8672,73.4348,490.1774,73.163z"/>
		<path fill="#37474F" d="M504.6772,93.3149c-0.0978,0.0034-0.2136,0.0499-0.3475,0.1393
			c-1.4324,1.2115-2.8889,2.2004-4.3694,2.9666c-1.4806,0.7662-2.7902,1.3845-3.9287,1.855
			c-0.4244,0.1779-0.8069,0.3447-1.1473,0.5001c-0.3265-0.3801-0.7167-0.7172-1.1707-1.0113
			c-0.454-0.2941-0.9269-0.5696-1.4188-0.8265c-0.5782-0.2996-1.1014-0.6141-1.5696-0.9435
			c-0.4683-0.3295-0.7748-0.6516-0.9196-0.9662s-0.2211-0.5861-0.2291-0.8142c-0.0104-0.2998,0.0496-0.6347,0.1803-1.0046
			c0.2321-0.6411,0.7593-1.4262,1.5817-2.3554c0.5654-0.6266,1.209-1.2103,1.9307-1.7509c0.7217-0.5407,1.468-0.986,2.2388-1.3359
			s1.5016-0.5369,2.1924-0.5611c0.1369-0.0048,0.2707-0.0029,0.4015,0.0056c0.5042,0.0477,0.8298,0.1717,0.9771,0.3721
			c0.1473,0.2004,0.2248,0.4114,0.2325,0.633c0.0039,0.1108-0.0051,0.2286-0.0268,0.3533c-0.1711,0.8934-0.8003,2.028-1.8877,3.4036
			c-0.4186,0.5302-0.7503,0.9365-0.9949,1.2191l-0.2254,0.2722c-0.0427,0.0863-0.0627,0.1653-0.0602,0.237
			c0.0063,0.1825,0.1125,0.3272,0.3186,0.4342c0.206,0.107,0.397,0.1574,0.573,0.1513c0.1108-0.0039,0.1849-0.0293,0.2224-0.0763
			c1.6754-2.2902,2.6083-4.0682,2.7991-5.3343c0.043-0.2625,0.0605-0.5078,0.0526-0.7359
			c-0.0121-0.3455-0.0818-0.6595-0.2091-0.9421c-0.1921-0.4566-0.507-0.8322-0.9448-1.1269
			c-0.4377-0.2947-1.0052-0.4298-1.7026-0.4055c-0.6387,0.0223-1.3887,0.2214-2.2499,0.5973
			c-0.7963,0.3671-1.7303,0.9512-2.8018,1.752c-1.0715,0.8009-2.0434,1.6994-2.9156,2.6956
			c-0.8722,0.9962-1.4056,1.9773-1.6003,2.9433c-0.0265,0.1771-0.0366,0.3536-0.0305,0.5297c0.007,0.202,0.0368,0.4,0.0892,0.5939
			c0.1344,0.4847,0.5023,0.9286,1.1036,1.3317c0.6013,0.4032,1.2773,0.7939,2.0278,1.1723
			c0.6708,0.3354,1.2748,0.6765,1.8123,1.0231c0.5374,0.3467,0.8945,0.7159,1.0713,1.1078
			c-0.2049,0.1116-0.5737,0.2941-1.1064,0.5476c-2.5233,1.1779-4.4725,2.2606-5.8474,3.2482
			c-0.9467,0.7313-1.4561,1.3755-1.528,1.9326c-0.0161,0.0984-0.0227,0.1901-0.0198,0.2748
			c0.0134,0.3845,0.1845,0.7048,0.5132,0.9609c0.3892,0.3062,0.9422,0.4467,1.6591,0.4217l0.088-0.0031
			c1.1576-0.1122,2.1877-0.4173,3.0904-0.9154c0.9026-0.4981,1.6747-1.0911,2.3163-1.7791c0.6416-0.688,1.1449-1.363,1.5101-2.025
			c0.3651-0.662,0.5858-1.2097,0.662-1.643c0.0538-0.3282,0.0784-0.652,0.0737-0.9716c0.5069-0.2461,1.0397-0.4963,1.5986-0.7507
			c1.4008-0.6232,2.8101-1.3282,4.2279-2.1151c1.4179-0.7869,2.6558-1.7273,3.7139-2.8214c0.0441-0.0472,0.0828-0.104,0.1164-0.1705
			c0.0336-0.0664,0.0497-0.1191,0.0483-0.1583C504.8449,93.3547,504.788,93.311,504.6772,93.3149z M493.6693,100.4235
			c-0.2869,0.7539-0.8079,1.4834-1.563,2.1884c-0.7552,0.705-1.5709,1.3094-2.4473,1.813
			c-0.8763,0.5037-1.5184,0.8034-1.9261,0.8992c-0.4078,0.0958-0.6768,0.146-0.8071,0.1505
			c-0.3585,0.0126-0.5617-0.1076-0.6097-0.3604l-0.0007-0.0195c-0.0132-0.3781,0.6917-1.0291,2.1145-1.9531
			c1.2682-0.8665,3.0248-1.8577,5.2697-2.9736L493.6693,100.4235z"/>
		<path fill="#37474F" d="M573.013,90.5566c-0.0568-0.0372-0.121-0.0545-0.1927-0.052c-0.0977,0.0034-0.1906,0.0523-0.2787,0.1467
			c-0.6293,0.8507-1.5081,1.9874-2.6362,3.4102c-1.1281,1.4227-2.3302,2.8758-3.6063,4.3592
			c-1.2761,1.4834-2.4506,2.7462-3.5235,3.7886c-1.0729,1.0424-1.8653,1.6149-2.3772,1.7177l-0.0587,0.002
			c-0.0391,0.0014-0.0866-0.0051-0.1426-0.0195s-0.1156-0.04-0.1789-0.077s-0.1207-0.092-0.1722-0.1653s-0.0853-0.1553-0.1016-0.246
			s-0.0257-0.1753-0.0284-0.2535l0.0013-0.2448c0.0313-0.223,0.2129-0.5833,0.5446-1.081c0.3317-0.4977,0.728-1.0613,1.1889-1.6908
			c0.4047-0.5557,0.8012-1.1144,1.1895-1.6761c0.3882-0.5616,0.7095-1.0786,0.9637-1.5508
			c0.2543-0.4722,0.3766-0.8484,0.3668-1.1286c-0.0162-0.4627-0.1685-0.8522-0.4568-1.1684
			c-0.2884-0.3162-0.6734-0.598-1.1552-0.8455s-1.0305-0.5007-1.6464-0.7598c-0.8272-0.33-1.7031-0.7464-2.6276-1.2491
			c0.7125-0.71,1.2802-1.3644,1.7031-1.9633c0.4228-0.5988,0.722-1.1378,0.8978-1.6169c0.1758-0.4792,0.2575-0.8948,0.2452-1.2468
			c-0.0125-0.3585-0.101-0.6506-0.2655-0.8765s-0.3789-0.3865-0.6432-0.4816l-0.6692-0.1039
			c-0.4106,0.0143-0.8453,0.1323-1.3041,0.3539c-0.4588,0.2216-0.8856,0.5187-1.2805,0.8914
			c-0.3948,0.3727-0.7143,0.7998-0.9585,1.2814s-0.3571,0.9864-0.3386,1.5143c0.0132,0.378,0.0748,0.7396,0.1847,1.0849
			s0.3506,0.6974,0.722,1.0563c0.1241,0.1198,0.2776,0.2428,0.4447,0.3672c-1.2388,1.0749-2.4865,1.935-3.7437,2.562
			c-1.3436,0.67-2.5445,1.1312-3.6025,1.3835c-1.0581,0.2523-1.913,0.3898-2.5648,0.4125l-0.3132,0.0012
			c0.8542-1.1391,1.5146-2.3139,1.9813-3.5244c0.4667-1.2104,0.7648-2.2975,0.8943-3.2612s0.1822-1.791,0.158-2.4818
			c-0.01-0.2868-0.0327-0.5633-0.0681-0.8297l-0.2044-1.0891c-0.3165-1.0265-0.7446-1.7489-1.2845-2.1672
			c-0.5399-0.4183-1.1227-0.6166-1.7484-0.5947l-0.2636,0.019c-1.429,0.187-2.8784,1.1935-4.348,3.0197
			c-1.0076,1.4185-1.6915,2.9498-2.0517,4.5936c-0.1702,0.7303-0.2433,1.4408-0.2192,2.1317
			c0.0059,0.1694,0.0184,0.3387,0.0373,0.5076c0.1255,1.1637,0.5894,2.1638,1.3919,3.0004c0.8024,0.8365,2.0234,1.373,3.663,1.6094
			c-1.3627,1.3396-2.5385,2.0495-3.5276,2.1297l-0.1756,0.0159c-0.7495,0.0262-1.3585-0.2234-1.8271-0.7486
			c-0.5025-0.5632-0.8131-1.3289-0.9318-2.297c-0.0192-0.1755-0.0319-0.3545-0.0383-0.537
			c-0.0432-1.2383,0.2504-2.5471,0.8809-3.9263c-0.0223-0.0776-0.1051-0.1138-0.2485-0.1088
			c-0.0741,0.0026-0.1471,0.0352-0.2203,0.0633c-0.0098-0.0173-0.0089-0.0405-0.0242-0.0547
			c-0.0405-0.0377-0.0966-0.0554-0.1682-0.0529c-1.8833,1.5666-4.2751,3.288-7.1753,5.1641s-5.287,3.3657-7.1604,4.4686
			c1.0419-3.423,2.4988-7.3907,4.3706-11.903s3.9427-8.7396,6.213-12.6819c0.1969-0.3397,0.5759-0.932,1.137-1.777
			s1.2355-1.8033,2.0236-2.8749c0.788-1.0716,1.6193-2.1202,2.4937-3.1458s1.7286-1.8875,2.5623-2.5854
			c0.8337-0.698,1.5783-1.0975,2.2338-1.1987c0.0146,0.0452,0.0229,0.097,0.025,0.1557c0.0168,0.4823-0.389,1.428-1.2174,2.837
			c-0.8284,1.4091-2.1581,3.462-3.9888,6.1589c-1.8308,2.6969-4.2246,6.1818-7.1814,10.4547
			c-1.7146,2.4742-3.6339,5.2525-5.7579,8.3348l-0.3505,0.8932c3.1517-4.1101,5.8584-7.6973,8.1201-10.7615
			c2.2617-3.0643,4.1393-5.6813,5.6328-7.8509c1.4936-2.1696,2.6705-3.9692,3.5309-5.399c0.8604-1.4297,1.4636-2.5617,1.8096-3.3959
			c0.3461-0.8343,0.5118-1.46,0.4973-1.8771c-0.0107-0.3063-0.0967-0.5268-0.258-0.6614c-0.1613-0.1347-0.3666-0.2205-0.6158-0.2575
			c-0.9623,0.0989-2.0871,0.59-3.3743,1.4735c-1.2872,0.8834-2.6943,2.2148-4.2211,3.994
			c-1.5267,1.7792-3.1287,4.0685-4.8058,6.8677c-2.2971,3.9171-4.319,8.0073-6.0657,12.2705
			c-1.7467,4.2633-3.1831,8.3036-4.3092,12.1211c-0.6775,2.2749-1.1776,4.2108-1.5003,5.8077
			c-0.3227,1.5969-0.5231,2.9579-0.6013,4.083c-0.0782,1.1251-0.1017,2.134-0.0705,3.0269
			c0.0231,0.4755,0.0447,0.8141,0.0648,1.0157c0.0684,1.2113,0.253,2.2,0.5538,2.9659c0.3008,0.7661,0.6744,1.3272,1.1208,1.6835
			c0.4464,0.3564,0.9107,0.5261,1.3929,0.5093l0.1659-0.0156c0.8375-0.1206,1.4796-0.7026,1.926-1.7459
			c0.4464-1.0433,0.6407-2.3926,0.5829-4.048c-0.0193-0.554-0.0689-1.133-0.1487-1.7371c-0.1332-0.8241-0.397-1.8394-0.7915-3.0458
			c-0.3945-1.2065-0.7755-2.3057-1.1429-3.2978c-0.3465-0.9536-0.5432-1.5405-0.59-1.7608l-0.0159-0.1756
			c-0.0143-0.4106,0.1533-0.7982,0.5027-1.1627c0.3494-0.3646,0.9903-0.8372,1.9227-1.4179
			c4.5485-2.9301,8.4725-5.751,11.7883-8.4656c-0.3576,0.5779-0.6196,1.1813-0.7792,1.812
			c-0.2208,0.8723-0.3193,1.6473-0.2956,2.3251c0.0057,0.163,0.0178,0.3224,0.0363,0.4783l0.098,0.5643
			c0.2288,0.9447,0.6508,1.6771,1.2659,2.1973c0.6152,0.5201,1.3563,0.765,2.2231,0.7347c0.8342-0.0291,1.7526-0.3581,2.7551-0.9869
			c0.9068-0.5667,1.8749-1.4325,2.9044-2.5973l1.377-0.0873c1.5333-0.1906,2.993-0.5727,4.3792-1.1464
			c1.3862-0.5737,2.6208-1.2351,3.704-1.9842c0.8541-0.5907,1.5587-1.1761,2.125-1.7567c0.8828,0.5446,2.1387,1.1292,3.7869,1.7559
			c0.5961,0.2532,0.9217,0.6072,0.9767,1.0621c0.0111,0.3193-0.1616,0.7446-0.5182,1.2758
			c-0.3567,0.5312-0.7944,1.1224-1.3133,1.7734c-0.4436,0.5636-0.8737,1.1398-1.2903,1.7286s-0.7433,1.1385-0.9799,1.6492
			c-0.2367,0.5107-0.3482,0.9615-0.3345,1.3526l0.02,0.293c0.0139,0.3975,0.1475,0.7648,0.4006,1.1018
			c0.4111,0.5599,1.0142,0.8259,1.8093,0.7982c0.2672-0.0093,0.5527-0.0552,0.8566-0.1376
			c0.6579-0.2188,1.4929-0.8319,2.5051-1.8395c1.0121-1.0076,2.0781-2.2031,3.1978-3.5864s2.1765-2.7481,3.1702-4.0944
			c0.9938-1.3463,1.8107-2.4776,2.4508-3.3939l0.9507-1.3643l0.036-0.0894C573.0991,90.6384,573.0698,90.5938,573.013,90.5566z
			 M523.4429,107.1163c0.3278,0.7912,0.6022,1.501,0.8231,2.1295c0.221,0.6285,0.4388,1.4023,0.6537,2.3214
			c0.17,0.7575,0.2671,1.4817,0.2912,2.1725c0.0316,0.9059-0.0393,1.7241-0.2128,2.4544s-0.4011,1.3141-0.6827,1.7514
			c-0.2816,0.4373-0.5848,0.6779-0.9095,0.7218l-0.0684,0.0024c-0.1694,0.0059-0.3249-0.0539-0.4663-0.1794
			c-0.3242-0.3149-0.5557-0.7783-0.6945-1.3901c-0.1388-0.6118-0.2255-1.3184-0.26-2.1198l-0.0164-0.4692
			c-0.0569-1.6293-0.0068-3.2787,0.1502-4.9482s0.3961-3.0448,0.7172-4.1262L523.4429,107.1163z M545.3661,96.416
			c-1.2685-0.0731-2.2327-0.4049-2.8928-0.9952c-0.6601-0.5903-1.0418-1.3372-1.1451-2.2406l-0.0245-0.42
			c-0.0359-1.0297,0.1318-2.1122,0.5032-3.2476c0.4314-1.2875,1.0176-2.4401,1.7585-3.4578
			c0.5166-0.7162,1.0363-1.2499,1.5591-1.601c0.548-0.3781,1.0175-0.5739,1.4085-0.5875c0.4954-0.0173,0.9014,0.2132,1.2183,0.6915
			c0.4272,0.6507,0.6624,1.5919,0.7054,2.8237c0.0255,0.7299-0.0253,1.518-0.1523,2.3642
			c-0.1688,1.1478-0.4955,2.3028-0.9802,3.4649S546.1869,95.4412,545.3661,96.416z M557.4478,88.105
			c0.2845-0.4471,0.719-0.7136,1.3033-0.7992l0.1756-0.0159c0.4236-0.0148,0.6431,0.1962,0.6583,0.6328
			c0.0146,0.4171-0.1476,0.9595-0.4864,1.6271c-0.3389,0.6677-0.7812,1.3144-1.327,1.9403c-0.2311-0.266-0.4062-0.5616-0.5253-0.887
			s-0.1844-0.6542-0.196-0.9866C557.0308,89.056,557.1633,88.5521,557.4478,88.105z"/>
	</g>
</g>
</svg>
