<?xml version="1.0" encoding="utf-8"?>
<!-- Generator: Adobe Illustrator 25.0.1, SVG Export Plug-In . SVG Version: 6.00 Build 0)  -->
<!DOCTYPE svg PUBLIC "-//W3C//DTD SVG 1.1//EN" "http://www.w3.org/Graphics/SVG/1.1/DTD/svg11.dtd" [
	<!ENTITY ns_extend "http://ns.adobe.com/Extensibility/1.0/">
	<!ENTITY ns_ai "http://ns.adobe.com/AdobeIllustrator/10.0/">
	<!ENTITY ns_graphs "http://ns.adobe.com/Graphs/1.0/">
	<!ENTITY ns_vars "http://ns.adobe.com/Variables/1.0/">
	<!ENTITY ns_imrep "http://ns.adobe.com/ImageReplacement/1.0/">
	<!ENTITY ns_sfw "http://ns.adobe.com/SaveForWeb/1.0/">
	<!ENTITY ns_custom "http://ns.adobe.com/GenericCustomNamespace/1.0/">
	<!ENTITY ns_adobe_xpath "http://ns.adobe.com/XPath/1.0/">
]>
<svg version="1.1" id="Layer_1" xmlns:x="&ns_extend;" xmlns:i="&ns_ai;" xmlns:graph="&ns_graphs;"
	 xmlns="http://www.w3.org/2000/svg" xmlns:xlink="http://www.w3.org/1999/xlink" x="0px" y="0px" viewBox="0 0 734.4463 274.9284"
	 enable-background="new 0 0 734.4463 274.9284" xml:space="preserve">
<metadata>
	<x:xmpmeta  x:xmptk="Adobe XMP Core 6.0-c002 79.164519, 2020/08/25-17:54:00        " xmlns:x="adobe:ns:meta/">
		<rdf:RDF  xmlns:rdf="http://www.w3.org/1999/02/22-rdf-syntax-ns#">
			
				<rdf:Description  rdf:about="" xmlns:dc="http://purl.org/dc/elements/1.1/" xmlns:stDim="http://ns.adobe.com/xap/1.0/sType/Dimensions#" xmlns:stEvt="http://ns.adobe.com/xap/1.0/sType/ResourceEvent#" xmlns:stFnt="http://ns.adobe.com/xap/1.0/sType/Font#" xmlns:stRef="http://ns.adobe.com/xap/1.0/sType/ResourceRef#" xmlns:xmp="http://ns.adobe.com/xap/1.0/" xmlns:xmpG="http://ns.adobe.com/xap/1.0/g/" xmlns:xmpGImg="http://ns.adobe.com/xap/1.0/g/img/" xmlns:xmpMM="http://ns.adobe.com/xap/1.0/mm/" xmlns:xmpTPg="http://ns.adobe.com/xap/1.0/t/pg/">
				<xmp:CreatorTool>Adobe Illustrator 25.0 (Macintosh)</xmp:CreatorTool>
				<xmp:CreateDate>2020-12-03T14:49:17-05:00</xmp:CreateDate>
				<xmp:MetadataDate>2020-12-03T14:49:17-05:00</xmp:MetadataDate>
				<xmp:ModifyDate>2020-12-03T14:49:17-05:00</xmp:ModifyDate>
				<xmp:Thumbnails>
					<rdf:Alt>
						<rdf:li  rdf:parseType="Resource">
							<xmpGImg:width>256</xmpGImg:width>
							<xmpGImg:height>48</xmpGImg:height>
							<xmpGImg:format>JPEG</xmpGImg:format>
							<xmpGImg:image>/9j/4AAQSkZJRgABAgEASABIAAD/7QAsUGhvdG9zaG9wIDMuMAA4QklNA+0AAAAAABAASAAAAAEA
AQBIAAAAAQAB/+4ADkFkb2JlAGTAAAAAAf/bAIQABgQEBAUEBgUFBgkGBQYJCwgGBggLDAoKCwoK
DBAMDAwMDAwQDA4PEA8ODBMTFBQTExwbGxscHx8fHx8fHx8fHwEHBwcNDA0YEBAYGhURFRofHx8f
Hx8fHx8fHx8fHx8fHx8fHx8fHx8fHx8fHx8fHx8fHx8fHx8fHx8fHx8fHx8f/8AAEQgAMAEAAwER
AAIRAQMRAf/EAaIAAAAHAQEBAQEAAAAAAAAAAAQFAwIGAQAHCAkKCwEAAgIDAQEBAQEAAAAAAAAA
AQACAwQFBgcICQoLEAACAQMDAgQCBgcDBAIGAnMBAgMRBAAFIRIxQVEGE2EicYEUMpGhBxWxQiPB
UtHhMxZi8CRygvElQzRTkqKyY3PCNUQnk6OzNhdUZHTD0uIIJoMJChgZhJRFRqS0VtNVKBry4/PE
1OT0ZXWFlaW1xdXl9WZ2hpamtsbW5vY3R1dnd4eXp7fH1+f3OEhYaHiImKi4yNjo+Ck5SVlpeYmZ
qbnJ2en5KjpKWmp6ipqqusra6voRAAICAQIDBQUEBQYECAMDbQEAAhEDBCESMUEFURNhIgZxgZEy
obHwFMHR4SNCFVJicvEzJDRDghaSUyWiY7LCB3PSNeJEgxdUkwgJChgZJjZFGidkdFU38qOzwygp
0+PzhJSktMTU5PRldYWVpbXF1eX1RlZmdoaWprbG1ub2R1dnd4eXp7fH1+f3OEhYaHiImKi4yNjo
+DlJWWl5iZmpucnZ6fkqOkpaanqKmqq6ytrq+v/aAAwDAQACEQMRAD8A7tYaZoUPlmyvp9PjuJ5v
SQ1NCzSSBK19q1zaZMuQ5TESoC3SYcGGOCMzAEmvtNJnquheXLDT57z9GRyiBeZjFQSK7775j4s+
WchHiO7lZ9LgxwMuAGks1mx0yO+h0zRtGt7zUJIzcSGVikUUNaBnINasdlGAanJ1kXH1GHGJCGPH
GUyL35Aefv6LIo9Al8u3WojSIob6zJhubOSp4TqQCtQdweQIOWYs2SUxHiNFiI4ThM/DAlHYjuKa
/onTtP8AMem/UrdYPViufU49+Ijp+s5HxpTxS4je4/S5X5eGPPDhFWJfoZDmE7F2KtLIj14MGp1o
a4SKQCCpXV7Z2iq11PHbq5KoZXVAxVGkIHIitERm+QJ7YEqFnrmj3t3LZ2d5Dc3MMUU8scTh+Mc4
5RMStR8a7j2oehGKqp1LTheCyN1CLw0AtvUX1d1Lj4K8vsqT06DFWhqVmdSbTA5N4kK3MkYRyqxO
7IhZ6cAWZG4gmpodtjiqJxV2KuxV2KuxV2KuxV5Z5S81eYbz87vMug3N68ukWdo8lrZkLwRg9uAR
QV6SN375IjZgD6qZN+bGr6lo/wCX2salps7W19bpEYZ1oSpadFNKgj7LEYI82UjsjPy81G91LyPo
l/fSme8ubSOSeZqAsxG5NKDE81HJkOBLsVdirTMqqWYhVHUnYYqhbrV9Ks3dLu9gt3jjE0iyyohW
ItwEjBiKLz+GvSu2Kt3eqadZlBc3CRtJLFAiE/EZZ24xKFG9WP8AE9AcVX31/ZWFpJd3s6W1rFT1
JpWCqKkKNz4sQB4nFVfFXYqksvm/RkneJGkmSI0nuIULxR70q7jt7jMoaOZF8vLqXBl2hiBoWa5k
DYe8pZZ/Hovlq3rTncRuflErv+sDL57ZMh8vvcXFviwjvkPsssj1WAXGl3cB39WGRfpKkZhYpVMH
zdnnhxY5DvBY95EdrttS1KT+8ka3tvksFtGfxaQnJ6gVMjzP3uv7Llx8Uzz9I+UR+tCa4DBq+tWy
7LfxWE9AP2/X9FvvVMs0v1A91/c1ar05Mkf5wxn/AGXD9wZBf/8AKR6T/wAYrr9UeQx/3UvfH9Ln
Zf7+Hul/vU2NaGgqewzHcxhWt6hqUQtnvLH1ZLmUR+lcsDCCeqpDG1Gp05Ofopm0wY4m+GXIdOfz
P3B0eqzTHDxRviNb8vgAftLvOFjFohtNY0pRaTCURSJF8KMCCwqg2/ZNcOjyHLcJ7ikdpYhg4cuP
0m625I/zLpdh5s0i10x7prSa4EV9GyLyPpAgSrXYfHFI0da7VrvSma+WMxvuBp20M0ZUOshfwYxJ
+SNrS5a31T07iVVjtrh7ZZHgijaRY41PNfhFu8cJ6VCV70EOJt4VSw/Jm0s9O1CyFxaSrfcSrvZy
FoWS4eZeD/WfUKqrhaO5rxBYkfDjxLworV/yng1G6hvGurb6zHYW9hIJbFGhcwxXETTelHJEFY/W
F4AbJwpvtxeJeFPvKdhpWgW48uw3CTXytNdTssfps5mlMnJ6chyAdRu1SBkjjlw8VelrGaHHwX6u
dI7UNYmhu1srG0a9u+IeRQwjSNCaAu5BpXsKZPHhBHFI8Ia82oMZcMI8UvkB7yjLC7W8s4rlVKCV
Q3A0JB7io265XkhwyIbsWTjiJd6vkGx2KuxV2KvnKbX9b0L87vNl7o1rFeXZgMZimNF4M1sSftJv
sO+ZWDD4mzharUeCDJP/AMwPPmp6z+W+rWd/p0dncPGhkaOUyKQs0ZFBxFPvOXZNEYRMiXFw9pjL
MQA+L0T8qv8AyXPl3/mCi/VmBLm7aPJlEj8I2fiW4gnioqTQVoBiBZUmhbC9G1rVrjVLkRObi7uI
oysLFvq8Jb4yTT7KxqQp7s2bTNghGAvYA/E/2/c6PTanJLIaNyIG38I6/ZsO8lF69pS2kVlcieWf
V5LuGOO6diKszbqEB4qlK7AZVp8vESKAhwnZv1eAQEZWTk4hv+NqVvzE0m/1XypcWVipkmklt+UI
oQ8YnT1Kg9eKVb6MwA7UsBm8vea7240jVJtNub+zSCMXttO4hubieC1RP3gk+JUnniXn6g+ELyG7
ZK0InzBZedtcm06/m8v+hqlpJLbRXEbcAkskvp+uSknq8I4U+Ek8TyY9lDIpU889W+v6vqlhpWlR
xfWdOij1N4pJFSIyvKIY2Vmjfn6IErUKUrxJB+ywCSyHyvN5qkW8TX4YozDMyWs0ZH75OvIKKcVW
vEE7tTlRemAqFfzLDqNxYJZ2NVa7lWGeVR/dwsCXb8KfTl+lMYy4pdBfxcTWxnKAjD+I0fIdUvuR
bSqPLGjqFiUBdRnXpFF+0pI+1JJ0+/6L42P3s/h5/sDjz4T/AIPi5fxHuH6ypWsFw3lTSby2X1J7
DjcCIdXUcldR7lW2wzkPGlE8pbMMcJfl8co7mG/v70y1TWI5dJi+o/vrjU19KyTxLj4mbwCDdspx
YSJni2Eef483Kz6gHGODcz2j+PJLtHjHlzWH0udv9B1FVms7g7KJoYlSaNq9CyoGXKskuMmTRp4/
l8nhn6Z7g+YABH2WPil8jyalLLr1DHa3d1Z2lgGqCYIZiTIfZ3NR7Zfp9iR/Rl9zjzJyXl/hlKEY
+4S5/E/YyS//AOUj0n/jFdfqjyvH/dS98f0uwy/38PdL/eovUtUtrCNGlDPJK3CCCMcpJH8FGV4s
Rmdm7NnjjG/M8h1LGNXu31HzJolnLA0E0ErSzQsVboFkU1UkEUXM/DDgxTkDYIdVqMniZ8cSKINk
fat/Mm55W9lYp8Ukshk4Dr8I4r9/M4ezI7yl5I7bncYwHMm/x81S31GWzsNYaSQm2sY47G2hrUer
FFxan+y6+2CWMSlCucjxH3EsoZjCGQk+mAEQPMBCWVrKk+gW9y1JYYzeysT/AHUEYJRR/rGvL6B2
yycwRMjkdveWrFjIOKMuYHEfID9fX9iEeSe90q+umU8NUvvTsbdv53IHJgP5VFB77+GWACM4j+ZH
ctJkZ45S/wBUnUR+O770w1O6kv8AXrbRljlubCwQGaKOn790ovxEkAIGoDU+OU4o8GM5NhKX2ORn
mcmYYqJhAb/0v2K0CXVjrdo8RVJdQmMc6CjJwiUGURmgNEACD5E98jIieM3/AAj7+Xz5tkRLHljX
OZ3+HOvdyTC9uZrmVbOwjMU2pEvPdCtUtkonqb93AomUQiIjilyj08+79bk5ZmR4YCjPme6PK/j0
Ty3t4reCOCFeMUShEUdgBQZiykZGy50ICIAHIKmRZOxV2Ksa/MTzinlDynea16Ynnj4x2sDEhXmk
PFeVOw+0fYYQLRI0HyXbedtYTzRc+YbgrcXd8zm9Q/CrrIwYqKfZpxHHwoOo2zKxZDjNhwdRiGWJ
jLqyP8yvNcDpFo+mOZLW5tra6u5mABPrxpcxxAAtTgGXkevLbahrfn1hyCqoOLpuz44ZcV8RZ7/z
jr+Y95cOvku/UPFBE8umTgUYBW5PE/iPiLKfo8MwZjq7THLo9r1nVItPspZS8YuODGCKR1Tmw6fa
K/TksOIzkB0YanOMcCbF9LNIfyzp1vZ6cHSVLi4uT6t3dIwfnIdz8Q6hSaZPVZDKXKgOQa9DhjCF
g3KW5PeUo1XU1n1Z7tWU2ukVit+YJWW+lFAg47nh7dPlmRixVDh6z5+UQ4efPxZOL+HHsPOZ/UyK
51BLDTPrmoEJ6SKZ/TqRzNAQvf7RoMwo4+OfDF2U8wx4+KfQbpbY+Z1udQuI3iENjFb/AFlLlial
OVORWnwhhuO9Pnl89LwxBu5E1TjYtdxTIIqAjxX5KI83G4lsWsrVmtLqdIDNMeBJb7XBRWvDuenb
J/k6EuI7gW1/yhxGPBH0ylVn9Hudf+Z7WHWxZ2Fj9e1EgRTSIVUqoNePOjEhSSTXYZHHpCYccjwh
ll7QAyeHCPHLqiYNduJvM8+kiJFgt4+TOxPqMxCsCB0p8X4ZGWADEJ3uSzhqpSznHWwHxU9d1K4n
vYdC02ZYru4Ba5nrvDEBU8f8th0/h1yWDEBE5JC4jl5ljqs0pTGGBqR5nuH6/wAeaZ6Xpdnplott
apxQbsx3Z27sx7k5j5cspmy5WDBHFHhihPKn/KOWH/GIfrOWav8AvZe9p0H9xH3MXivXsRHeRAFY
or02nIEqP9LUNQVH7BObAw4/Sepjf+l/W6uOXw6kOgnX+nH6EB511u81LQ5I3VFeORDD6YYP6nqz
x7bn/dUe+Y08EYUR+Nh+to7Q1M8uIjqOVc74pD7gyrUBEPKmnPGAYojZMvHoF5IBT6DlWm+s+4/c
7bPXgRI5Dg+8I2//AOUj0n/jFdfqjyOP+6l74/pbcv8Afw90v96o38fHzXps839wYZYoGPQTHenz
ZemTxn9zIDnY+TDKK1ECeVED3/2NXllHa65Jr99cJHa28HpQp3qepPidyABjCZlj8OI3JXJiEMpz
TNREaS3RtOuta1s+YL+Mx2sdBp8D7EhfssR4Dr7n2y/NkGLH4cefVxdNhlny+NMVEfSE6fy1pzx3
sTGQx3rvI6lhRHlpzZNupp3rmKNTIEH+a5x0UCJDepWfn3L5NBsn1CO+ZpPUSFbdo6jg6K3MchSv
2gOhwDUSEeHztkdLEzE97qvhzUj5ZsPqlrbJJLGlnM08Dqy8gzMWIqVO3xfPJfmpWTt6hTD8lDhj
EEjhNhUby9ZfXkvYJJbaVYvq7CJgA0fg3IMe3UEHIjUS4eE0RdsjpI8fGCYmq27lS70WyupLV25x
/Uw6xrGeIKSKFZW26EDtghnlEHzZZNNGRif5v6UQloq3bXIkfeMRiGo9NQpJqq02JrkDPamwY6lx
X0quivkGx2KuxV2KvPPz70mfUPy01AwAs9k8V2UAqSkb0f8A4FGLfRko82Mxs+SQCTQbk5a471PW
/I40XWbO11G1UtK3l4UkAbZ4WhuU+TSwtUfLI228P6E7/I7y+kvnLStRghVI7LT7yW4kApyd7qW3
jBI78DtXsuCRTAPaYNR0q0v7/wDSzpDfGVijzD7Vv/usRmlONOoHeuZMsc5Rjwbxrp39bcGObHCc
vENSvr/N6V+OaV3Mdxd3Mk3lOGW3SRGFzOP3NvLtQemrj7f+UKU/HMiJERWYg93Uj3+TiZIynInT
AjvPKJ919fNFxaTcS2umfo60NuNMl5yW17VPUcj7fJOVSp3rT+mVHMAZcRviHOPRujpyYw4I1wHl
Lr57WidQ8u6lqs1q2pXSG3jk5zWcQYR8QNgCd2J6Emm3TIY9THGDwjfvbc2jnmMeOXpB3A5ft/FL
tV8pi+uZ5Fu3hhuvRFxbqooyw7UB6jbt0rvgxavgAFWRdH3p1HZ/iSJ4qEqse5G32hQ3H1I28rWb
WBPoGMKQFZeJHFgR06HKseci7F8Tfl0olw0eHg5UgrHQtX04zwWVzAtvO7SG6kjZ7kct99wrkdif
uy3JnhOjIGx06NGLS5MdiJjRPMj1ftS/WdOvYtS06z0+1eYxt9aa+cVLTk0rLLTYCgLDuKAdsvw5
ImMpSNdK8vIONqcMxOEYRJr1cXn5n7+/kmWjaNqNlq9xLNKJLQxgIxA5yTPxaWRu4+IEfKnhlGbN
GUAAN7+zoHK02mnDISTca+Z6n8eXcn2YbsGOacvmWy0mKwTT4meKMxrP9ZA33o3Hh/HM3IcUpmXE
d/L9rrMIz48YgIjYc+L9ijqvli7k0GwtLUKbq1Qo9WoCJIyJN/8AXocni1QGSUjyP69mGfQyOGMY
/VEfeN/tQGm+T9U/TNvLfJGbCMyvIoapZz6gTb/nsTkdTqIzAEfxy/U1YOz8gygzrhF/76v90msG
iamvk1dIk4teQr6cR5VUrFLWI1/1VGU4cgjkEjycoaaf5bw/4hsPgdkTFFrF1rFpdXVolrFapMpK
zCUsZQtNuKUpwyRMIwIBsmulcmcY5ZZYylEREQet868h3JtPbwXERinjWSNuqMKj8cxoyINhzJQE
hRFhCjQtJEiyNbiR0NUMpaTifYOWAy3x51VtX5XHd1fv3+9HZS3uxV2KuxV2KuxV2KuxV2KuxV2K
rJ4IZ4ZIJ0WWGVSksbgFWVhRlIPUEYq8u0T/AJx58paX5oXWfrE1zaQSetaaZIFKJIDVeb/akVT0
BHzJ7yM2AgLZv5s8n6b5lt7WO6ZoZbO6gu4Z4wvLlAxZUaoNUPI7YAWRFu8m+UNN8q6NHplkzS8S
zSXEgX1HLuz0JUD4QzniO2JNqBSeFVNKgGhqK9jgTTeKuxV2KuxV2KuxV2KuxV2KuxV2KuxV2Kux
V2KuxV2KuxV2KuxV2KuxV2KuxV2KuxV2KuxV2KuxV2KuxV2KuxV2KuxV2KuxV2KuxV2Kv//Z
								</xmpGImg:image>
						</rdf:li>
					</rdf:Alt>
				</xmp:Thumbnails>
				<xmpTPg:MaxPageSize  rdf:parseType="Resource">
					<stDim:w>734.446286</stDim:w>
					<stDim:h>274.928388</stDim:h>
					<stDim:unit>Pixels</stDim:unit>
				</xmpTPg:MaxPageSize>
				<xmpTPg:NPages>1</xmpTPg:NPages>
				<xmpTPg:HasVisibleTransparency>False</xmpTPg:HasVisibleTransparency>
				<xmpTPg:HasVisibleOverprint>False</xmpTPg:HasVisibleOverprint>
				<xmpTPg:Fonts>
					<rdf:Bag>
						<rdf:li  rdf:parseType="Resource">
							<stFnt:fontName>Amarillo</stFnt:fontName>
							<stFnt:fontFamily>Amarillo</stFnt:fontFamily>
							<stFnt:fontFace>Regular</stFnt:fontFace>
							<stFnt:fontType>TrueType</stFnt:fontType>
							<stFnt:versionString>Version 1.000 by Francis Sudio</stFnt:versionString>
							<stFnt:composite>False</stFnt:composite>
							<stFnt:fontFileName>Amarillo.ttf</stFnt:fontFileName>
						</rdf:li>
						<rdf:li  rdf:parseType="Resource">
							<stFnt:fontName>RedHatDisplay-Regular</stFnt:fontName>
							<stFnt:fontFamily>Red Hat Display</stFnt:fontFamily>
							<stFnt:fontFace>Regular</stFnt:fontFace>
							<stFnt:fontType>TrueType</stFnt:fontType>
							<stFnt:versionString>Version 1.005; Red Hat Display</stFnt:versionString>
							<stFnt:composite>False</stFnt:composite>
							<stFnt:fontFileName>RedHatDisplay-Regular.ttf</stFnt:fontFileName>
						</rdf:li>
					</rdf:Bag>
				</xmpTPg:Fonts>
				<xmpTPg:PlateNames>
					<rdf:Seq>
						<rdf:li>Cyan</rdf:li>
						<rdf:li>Magenta</rdf:li>
						<rdf:li>Yellow</rdf:li>
						<rdf:li>Black</rdf:li>
					</rdf:Seq>
				</xmpTPg:PlateNames>
				<xmpTPg:SwatchGroups>
					<rdf:Seq>
						<rdf:li  rdf:parseType="Resource">
							<xmpG:groupName>Default Swatch Group</xmpG:groupName>
							<xmpG:groupType>0</xmpG:groupType>
							<xmpG:Colorants>
								<rdf:Seq>
									<rdf:li  rdf:parseType="Resource">
										<xmpG:swatchName>C=58 M=5 Y=0 K=0 1</xmpG:swatchName>
										<xmpG:mode>CMYK</xmpG:mode>
										<xmpG:type>PROCESS</xmpG:type>
										<xmpG:cyan>57.860684</xmpG:cyan>
										<xmpG:magenta>4.885939</xmpG:magenta>
										<xmpG:yellow>0.000000</xmpG:yellow>
										<xmpG:black>0.000000</xmpG:black>
									</rdf:li>
									<rdf:li  rdf:parseType="Resource">
										<xmpG:swatchName>C=86 M=49 Y=36 K=11 1</xmpG:swatchName>
										<xmpG:mode>CMYK</xmpG:mode>
										<xmpG:type>PROCESS</xmpG:type>
										<xmpG:cyan>85.653466</xmpG:cyan>
										<xmpG:magenta>48.581672</xmpG:magenta>
										<xmpG:yellow>36.179140</xmpG:yellow>
										<xmpG:black>10.687418</xmpG:black>
									</rdf:li>
									<rdf:li  rdf:parseType="Resource">
										<xmpG:swatchName>C=73 M=0 Y=46 K=0 1</xmpG:swatchName>
										<xmpG:mode>CMYK</xmpG:mode>
										<xmpG:type>PROCESS</xmpG:type>
										<xmpG:cyan>72.503239</xmpG:cyan>
										<xmpG:magenta>0.000000</xmpG:magenta>
										<xmpG:yellow>46.454564</xmpG:yellow>
										<xmpG:black>0.000000</xmpG:black>
									</rdf:li>
									<rdf:li  rdf:parseType="Resource">
										<xmpG:swatchName>C=86 M=32 Y=66 K=16 1</xmpG:swatchName>
										<xmpG:mode>CMYK</xmpG:mode>
										<xmpG:type>PROCESS</xmpG:type>
										<xmpG:cyan>85.702294</xmpG:cyan>
										<xmpG:magenta>32.138550</xmpG:magenta>
										<xmpG:yellow>66.103607</xmpG:yellow>
										<xmpG:black>15.576409</xmpG:black>
									</rdf:li>
									<rdf:li  rdf:parseType="Resource">
										<xmpG:swatchName>C=78 M=60 Y=52 K=38 1</xmpG:swatchName>
										<xmpG:mode>CMYK</xmpG:mode>
										<xmpG:type>PROCESS</xmpG:type>
										<xmpG:cyan>77.825588</xmpG:cyan>
										<xmpG:magenta>60.234988</xmpG:magenta>
										<xmpG:yellow>52.483404</xmpG:yellow>
										<xmpG:black>38.113984</xmpG:black>
									</rdf:li>
								</rdf:Seq>
							</xmpG:Colorants>
						</rdf:li>
					</rdf:Seq>
				</xmpTPg:SwatchGroups>
				<dc:format>image/svg+xml</dc:format>
				<xmpMM:DerivedFrom  rdf:parseType="Resource">
					<stRef:instanceID>xmp.iid:0ffee13e-f5e8-468e-b584-fe3f10d80539</stRef:instanceID>
					<stRef:documentID>xmp.did:0ffee13e-f5e8-468e-b584-fe3f10d80539</stRef:documentID>
					<stRef:originalDocumentID>xmp.did:0ffee13e-f5e8-468e-b584-fe3f10d80539</stRef:originalDocumentID>
				</xmpMM:DerivedFrom>
				<xmpMM:DocumentID>xmp.did:c3f03b6b-a14c-4d55-a73b-198f0bac2e99</xmpMM:DocumentID>
				<xmpMM:InstanceID>xmp.iid:c3f03b6b-a14c-4d55-a73b-198f0bac2e99</xmpMM:InstanceID>
				<xmpMM:OriginalDocumentID>xmp.did:0ffee13e-f5e8-468e-b584-fe3f10d80539</xmpMM:OriginalDocumentID>
				<xmpMM:History>
					<rdf:Seq>
						<rdf:li  rdf:parseType="Resource">
							<stEvt:action>saved</stEvt:action>
							<stEvt:instanceID>xmp.iid:0ffee13e-f5e8-468e-b584-fe3f10d80539</stEvt:instanceID>
							<stEvt:when>2020-12-03T14:49:05-05:00</stEvt:when>
							<stEvt:softwareAgent>Adobe Illustrator 25.0 (Macintosh)</stEvt:softwareAgent>
							<stEvt:changed>/</stEvt:changed>
						</rdf:li>
						<rdf:li  rdf:parseType="Resource">
							<stEvt:action>saved</stEvt:action>
							<stEvt:instanceID>xmp.iid:c3f03b6b-a14c-4d55-a73b-198f0bac2e99</stEvt:instanceID>
							<stEvt:when>2020-12-03T14:49:17-05:00</stEvt:when>
							<stEvt:softwareAgent>Adobe Illustrator 25.0 (Macintosh)</stEvt:softwareAgent>
							<stEvt:changed>/</stEvt:changed>
						</rdf:li>
					</rdf:Seq>
				</xmpMM:History>
			</rdf:Description>
		</rdf:RDF>
	</x:xmpmeta>
	<sfw  xmlns="&ns_sfw;">
		<slices></slices>
		<sliceSourceBounds  bottomLeftOrigin="true" height="279.235" width="675.711" x="27.8603" y="-30.7708"></sliceSourceBounds>
		<optimizationSettings>
			<targetSettings  fileFormat="PNG24Format" targetSettingsID="0">
				<PNG24Format  filtered="false" interlaced="false" matteColor="#FFFFFF" noMatteColor="false" transparency="true">
					</PNG24Format>
			</targetSettings>
		</optimizationSettings>
	</sfw>
</metadata>
<g>
	<path fill="#56C0EE" d="M128.1841,130.1268c0.27-2.0986,0.5498-4.269,0.7554-6.4165c0.8325-8.7061-0.0859-16.6631-1.2022-23.9648
		c-2.1523-14.0786-4.1562-27.9697-6.5029-44.4961l-0.5474-3.8564l-7.7134,1.0942l0.5469,3.8569
		c2.0278,14.2822,4.2202,29.5679,6.5156,44.5786c1.0405,6.8066,1.8999,14.1885,1.1475,22.0459
		c-0.1987,2.0786-0.4722,4.1973-0.7363,6.2456c-0.1465,1.1357-0.293,2.271-0.4287,3.4058c-0.2686,2.2515-0.8271,4.3574-1.7085,6.439
		c-1.3687,3.2334-3.4336,6.2656-5.6084,9.3457l-1.3594,1.9209c-2.4692,3.4834-5.0229,7.085-7.3569,10.8193
		c-3.9722,6.3545-6.2632,13.3037-7.0029,21.2432c-0.2505,2.6895-0.3364,5.5938-0.2705,9.1387
		c0.0186,0.9668,0.0479,1.9346,0.0781,2.9014c0.0464,1.5068,0.0942,3.0635,0.0942,4.5859c0,3.9443,0.9062,8.4805,1.7559,12.4229
		c1.1035,5.1289,2.4248,10.2197,3.7944,15.4189c0.3677,1.3975,0.7402,2.7949,1.1128,4.1934
		c1.2051,4.5244,2.4517,9.2031,3.5269,13.8213l0.8843,3.7949l7.5879-1.7676l-0.8833-3.7939
		c-1.0967-4.7061-2.3618-9.457-3.5854-14.0508c-0.3711-1.3945-0.7422-2.7881-1.1094-4.1816
		c-1.3462-5.1104-2.6431-10.1084-3.7119-15.0742c-0.667-3.0967-1.5811-7.3379-1.5811-10.7832c0-1.7305-0.0449-3.4561-0.0884-5.124
		c-0.0957-3.6719-0.186-7.1396,0.1528-10.7793c0.624-6.7012,2.5386-12.5352,5.8525-17.8359
		c2.2354-3.5771,4.7002-7.0527,7.0835-10.4131l1.3901-1.9629c2.332-3.3027,4.7485-6.8564,6.4189-10.8037
		c1.1709-2.7656,1.9131-5.563,2.27-8.5522C127.8906,132.4041,128.0371,131.2655,128.1841,130.1268z"/>
	<path fill="#56C0EE" d="M27.8603,26.4642v221.9951h48.5503l0.8853,0.2158l0.8867-3.8047
		c1.0762-4.6211,2.3232-9.3037,3.5298-13.8311c0.3716-1.3945,0.7432-2.79,1.1099-4.1836c1.3696-5.1992,2.6904-10.29,3.7949-15.418
		c0.8491-3.9443,1.7554-8.4824,1.7554-12.4238c0-1.5176,0.0479-3.0693,0.0942-4.5713c0.0298-0.9717,0.0601-1.9443,0.0781-2.916
		c0.0659-3.5459-0.02-6.4502-0.271-9.1387c-0.7393-7.9395-3.0298-14.8877-7.0024-21.2432
		c-2.334-3.7334-4.8872-7.3359-7.3564-10.8193l-1.3599-1.9209c-2.1743-3.0801-4.2397-6.1123-5.6084-9.3457
		c-0.8809-2.082-1.4395-4.188-1.708-6.439c-0.1357-1.1367-0.2827-2.2739-0.4292-3.4111c-0.2646-2.0469-0.5376-4.1636-0.7363-6.2402
		c-0.7519-7.8594,0.1074-15.2407,1.1475-22.0459c2.2949-15.0088,4.4878-30.2949,6.5156-44.5786l0.5469-3.8569l-7.7134-1.0942
		l-0.5474,3.8564C61.9985,69.5062,59.81,84.7645,57.52,99.745c-1.1167,7.3022-2.0352,15.2593-1.2026,23.9653
		c0.2056,2.1475,0.4854,4.3174,0.7554,6.416c0.147,1.1392,0.2935,2.2773,0.4292,3.4165c0.3569,2.9888,1.0991,5.7866,2.27,8.5522
		c1.6704,3.9473,4.0869,7.501,6.4189,10.8037l1.3984,1.9746c2.3804,3.3574,4.8418,6.8291,7.0752,10.4014
		c3.314,5.3008,5.2285,11.1348,5.8525,17.8359c0.3389,3.6396,0.2485,7.1074,0.1528,10.7793
		c-0.0435,1.668-0.0884,3.3936-0.0884,5.124c0,3.4434-0.9136,7.6855-1.5806,10.7832c-1.0693,4.9668-2.3667,9.9648-3.7124,15.0742
		c-0.3672,1.3936-0.7383,2.7871-1.1094,4.1816c-1.0122,3.8008-2.0571,7.7227-3.0049,11.6152H35.6513V34.2552h206.4136v206.4131
		h-25.1543c-2.4731-20.4033-4.1182-41.6455-4.8901-63.1543c-0.6089-16.9502-0.5679-31.7412,0.1245-45.2065l5.2222-85.0425
		l-7.7769-0.4775l-5.2241,85.0952c-0.7061,13.7056-0.749,28.7231-0.1323,45.9106c0.8013,22.3008,2.5308,44.3154,5.1396,65.4287
		l0.625,5.2373h39.8574V26.4642H27.8603z"/>
	
		<rect x="114.3324" y="186.3296" transform="matrix(0.9978 -0.0665 0.0665 0.9978 -14.1778 8.3427)" fill="#56C0EE" width="7.791" height="61.6177"/>
	
		<rect x="111.8334" y="213.2305" transform="matrix(0.0664 -0.9978 0.9978 0.0664 -83.4761 345.0362)" fill="#56C0EE" width="61.6173" height="7.7909"/>
	<rect x="126.541" y="186.8216" fill="#56C0EE" width="7.791" height="61.498"/>
</g>
<g>
	<path fill="none" d="M178.6284,150.3255l1.3594-1.9209c2.1743-3.0801,4.2397-6.1123,5.6084-9.3457
		c0.8804-2.0801,1.4395-4.186,1.7085-6.439c0.1362-1.1406,0.2832-2.2817,0.4307-3.4229c0.2637-2.043,0.5361-4.1558,0.7344-6.2285
		c0.752-7.8579-0.1074-15.2397-1.1479-22.0459c-2.3438-15.3306-5.9849-27.3423-10.8228-35.7021
		c-2.25-3.8882-6.8564-10.4106-12.4258-10.4106s-10.1753,6.5225-12.4248,10.4106c-4.8374,8.3589-8.479,20.3706-10.8237,35.7021
		c-1.04,6.8071-1.8994,14.1895-1.1475,22.0459c0.1987,2.0767,0.4717,4.1934,0.7363,6.2407
		c0.1465,1.1372,0.2935,2.2739,0.4292,3.4111c0.2686,2.2505,0.8271,4.3564,1.708,6.4385c1.3696,3.2344,3.4346,6.2666,5.6084,9.3457
		l1.3613,1.9229c2.4688,3.4834,5.0215,7.084,7.3555,10.8174c3.9717,6.3545,6.2627,13.3027,7.0024,21.2432
		c0.083,0.8887,0.1479,1.8008,0.1953,2.752c0.0474-0.9502,0.1118-1.8623,0.1948-2.752c0.7393-7.9395,3.0303-14.8887,7.0029-21.2432
		C173.6054,157.4105,176.1591,153.8089,178.6284,150.3255z"/>
	<path fill="#25BAA2" d="M195.0229,99.7454c-2.4907-16.2935-6.4541-29.2222-11.7803-38.4272
		c-3.7754-6.5234-10.165-14.2993-19.1694-14.2993c-9.0039,0-15.3936,7.7759-19.1689,14.2993
		c-5.3262,9.2051-9.2896,22.1338-11.7803,38.4268c-1.1167,7.3022-2.0352,15.2598-1.2021,23.9653
		c0.2056,2.1475,0.4854,4.3179,0.7559,6.417c0.1465,1.1387,0.293,2.2769,0.4287,3.4155c0.3569,2.9888,1.0991,5.7866,2.27,8.5522
		c1.6699,3.9453,4.0864,7.5,6.4185,10.8037l1.3916,1.9648c2.3828,3.3604,4.8472,6.835,7.0825,10.4111
		c3.3135,5.3008,5.228,11.1348,5.8525,17.8359c0.3389,3.6396,0.2485,7.1064,0.1528,10.7773
		c-0.0439,1.6689-0.0889,3.3955-0.0889,5.126c0,3.4424-0.9136,7.6855-1.5806,10.7842c-1.0688,4.9648-2.3657,9.9629-3.7119,15.0732
		c-0.3677,1.3965-0.7397,2.792-1.1118,4.1895c-1.2227,4.5908-2.4873,9.3389-3.583,14.043l-0.8833,3.7939l7.5874,1.7676
		l0.8843-3.7949c1.0776-4.6279,2.3267-9.3164,3.5347-13.8496c0.3701-1.3887,0.7402-2.7773,1.1055-4.165
		c1.3706-5.2031,2.6919-10.2979,3.7944-15.418c0.8491-3.9443,1.7554-8.4824,1.7554-12.4238c0-1.5176,0.0479-3.0693,0.0942-4.5713
		c0.001-0.0293,0.002-0.0586,0.0024-0.0879c0.001,0.0293,0.002,0.0596,0.0029,0.0889c0.0464,1.501,0.0942,3.0537,0.0942,4.5703
		c0,3.9434,0.9058,8.4805,1.7549,12.4238c1.105,5.1299,2.4258,10.2207,3.7954,15.418c0.3672,1.3945,0.7388,2.79,1.1104,4.1855
		c1.2061,4.5273,2.4531,9.208,3.5293,13.8291l0.8838,3.7949l7.5879-1.7676l-0.8833-3.7939
		c-1.0991-4.7178-2.3677-9.4795-3.5938-14.085c-0.3687-1.3828-0.7368-2.7646-1.1011-4.1475
		c-1.3467-5.1143-2.644-10.1162-3.7119-15.0742c-0.667-3.0986-1.5811-7.3428-1.5811-10.7832c0-1.7295-0.0449-3.4541-0.0884-5.1221
		c-0.0957-3.6719-0.186-7.1406,0.1533-10.7812c0.624-6.7012,2.5381-12.5352,5.8521-17.8359
		c2.2354-3.5762,4.6997-7.0508,7.0825-10.4111l1.3916-1.9648c2.3325-3.3047,4.7495-6.8604,6.4185-10.8037
		c1.1714-2.7656,1.9136-5.5635,2.27-8.5522c0.1348-1.1328,0.2808-2.2646,0.4268-3.3975c0.2715-2.105,0.5518-4.2812,0.7578-6.4351
		C197.0581,115.0047,196.1396,107.0472,195.0229,99.7454z M164.0737,185.14c-0.0474-0.9512-0.1123-1.8633-0.1953-2.752
		c-0.7397-7.9404-3.0308-14.8887-7.0024-21.2432c-2.334-3.7334-4.8867-7.334-7.3555-10.8174l-1.3613-1.9229
		c-2.1738-3.0791-4.2388-6.1113-5.6084-9.3457c-0.8809-2.082-1.4395-4.188-1.708-6.4385c-0.1357-1.1372-0.2827-2.2739-0.4292-3.4111
		c-0.2646-2.0474-0.5376-4.1641-0.7363-6.2407c-0.752-7.8564,0.1074-15.2388,1.1475-22.0459
		c2.3447-15.3315,5.9863-27.3433,10.8237-35.7021c2.2495-3.8882,6.8555-10.4106,12.4248-10.4106s10.1758,6.5225,12.4258,10.4106
		c4.8379,8.3599,8.479,20.3716,10.8228,35.7021c1.0405,6.8062,1.8999,14.188,1.1479,22.0459
		c-0.1982,2.0728-0.4707,4.1855-0.7344,6.2285c-0.1475,1.1411-0.2944,2.2822-0.4307,3.4229
		c-0.269,2.2529-0.8281,4.3589-1.7085,6.439c-1.3687,3.2334-3.4341,6.2656-5.6084,9.3457l-1.3594,1.9209
		c-2.4692,3.4834-5.0229,7.085-7.3569,10.8193c-3.9727,6.3545-6.2637,13.3037-7.0029,21.2432
		C164.1855,183.2777,164.1211,184.1898,164.0737,185.14z"/>
</g>
<text transform="matrix(1 0 0 1 436.871 96.1265)" fill="#37474F" font-family="'RedHatDisplay-Regular'" font-size="40px">What&apos;s for</text>
<text transform="matrix(1 0 0 1 296.5691 189.3629)" fill="#56C0EE" font-family="'Amarillo'" font-size="85.0414px">Dinner?</text>
</svg>
